<svg width="600" height="576" viewBox="0 0 600 576" fill="none" xmlns="http://www.w3.org/2000/svg">
<g clip-path="url(#clip0_563_4585)">
<path d="M102.499 136.842H207.631L207.631 0H102.499L102.499 136.842Z" fill="#F4F4F4"/>
<path d="M102.499 0H99.0879V136.842H102.499V0Z" fill="#F4F4F4"/>
<path opacity="0.05" d="M102.499 0H99.0879V136.842H102.499V0Z" fill="#292A2E"/>
<path opacity="0.05" d="M121.65 111.914L188.48 111.914V24.927L121.65 24.927L121.65 111.914Z" fill="#292A2E"/>
<path opacity="0.03" d="M121.65 111.914H125.132L125.132 24.927H121.65L121.65 111.914Z" fill="#292A2E"/>
<path d="M16.517 257.265H102.498L102.498 170.494H16.517L16.517 257.265Z" fill="#F4F4F4"/>
<path opacity="0.05" d="M32.1798 241.458H86.8358V186.301H32.1798L32.1798 241.458Z" fill="#292A2E"/>
<path d="M16.5176 170.494H13.1069V257.264H16.5176V170.494Z" fill="#F4F4F4"/>
<path opacity="0.05" d="M16.5176 170.494H13.1069V257.264H16.5176V170.494Z" fill="#292A2E"/>
<path opacity="0.03" d="M32.1804 241.458H35.6632L35.6632 186.301H32.1804L32.1804 241.458Z" fill="#292A2E"/>
<path d="M568.295 4.87652H320.784V252.387H568.295V4.87652Z" fill="#F4F4F4"/>
<path d="M571.132 4.87652H568.295V252.387H571.132V4.87652Z" fill="#F4F4F4"/>
<path opacity="0.05" d="M571.132 4.87652H568.295V252.387H571.132V4.87652Z" fill="#292A2E"/>
<path opacity="0.05" d="M508.335 175.432V110.675H455.289V148.297H373.121V214.913H338.199V252.388H373.121H379.849H556.389V175.432H508.335Z" fill="#292A2E"/>
<path opacity="0.34" d="M500.726 117.706H462.098V124.737H500.726V117.706Z" fill="#FFFFFA"/>
<path opacity="0.34" d="M500.726 132.276H462.098V139.307H500.726V132.276Z" fill="#FFFFFA"/>
<path opacity="0.34" d="M500.726 146.846H462.098V153.877H500.726V146.846Z" fill="#FFFFFA"/>
<path opacity="0.34" d="M549.539 182.257H542.419V189.288H549.539V182.257Z" fill="#FFFFFA"/>
<path opacity="0.34" d="M549.539 196.827H542.419V203.858H549.539V196.827Z" fill="#FFFFFA"/>
<path opacity="0.34" d="M549.539 211.397H542.419V218.428H549.539V211.397Z" fill="#FFFFFA"/>
<path opacity="0.34" d="M536.368 182.257H529.248V189.288H536.368V182.257Z" fill="#FFFFFA"/>
<path opacity="0.34" d="M536.368 196.827H529.248V203.858H536.368V196.827Z" fill="#FFFFFA"/>
<path opacity="0.34" d="M536.368 211.397H529.248V218.428H536.368V211.397Z" fill="#FFFFFA"/>
<path opacity="0.34" d="M523.552 182.257H516.433V189.288H523.552V182.257Z" fill="#FFFFFA"/>
<path opacity="0.34" d="M523.552 196.827H516.433V203.858H523.552V196.827Z" fill="#FFFFFA"/>
<path opacity="0.34" d="M523.552 211.397H516.433V218.428H523.552V211.397Z" fill="#FFFFFA"/>
<path d="M568.295 127.244H518.492V4.87652H514.373V127.244H379.849V4.87652H375.73V127.244H320.784V131.362H375.73V252.387H379.849V131.362H514.373V252.387H518.492V131.362H568.295V127.244Z" fill="white"/>
<path d="M578.155 252.089H310.924V260.32H578.155V252.089Z" fill="#F4F4F4"/>
<path opacity="0.1" d="M578.155 252.089H310.924V260.32H578.155V252.089Z" fill="#292A2E"/>
<path opacity="0.1" d="M582.013 252.089H578.155V260.32H582.013V252.089Z" fill="#292A2E"/>
<path opacity="0.1" d="M582.013 252.089H578.155V260.32H582.013V252.089Z" fill="#292A2E"/>
<path d="M546.806 494.525C546.725 494.525 546.646 494.509 546.572 494.478C546.497 494.448 546.43 494.403 546.374 494.346C545.513 493.485 544.11 477.691 540.33 430.664C538.783 411.422 537.322 393.246 536.256 382.201C536.18 381.412 535.874 381.32 535.774 381.291C534.315 380.85 529.876 384.349 527.398 387.414C527.297 387.54 527.149 387.621 526.987 387.638C526.826 387.655 526.665 387.607 526.539 387.505C526.413 387.403 526.332 387.255 526.315 387.094C526.298 386.933 526.346 386.772 526.448 386.645C528.086 384.619 533.427 379.308 536.125 380.12C536.669 380.284 537.347 380.757 537.473 382.084C538.54 393.139 540.001 411.319 541.548 430.566C543.845 459.143 546.447 491.518 547.302 493.557C547.367 493.649 547.406 493.756 547.415 493.868C547.423 493.98 547.4 494.093 547.349 494.192C547.298 494.292 547.22 494.376 547.124 494.435C547.028 494.494 546.918 494.525 546.806 494.525Z" fill="#494949"/>
<path d="M534.686 402.469C544.825 394.341 548.185 381.691 542.192 374.214C536.198 366.737 523.12 367.264 512.981 375.391C502.842 383.518 499.481 396.168 505.475 403.646C511.469 411.123 524.547 410.596 534.686 402.469Z" fill="#47BAD8"/>
<path opacity="0.2" d="M534.686 402.469C544.825 394.341 548.185 381.691 542.192 374.214C536.198 366.737 523.12 367.264 512.981 375.391C502.842 383.518 499.481 396.168 505.475 403.646C511.469 411.123 524.547 410.596 534.686 402.469Z" fill="white"/>
<path d="M508.318 405.548C508.26 405.548 508.203 405.531 508.154 405.5C508.105 405.469 508.066 405.424 508.042 405.372C508.017 405.32 508.008 405.261 508.015 405.204C508.023 405.146 508.046 405.092 508.083 405.047L536.979 370.202C537.004 370.17 537.035 370.144 537.071 370.124C537.107 370.105 537.146 370.093 537.186 370.089C537.227 370.085 537.267 370.089 537.306 370.101C537.345 370.112 537.381 370.132 537.412 370.158C537.443 370.184 537.469 370.216 537.488 370.252C537.507 370.288 537.518 370.327 537.521 370.367C537.525 370.408 537.52 370.449 537.508 370.487C537.495 370.526 537.475 370.561 537.448 370.592L508.553 405.438C508.524 405.472 508.488 405.5 508.448 405.519C508.407 405.538 508.363 405.548 508.318 405.548Z" fill="white"/>
<path d="M553.108 487.055C553.011 487.055 552.914 487.032 552.828 486.987C552.741 486.942 552.666 486.878 552.61 486.798C552.553 486.719 552.517 486.627 552.503 486.53C552.489 486.433 552.499 486.335 552.531 486.243L563.385 455.028C563.704 454.111 564.249 453.288 564.969 452.636C565.688 451.984 566.56 451.523 567.505 451.295C568.449 451.067 569.435 451.08 570.373 451.332C571.311 451.584 572.171 452.067 572.873 452.738L578.611 458.219C578.729 458.331 578.797 458.485 578.8 458.647C578.804 458.809 578.743 458.966 578.631 459.084C578.519 459.201 578.365 459.269 578.203 459.272C578.041 459.276 577.884 459.215 577.767 459.103L572.029 453.621C571.474 453.092 570.795 452.711 570.055 452.512C569.315 452.313 568.536 452.303 567.791 452.483C567.046 452.663 566.358 453.027 565.789 453.542C565.221 454.056 564.791 454.705 564.539 455.429L553.685 486.644C553.643 486.764 553.565 486.868 553.462 486.942C553.359 487.015 553.235 487.055 553.108 487.055Z" fill="#494949"/>
<path d="M594.644 475.502C602.158 469.555 601.711 456.473 593.646 446.285C585.581 436.096 572.952 432.658 565.438 438.605C557.924 444.553 558.371 457.634 566.435 467.823C574.5 478.012 587.129 481.45 594.644 475.502Z" fill="#47BAD8"/>
<path d="M541.875 492.535C541.737 492.534 541.604 492.488 541.496 492.403C541.389 492.318 541.313 492.199 541.281 492.065L523.066 415.905C522.942 415.386 522.677 414.911 522.3 414.533C521.923 414.155 521.449 413.888 520.93 413.762C520.412 413.636 519.868 413.655 519.36 413.817C518.851 413.98 518.397 414.279 518.048 414.683L512.433 421.172C512.327 421.295 512.177 421.37 512.015 421.382C511.854 421.394 511.694 421.341 511.571 421.234C511.449 421.128 511.373 420.978 511.362 420.816C511.35 420.655 511.403 420.495 511.509 420.372L517.124 413.884C517.621 413.31 518.266 412.884 518.989 412.654C519.711 412.423 520.484 412.396 521.221 412.576C521.958 412.756 522.632 413.135 523.167 413.673C523.702 414.211 524.078 414.886 524.255 415.624L542.47 491.784C542.488 491.862 542.491 491.943 542.479 492.022C542.466 492.101 542.438 492.177 542.396 492.246C542.354 492.314 542.299 492.373 542.234 492.42C542.169 492.468 542.095 492.501 542.017 492.52C541.97 492.53 541.923 492.535 541.875 492.535Z" fill="#494949"/>
<path d="M535.157 438.091C537.371 425.287 531.511 413.583 522.069 411.95C512.626 410.317 503.176 419.374 500.961 432.178C498.747 444.982 504.607 456.686 514.05 458.319C523.493 459.952 532.943 450.896 535.157 438.091Z" fill="#47BAD8"/>
<path d="M546.807 494.525C546.781 494.525 546.756 494.523 546.731 494.52C546.651 494.511 546.574 494.485 546.505 494.446C546.435 494.406 546.373 494.353 546.324 494.29C546.275 494.227 546.238 494.154 546.217 494.077C546.196 493.999 546.19 493.919 546.199 493.839L557.831 399.402C557.957 398.373 558.378 397.403 559.043 396.608C559.708 395.813 560.589 395.227 561.579 394.92C562.569 394.613 563.626 394.599 564.624 394.879C565.622 395.159 566.518 395.721 567.204 396.498L580.499 411.555C580.552 411.616 580.593 411.686 580.619 411.762C580.645 411.837 580.656 411.918 580.651 411.998C580.646 412.078 580.625 412.156 580.59 412.228C580.554 412.301 580.505 412.365 580.445 412.418C580.385 412.471 580.315 412.512 580.239 412.538C580.163 412.564 580.083 412.575 580.003 412.57C579.922 412.565 579.844 412.544 579.772 412.509C579.7 412.474 579.635 412.425 579.582 412.364L566.29 397.307C565.759 396.707 565.067 396.272 564.296 396.056C563.524 395.839 562.707 395.85 561.942 396.087C561.176 396.324 560.496 396.777 559.982 397.392C559.468 398.006 559.143 398.756 559.045 399.551L547.412 493.988C547.394 494.136 547.323 494.272 547.211 494.371C547.1 494.47 546.956 494.524 546.807 494.525Z" fill="#494949"/>
<path d="M594.134 419.923C598.772 411.538 593.315 399.641 581.944 393.351C570.573 387.061 557.595 388.761 552.957 397.146C548.318 405.532 553.776 417.429 565.147 423.718C576.517 430.008 589.495 428.309 594.134 419.923Z" fill="#47BAD8"/>
<path opacity="0.2" d="M594.644 475.502C602.158 469.555 601.711 456.473 593.646 446.285C585.581 436.096 572.952 432.658 565.438 438.605C557.924 444.553 558.371 457.634 566.435 467.823C574.5 478.012 587.129 481.45 594.644 475.502Z" fill="white"/>
<path opacity="0.5" d="M535.157 438.091C537.371 425.287 531.511 413.583 522.069 411.95C512.626 410.317 503.176 419.374 500.961 432.178C498.747 444.982 504.607 456.686 514.05 458.319C523.493 459.952 532.943 450.896 535.157 438.091Z" fill="white"/>
<path opacity="0.5" d="M594.134 419.923C598.772 411.538 593.315 399.641 581.944 393.351C570.573 387.061 557.595 388.761 552.957 397.146C548.318 405.532 553.776 417.429 565.147 423.718C576.517 430.008 589.495 428.309 594.134 419.923Z" fill="white"/>
<path d="M561.683 574.654H531.929L526.998 479.456H566.613L561.683 574.654Z" fill="#292A2E"/>
<path opacity="0.3" d="M561.683 574.654H531.929L526.998 479.456H566.613L561.683 574.654Z" fill="white"/>
<path d="M594.644 475.804C594.598 475.804 594.553 475.794 594.511 475.774C594.469 475.754 594.433 475.724 594.404 475.688L565.198 438.791C565.173 438.76 565.154 438.724 565.143 438.685C565.132 438.647 565.129 438.606 565.134 438.566C565.138 438.527 565.151 438.488 565.17 438.453C565.19 438.418 565.216 438.387 565.248 438.362C565.279 438.337 565.315 438.319 565.354 438.308C565.392 438.297 565.433 438.294 565.472 438.298C565.512 438.303 565.551 438.315 565.586 438.335C565.621 438.354 565.652 438.38 565.677 438.412L594.885 475.309C594.935 475.373 594.958 475.453 594.949 475.533C594.939 475.614 594.899 475.687 594.836 475.737C594.781 475.78 594.714 475.804 594.644 475.804Z" fill="white"/>
<path d="M592.192 422.879C592.127 422.879 592.064 422.857 592.012 422.818L554.638 395.529C554.606 395.505 554.578 395.476 554.557 395.441C554.537 395.407 554.523 395.369 554.516 395.329C554.51 395.29 554.512 395.249 554.521 395.21C554.531 395.171 554.548 395.134 554.572 395.102C554.595 395.069 554.625 395.042 554.659 395.021C554.694 395 554.732 394.986 554.771 394.98C554.811 394.974 554.851 394.976 554.89 394.985C554.929 394.995 554.966 395.012 554.999 395.035L592.372 422.325C592.423 422.363 592.461 422.417 592.48 422.478C592.499 422.539 592.499 422.604 592.479 422.665C592.459 422.725 592.421 422.778 592.369 422.816C592.318 422.854 592.256 422.874 592.192 422.875V422.879Z" fill="white"/>
<path d="M512.531 457.92C512.504 457.92 512.478 457.917 512.452 457.91C512.374 457.889 512.307 457.838 512.266 457.768C512.226 457.698 512.215 457.614 512.235 457.536L524.133 412.961C524.156 412.884 524.207 412.82 524.277 412.781C524.346 412.742 524.428 412.732 524.505 412.752C524.582 412.773 524.647 412.822 524.688 412.891C524.729 412.959 524.742 413.04 524.723 413.118L512.826 457.694C512.808 457.759 512.77 457.816 512.717 457.857C512.663 457.898 512.598 457.92 512.531 457.92Z" fill="white"/>
<path d="M110.508 385.992H61.4273V400.272H110.508V385.992Z" fill="#F4F4F4"/>
<path opacity="0.05" d="M74.4492 385.992H68.0183V400.272H74.4492V385.992Z" fill="#292A2E"/>
<path d="M104.236 389.096H77.4958V397.558H104.236V389.096Z" fill="white"/>
<path d="M149.656 387.855L104.052 367.936L98.3359 381.023L143.94 400.942L149.656 387.855Z" fill="#F4F4F4"/>
<path opacity="0.05" d="M149.656 387.855L104.052 367.936L98.3359 381.023L143.94 400.942L149.656 387.855Z" fill="#292A2E"/>
<path d="M143.532 385.18L137.556 382.57L131.84 395.657L137.816 398.267L143.532 385.18Z" fill="white"/>
<path d="M133.483 384.178L108.637 373.326L105.25 381.081L130.096 391.933L133.483 384.178Z" fill="white"/>
<path opacity="0.05" d="M149.742 566.899H137.408V575.136H149.742V566.899Z" fill="#292A2E"/>
<path opacity="0.05" d="M23.6402 566.899H11.3062V575.136H23.6402V566.899Z" fill="#292A2E"/>
<path d="M161.048 400.942H0V566.62H161.048V400.942Z" fill="#F4F4F4"/>
<path opacity="0.03" d="M161.048 400.942H0V566.62H161.048V400.942Z" fill="#292A2E"/>
<path d="M190.892 400.942H29.8445V566.62H190.892V400.942Z" fill="#F4F4F4"/>
<path opacity="0.05" d="M179.587 566.899H167.253V575.136H179.587V566.899Z" fill="#292A2E"/>
<path opacity="0.05" d="M53.4847 566.899H41.1507V575.136H53.4847V566.899Z" fill="#292A2E"/>
<path opacity="0.7" d="M184.848 408.701H35.8905V440.532H184.848V408.701Z" fill="white"/>
<path opacity="0.7" d="M184.848 448.323H35.8905V480.153H184.848V448.323Z" fill="white"/>
<path opacity="0.7" d="M184.848 487.943H35.8905V519.773H184.848V487.943Z" fill="white"/>
<path opacity="0.05" d="M110.369 429.07C112.829 429.07 114.823 427.076 114.823 424.616C114.823 422.157 112.829 420.163 110.369 420.163C107.909 420.163 105.915 422.157 105.915 424.616C105.915 427.076 107.909 429.07 110.369 429.07Z" fill="#292A2E"/>
<path opacity="0.05" d="M110.369 468.691C112.829 468.691 114.823 466.697 114.823 464.238C114.823 461.778 112.829 459.784 110.369 459.784C107.909 459.784 105.915 461.778 105.915 464.238C105.915 466.697 107.909 468.691 110.369 468.691Z" fill="#292A2E"/>
<path opacity="0.05" d="M110.369 508.312C112.829 508.312 114.823 506.318 114.823 503.858C114.823 501.399 112.829 499.405 110.369 499.405C107.909 499.405 105.915 501.399 105.915 503.858C105.915 506.318 107.909 508.312 110.369 508.312Z" fill="#292A2E"/>
<path opacity="0.7" d="M184.848 528.457H35.8905V560.287H184.848V528.457Z" fill="white"/>
<path opacity="0.05" d="M110.369 548.826C112.829 548.826 114.823 546.832 114.823 544.372C114.823 541.912 112.829 539.918 110.369 539.918C107.909 539.918 105.915 541.912 105.915 544.372C105.915 546.832 107.909 548.826 110.369 548.826Z" fill="#292A2E"/>
<path d="M389.061 442.758H73.1569C68.8931 442.758 64.8038 441.064 61.7888 438.049C58.7737 435.034 57.0799 430.945 57.0799 426.681L68.0782 70.0713H415.526L405.138 426.681C405.138 430.945 403.445 435.034 400.43 438.049C397.415 441.064 393.325 442.758 389.061 442.758Z" fill="#292A2E"/>
<path opacity="0.9" d="M389.061 442.758H73.1569C68.8931 442.758 64.8038 441.064 61.7888 438.049C58.7737 435.034 57.0799 430.945 57.0799 426.681L68.0782 70.0713H415.526L405.138 426.681C405.138 430.945 403.445 435.034 400.43 438.049C397.415 441.064 393.325 442.758 389.061 442.758Z" fill="white"/>
<path d="M389.061 443.369H73.157C68.7325 443.364 64.4907 441.604 61.362 438.476C58.2334 435.347 56.4734 431.106 56.4683 426.681L67.4666 69.4603H416.137L405.749 426.681C405.744 431.105 403.985 435.347 400.856 438.476C397.728 441.604 393.486 443.364 389.061 443.369ZM68.6886 70.6823L57.6903 426.681C57.695 430.782 59.326 434.713 62.2256 437.612C65.1252 440.512 69.0564 442.143 73.157 442.147H389.061C393.162 442.142 397.093 440.511 399.992 437.612C402.892 434.713 404.523 430.781 404.527 426.681L414.915 70.6823H68.6886Z" fill="#292A2E"/>
<path d="M400.671 34.7124H84.7663C80.3418 34.7174 76.1 36.4772 72.9713 39.6058C69.8427 42.7343 68.0828 46.976 68.0776 51.4005L67.4666 70.6823H416.137L417.359 51.4005C417.354 46.9761 415.594 42.7343 412.465 39.6058C409.337 36.4773 405.095 34.7174 400.671 34.7124Z" fill="#0C0C0C"/>
<path d="M406.781 34.7124H87.2103C82.7858 34.7174 78.544 36.4772 75.4154 39.6058C72.2868 42.7343 70.5268 46.976 70.5216 51.4005V70.6823H423.469V51.4005C423.464 46.9761 421.704 42.7343 418.576 39.6058C415.447 36.4773 411.205 34.7174 406.781 34.7124Z" fill="#292A2E"/>
<path d="M71.1333 70.0713H422.859V432.791C422.859 437.055 421.165 441.144 418.15 444.159C415.135 447.174 411.045 448.868 406.781 448.868H87.2103C82.9464 448.868 78.8572 447.174 75.8421 444.159C72.8271 441.144 71.1333 437.055 71.1333 432.791V70.0713Z" fill="white"/>
<path d="M406.781 449.479H87.2103C82.7858 449.474 78.544 447.714 75.4154 444.586C72.2868 441.457 70.5268 437.216 70.5216 432.791V69.4603H423.469V432.791C423.464 437.216 421.704 441.457 418.576 444.586C415.447 447.714 411.205 449.474 406.781 449.479ZM71.7437 70.6823V432.791C71.7484 436.892 73.3794 440.823 76.279 443.722C79.1785 446.622 83.1098 448.253 87.2103 448.257H406.781C410.881 448.253 414.812 446.622 417.712 443.722C420.611 440.823 422.242 436.892 422.247 432.791V70.6823H71.7437Z" fill="#292A2E"/>
<path d="M113.397 20.2711C109.568 20.2754 105.897 21.7983 103.19 24.5057C100.483 27.213 98.9596 30.8837 98.9553 34.7124H100.177C100.177 32.1754 100.906 29.6918 102.279 27.5581C103.651 25.4243 105.609 23.7306 107.917 22.6789C110.226 21.6273 112.789 21.2622 115.299 21.6272C117.81 21.9922 120.163 23.072 122.076 24.7375C123.99 26.4031 125.384 28.5842 126.092 31.0204C126.8 33.4566 126.792 36.0451 126.069 38.4769C125.346 40.9088 123.939 43.0812 122.015 44.7349C120.091 46.3887 117.731 47.4539 115.219 47.8034C115.007 47.3672 114.646 47.021 114.201 46.8277C113.757 46.6344 113.258 46.6066 112.794 46.7493C112.331 46.8921 111.934 47.196 111.675 47.6061C111.416 48.0162 111.313 48.5054 111.383 48.9851C111.454 49.4649 111.694 49.9035 112.059 50.2218C112.425 50.54 112.893 50.7168 113.378 50.7201C113.863 50.7234 114.333 50.5531 114.703 50.2399C115.073 49.9267 115.319 49.4914 115.396 49.0126C119.018 48.507 122.313 46.6462 124.616 43.8057C126.919 40.9653 128.059 37.3569 127.805 33.7089C127.551 30.0609 125.923 26.6451 123.249 24.1509C120.574 21.6568 117.053 20.2702 113.397 20.2711Z" fill="#F4F4F4"/>
<path d="M395.036 34.7124C395.011 30.8985 393.479 27.2493 390.773 24.5612C388.067 21.8731 384.408 20.3644 380.594 20.3644C376.78 20.3644 373.121 21.8731 370.415 24.5612C367.71 27.2493 366.177 30.8985 366.153 34.7124H367.375C367.374 32.1754 368.104 29.6918 369.476 27.5581C370.848 25.4243 372.806 23.7305 375.115 22.6789C377.423 21.6273 379.986 21.2622 382.497 21.6272C385.007 21.9922 387.36 23.072 389.274 24.7375C391.187 26.4031 392.581 28.5842 393.289 31.0204C393.997 33.4566 393.989 36.0451 393.266 38.4769C392.543 40.9088 391.136 43.0812 389.212 44.7349C387.288 46.3887 384.929 47.4539 382.416 47.8034C382.204 47.3672 381.843 47.021 381.399 46.8277C380.954 46.6344 380.455 46.6066 379.991 46.7493C379.528 46.8921 379.131 47.196 378.872 47.6061C378.613 48.0162 378.51 48.5054 378.58 48.9851C378.651 49.4649 378.891 49.9035 379.257 50.2218C379.623 50.54 380.09 50.7168 380.575 50.7201C381.06 50.7234 381.53 50.5531 381.901 50.2399C382.271 49.9267 382.517 49.4914 382.594 49.0126C386.042 48.5264 389.199 46.8123 391.484 44.1853C393.77 41.5582 395.031 38.1946 395.036 34.7124Z" fill="#F4F4F4"/>
<path d="M356.865 34.7124C356.865 30.8823 355.343 27.2091 352.635 24.5008C349.926 21.7926 346.253 20.2711 342.423 20.2711C338.593 20.2711 334.92 21.7926 332.212 24.5008C329.503 27.2091 327.982 30.8823 327.982 34.7124H329.204C329.203 32.1756 329.933 29.6923 331.305 27.5588C332.678 25.4253 334.635 23.7318 336.944 22.6803C339.252 21.6287 341.815 21.2637 344.325 21.6286C346.835 21.9936 349.188 23.0732 351.101 24.7385C353.015 26.4039 354.409 28.5846 355.117 31.0206C355.825 33.4565 355.817 36.0448 355.095 38.4765C354.372 40.9081 352.965 43.0805 351.041 44.7343C349.118 46.3881 346.759 47.4536 344.246 47.8034C344.035 47.3667 343.674 47.0201 343.229 46.8264C342.784 46.6326 342.285 46.6044 341.821 46.747C341.357 46.8896 340.96 47.1935 340.7 47.6038C340.441 48.014 340.337 48.5034 340.408 48.9835C340.478 49.4637 340.718 49.9027 341.084 50.2214C341.45 50.54 341.918 50.717 342.403 50.7206C342.888 50.7241 343.359 50.5538 343.73 50.2405C344.1 49.9273 344.346 49.4917 344.424 49.0126C347.871 48.5261 351.028 46.8119 353.314 44.1849C355.599 41.5579 356.86 38.1945 356.865 34.7124Z" fill="#F4F4F4"/>
<path d="M318.694 34.7124C318.669 30.8985 317.136 27.2493 314.431 24.5612C311.725 21.8731 308.066 20.3644 304.252 20.3644C300.438 20.3644 296.779 21.8731 294.073 24.5612C291.368 27.2493 289.835 30.8985 289.81 34.7124H291.032C291.032 32.1754 291.761 29.6918 293.134 27.5581C294.506 25.4243 296.464 23.7305 298.772 22.6789C301.081 21.6273 303.644 21.2622 306.154 21.6272C308.665 21.9922 311.018 23.072 312.931 24.7375C314.845 26.4031 316.239 28.5842 316.947 31.0204C317.655 33.4566 317.647 36.0451 316.924 38.4769C316.201 40.9088 314.794 43.0812 312.87 44.7349C310.946 46.3887 308.587 47.4539 306.074 47.8034C305.862 47.3672 305.501 47.021 305.057 46.8277C304.612 46.6344 304.113 46.6066 303.649 46.7493C303.186 46.8921 302.789 47.196 302.53 47.6061C302.271 48.0162 302.168 48.5054 302.238 48.9851C302.309 49.4649 302.549 49.9035 302.915 50.2218C303.28 50.54 303.748 50.7168 304.233 50.7201C304.718 50.7234 305.188 50.5531 305.558 50.2399C305.929 49.9267 306.174 49.4914 306.252 49.0126C309.7 48.5264 312.857 46.8123 315.142 44.1853C317.428 41.5582 318.689 38.1946 318.694 34.7124Z" fill="#F4F4F4"/>
<path d="M280.522 34.7124C280.522 32.816 280.149 30.9381 279.423 29.186C278.697 27.4339 277.634 25.8418 276.293 24.5008C274.952 23.1598 273.36 22.0961 271.607 21.3703C269.855 20.6446 267.977 20.2711 266.081 20.2711C264.185 20.2711 262.307 20.6446 260.555 21.3703C258.802 22.0961 257.21 23.1598 255.869 24.5008C254.528 25.8418 253.465 27.4339 252.739 29.186C252.013 30.9381 251.64 32.816 251.64 34.7124H252.862C252.861 32.1756 253.591 29.6922 254.963 27.5587C256.336 25.4251 258.293 23.7315 260.602 22.68C262.91 21.6285 265.473 21.2635 267.983 21.6285C270.494 21.9936 272.846 23.0732 274.76 24.7387C276.673 26.4042 278.067 28.5851 278.775 31.0211C279.483 33.4572 279.475 36.0455 278.752 38.4771C278.029 40.9088 276.622 43.0811 274.698 44.7348C272.775 46.3885 270.416 47.4538 267.903 47.8034C267.691 47.3672 267.331 47.021 266.886 46.8277C266.441 46.6344 265.942 46.6066 265.478 46.7493C265.015 46.8921 264.618 47.196 264.359 47.6061C264.1 48.0162 263.997 48.5054 264.067 48.9851C264.138 49.4649 264.378 49.9035 264.744 50.2218C265.11 50.54 265.577 50.7168 266.062 50.7201C266.547 50.7234 267.017 50.5531 267.388 50.2399C267.758 49.9267 268.004 49.4914 268.081 49.0126C271.529 48.5263 274.686 46.8121 276.971 44.1851C279.257 41.558 280.518 38.1945 280.522 34.7124Z" fill="#F4F4F4"/>
<path d="M242.352 34.7124C242.327 30.8985 240.794 27.2493 238.089 24.5612C235.383 21.8731 231.724 20.3644 227.91 20.3644C224.096 20.3644 220.437 21.8731 217.731 24.5612C215.025 27.2493 213.493 30.8985 213.468 34.7124H214.69C214.69 32.1754 215.419 29.6918 216.792 27.5581C218.164 25.4243 220.121 23.7305 222.43 22.6789C224.739 21.6273 227.302 21.2622 229.812 21.6272C232.323 21.9922 234.675 23.072 236.589 24.7375C238.503 26.4031 239.897 28.5842 240.605 31.0204C241.313 33.4566 241.305 36.0451 240.582 38.4769C239.859 40.9088 238.451 43.0812 236.528 44.7349C234.604 46.3887 232.244 47.4539 229.732 47.8034C229.52 47.3672 229.159 47.021 228.714 46.8277C228.27 46.6344 227.77 46.6066 227.307 46.7493C226.844 46.8921 226.447 47.196 226.188 47.6061C225.929 48.0162 225.826 48.5054 225.896 48.9851C225.967 49.4649 226.207 49.9035 226.572 50.2218C226.938 50.54 227.406 50.7168 227.891 50.7201C228.376 50.7234 228.846 50.5531 229.216 50.2399C229.586 49.9267 229.832 49.4914 229.909 49.0126C233.358 48.5264 236.514 46.8123 238.8 44.1853C241.086 41.5582 242.347 38.1946 242.352 34.7124Z" fill="#F4F4F4"/>
<path d="M204.18 34.7124C204.18 30.8823 202.659 27.2091 199.95 24.5008C197.242 21.7926 193.569 20.2711 189.739 20.2711C185.909 20.2711 182.235 21.7926 179.527 24.5008C176.819 27.2091 175.297 30.8823 175.297 34.7124H176.519C176.519 32.1756 177.249 29.6922 178.621 27.5587C179.993 25.4251 181.951 23.7315 184.259 22.68C186.568 21.6285 189.131 21.2635 191.641 21.6285C194.151 21.9936 196.504 23.0732 198.417 24.7387C200.331 26.4042 201.725 28.5851 202.433 31.0211C203.141 33.4572 203.133 36.0455 202.41 38.4771C201.687 40.9088 200.28 43.0811 198.356 44.7348C196.432 46.3885 194.073 47.4538 191.561 47.8034C191.349 47.3672 190.988 47.021 190.544 46.8277C190.099 46.6344 189.6 46.6066 189.136 46.7493C188.673 46.8921 188.276 47.196 188.017 47.6061C187.758 48.0162 187.655 48.5054 187.725 48.9851C187.796 49.4649 188.036 49.9035 188.402 50.2218C188.768 50.54 189.235 50.7168 189.72 50.7201C190.205 50.7234 190.675 50.5531 191.045 50.2399C191.416 49.9267 191.662 49.4914 191.739 49.0126C195.187 48.5263 198.343 46.8121 200.629 44.1851C202.915 41.558 204.175 38.1945 204.18 34.7124Z" fill="#F4F4F4"/>
<path d="M166.009 34.7124C165.985 30.8985 164.452 27.2493 161.746 24.5612C159.041 21.8731 155.382 20.3644 151.568 20.3644C147.754 20.3644 144.095 21.8731 141.389 24.5612C138.683 27.2493 137.151 30.8985 137.126 34.7124H138.348C138.348 32.1754 139.077 29.6918 140.449 27.5581C141.822 25.4243 143.779 23.7305 146.088 22.6789C148.397 21.6273 150.96 21.2622 153.47 21.6272C155.981 21.9922 158.333 23.072 160.247 24.7375C162.161 26.4031 163.555 28.5842 164.263 31.0204C164.971 33.4566 164.963 36.0451 164.24 38.4769C163.517 40.9088 162.109 43.0812 160.185 44.7349C158.261 46.3887 155.902 47.4539 153.389 47.8034C153.178 47.3672 152.817 47.021 152.372 46.8277C151.928 46.6344 151.428 46.6066 150.965 46.7493C150.501 46.8921 150.104 47.196 149.846 47.6061C149.587 48.0162 149.483 48.5054 149.554 48.9851C149.624 49.4649 149.864 49.9035 150.23 50.2218C150.596 50.54 151.064 50.7168 151.549 50.7201C152.034 50.7234 152.504 50.5531 152.874 50.2399C153.244 49.9267 153.49 49.4914 153.567 49.0126C157.015 48.5264 160.172 46.8123 162.458 44.1853C164.744 41.5582 166.005 38.1946 166.009 34.7124Z" fill="#F4F4F4"/>
<g opacity="0.6">
<path d="M113.397 20.2711C109.568 20.2754 105.897 21.7983 103.19 24.5057C100.483 27.213 98.9596 30.8837 98.9553 34.7124H100.177C100.177 32.1754 100.906 29.6918 102.279 27.5581C103.651 25.4243 105.609 23.7306 107.917 22.6789C110.226 21.6273 112.789 21.2622 115.299 21.6272C117.81 21.9922 120.163 23.072 122.076 24.7375C123.99 26.4031 125.384 28.5842 126.092 31.0204C126.8 33.4566 126.792 36.0451 126.069 38.4769C125.346 40.9088 123.939 43.0812 122.015 44.7349C120.091 46.3887 117.731 47.4539 115.219 47.8034C115.007 47.3672 114.646 47.021 114.201 46.8277C113.757 46.6344 113.258 46.6066 112.794 46.7493C112.331 46.8921 111.934 47.196 111.675 47.6061C111.416 48.0162 111.313 48.5054 111.383 48.9851C111.454 49.4649 111.694 49.9035 112.059 50.2218C112.425 50.54 112.893 50.7168 113.378 50.7201C113.863 50.7234 114.333 50.5531 114.703 50.2399C115.073 49.9267 115.319 49.4914 115.396 49.0126C119.018 48.507 122.313 46.6462 124.616 43.8057C126.919 40.9653 128.059 37.3569 127.805 33.7089C127.551 30.0609 125.923 26.6451 123.249 24.1509C120.574 21.6568 117.053 20.2702 113.397 20.2711Z" fill="#292A2E"/>
<path d="M395.036 34.7124C395.011 30.8985 393.479 27.2493 390.773 24.5612C388.067 21.8731 384.408 20.3644 380.594 20.3644C376.78 20.3644 373.121 21.8731 370.415 24.5612C367.71 27.2493 366.177 30.8985 366.153 34.7124H367.375C367.374 32.1754 368.104 29.6918 369.476 27.5581C370.848 25.4243 372.806 23.7305 375.115 22.6789C377.423 21.6273 379.986 21.2622 382.497 21.6272C385.007 21.9922 387.36 23.072 389.274 24.7375C391.187 26.4031 392.581 28.5842 393.289 31.0204C393.997 33.4566 393.989 36.0451 393.266 38.4769C392.543 40.9088 391.136 43.0812 389.212 44.7349C387.288 46.3887 384.929 47.4539 382.416 47.8034C382.204 47.3672 381.843 47.021 381.399 46.8277C380.954 46.6344 380.455 46.6066 379.991 46.7493C379.528 46.8921 379.131 47.196 378.872 47.6061C378.613 48.0162 378.51 48.5054 378.58 48.9851C378.651 49.4649 378.891 49.9035 379.257 50.2218C379.623 50.54 380.09 50.7168 380.575 50.7201C381.06 50.7234 381.53 50.5531 381.901 50.2399C382.271 49.9267 382.517 49.4914 382.594 49.0126C386.042 48.5264 389.199 46.8123 391.484 44.1853C393.77 41.5582 395.031 38.1946 395.036 34.7124Z" fill="#292A2E"/>
<path d="M356.865 34.7124C356.865 30.8823 355.343 27.2091 352.635 24.5008C349.926 21.7926 346.253 20.2711 342.423 20.2711C338.593 20.2711 334.92 21.7926 332.212 24.5008C329.503 27.2091 327.982 30.8823 327.982 34.7124H329.204C329.203 32.1756 329.933 29.6923 331.305 27.5588C332.678 25.4253 334.635 23.7318 336.944 22.6803C339.252 21.6287 341.815 21.2637 344.325 21.6286C346.835 21.9936 349.188 23.0732 351.101 24.7385C353.015 26.4039 354.409 28.5846 355.117 31.0206C355.825 33.4565 355.817 36.0448 355.095 38.4765C354.372 40.9081 352.965 43.0805 351.041 44.7343C349.118 46.3881 346.759 47.4536 344.246 47.8034C344.035 47.3667 343.674 47.0201 343.229 46.8264C342.784 46.6326 342.285 46.6044 341.821 46.747C341.357 46.8896 340.96 47.1935 340.7 47.6038C340.441 48.014 340.337 48.5034 340.408 48.9835C340.478 49.4637 340.718 49.9027 341.084 50.2214C341.45 50.54 341.918 50.717 342.403 50.7206C342.888 50.7241 343.359 50.5538 343.73 50.2405C344.1 49.9273 344.346 49.4917 344.424 49.0126C347.871 48.5261 351.028 46.8119 353.314 44.1849C355.599 41.5579 356.86 38.1945 356.865 34.7124Z" fill="#292A2E"/>
<path d="M318.694 34.7124C318.669 30.8985 317.136 27.2493 314.431 24.5612C311.725 21.8731 308.066 20.3644 304.252 20.3644C300.438 20.3644 296.779 21.8731 294.073 24.5612C291.368 27.2493 289.835 30.8985 289.81 34.7124H291.032C291.032 32.1754 291.761 29.6918 293.134 27.5581C294.506 25.4243 296.464 23.7305 298.772 22.6789C301.081 21.6273 303.644 21.2622 306.154 21.6272C308.665 21.9922 311.018 23.072 312.931 24.7375C314.845 26.4031 316.239 28.5842 316.947 31.0204C317.655 33.4566 317.647 36.0451 316.924 38.4769C316.201 40.9088 314.794 43.0812 312.87 44.7349C310.946 46.3887 308.587 47.4539 306.074 47.8034C305.862 47.3672 305.501 47.021 305.057 46.8277C304.612 46.6344 304.113 46.6066 303.649 46.7493C303.186 46.8921 302.789 47.196 302.53 47.6061C302.271 48.0162 302.168 48.5054 302.238 48.9851C302.309 49.4649 302.549 49.9035 302.915 50.2218C303.28 50.54 303.748 50.7168 304.233 50.7201C304.718 50.7234 305.188 50.5531 305.558 50.2399C305.929 49.9267 306.174 49.4914 306.252 49.0126C309.7 48.5264 312.857 46.8123 315.142 44.1853C317.428 41.5582 318.689 38.1946 318.694 34.7124Z" fill="#292A2E"/>
<path d="M280.522 34.7124C280.522 32.816 280.149 30.9381 279.423 29.186C278.697 27.4339 277.634 25.8418 276.293 24.5008C274.952 23.1598 273.36 22.0961 271.607 21.3703C269.855 20.6446 267.977 20.2711 266.081 20.2711C264.185 20.2711 262.307 20.6446 260.555 21.3703C258.802 22.0961 257.21 23.1598 255.869 24.5008C254.528 25.8418 253.465 27.4339 252.739 29.186C252.013 30.9381 251.64 32.816 251.64 34.7124H252.862C252.861 32.1756 253.591 29.6922 254.963 27.5587C256.336 25.4251 258.293 23.7315 260.602 22.68C262.91 21.6285 265.473 21.2635 267.983 21.6285C270.494 21.9936 272.846 23.0732 274.76 24.7387C276.673 26.4042 278.067 28.5851 278.775 31.0211C279.483 33.4572 279.475 36.0455 278.752 38.4771C278.029 40.9088 276.622 43.0811 274.698 44.7348C272.775 46.3885 270.416 47.4538 267.903 47.8034C267.691 47.3672 267.331 47.021 266.886 46.8277C266.441 46.6344 265.942 46.6066 265.478 46.7493C265.015 46.8921 264.618 47.196 264.359 47.6061C264.1 48.0162 263.997 48.5054 264.067 48.9851C264.138 49.4649 264.378 49.9035 264.744 50.2218C265.11 50.54 265.577 50.7168 266.062 50.7201C266.547 50.7234 267.017 50.5531 267.388 50.2399C267.758 49.9267 268.004 49.4914 268.081 49.0126C271.529 48.5263 274.686 46.8121 276.971 44.1851C279.257 41.558 280.518 38.1945 280.522 34.7124Z" fill="#292A2E"/>
<path d="M242.352 34.7124C242.327 30.8985 240.794 27.2493 238.089 24.5612C235.383 21.8731 231.724 20.3644 227.91 20.3644C224.096 20.3644 220.437 21.8731 217.731 24.5612C215.025 27.2493 213.493 30.8985 213.468 34.7124H214.69C214.69 32.1754 215.419 29.6918 216.792 27.5581C218.164 25.4243 220.121 23.7305 222.43 22.6789C224.739 21.6273 227.302 21.2622 229.812 21.6272C232.323 21.9922 234.675 23.072 236.589 24.7375C238.503 26.4031 239.897 28.5842 240.605 31.0204C241.313 33.4566 241.305 36.0451 240.582 38.4769C239.859 40.9088 238.451 43.0812 236.528 44.7349C234.604 46.3887 232.244 47.4539 229.732 47.8034C229.52 47.3672 229.159 47.021 228.714 46.8277C228.27 46.6344 227.77 46.6066 227.307 46.7493C226.844 46.8921 226.447 47.196 226.188 47.6061C225.929 48.0162 225.826 48.5054 225.896 48.9851C225.967 49.4649 226.207 49.9035 226.572 50.2218C226.938 50.54 227.406 50.7168 227.891 50.7201C228.376 50.7234 228.846 50.5531 229.216 50.2399C229.586 49.9267 229.832 49.4914 229.909 49.0126C233.358 48.5264 236.514 46.8123 238.8 44.1853C241.086 41.5582 242.347 38.1946 242.352 34.7124Z" fill="#292A2E"/>
<path d="M204.18 34.7124C204.18 30.8823 202.659 27.2091 199.95 24.5008C197.242 21.7926 193.569 20.2711 189.739 20.2711C185.909 20.2711 182.235 21.7926 179.527 24.5008C176.819 27.2091 175.297 30.8823 175.297 34.7124H176.519C176.519 32.1756 177.249 29.6922 178.621 27.5587C179.993 25.4251 181.951 23.7315 184.259 22.68C186.568 21.6285 189.131 21.2635 191.641 21.6285C194.151 21.9936 196.504 23.0732 198.417 24.7387C200.331 26.4042 201.725 28.5851 202.433 31.0211C203.141 33.4572 203.133 36.0455 202.41 38.4771C201.687 40.9088 200.28 43.0811 198.356 44.7348C196.432 46.3885 194.073 47.4538 191.561 47.8034C191.349 47.3672 190.988 47.021 190.544 46.8277C190.099 46.6344 189.6 46.6066 189.136 46.7493C188.673 46.8921 188.276 47.196 188.017 47.6061C187.758 48.0162 187.655 48.5054 187.725 48.9851C187.796 49.4649 188.036 49.9035 188.402 50.2218C188.768 50.54 189.235 50.7168 189.72 50.7201C190.205 50.7234 190.675 50.5531 191.045 50.2399C191.416 49.9267 191.662 49.4914 191.739 49.0126C195.187 48.5263 198.343 46.8121 200.629 44.1851C202.915 41.558 204.175 38.1945 204.18 34.7124Z" fill="#292A2E"/>
<path d="M166.009 34.7124C165.985 30.8985 164.452 27.2493 161.746 24.5612C159.041 21.8731 155.382 20.3644 151.568 20.3644C147.754 20.3644 144.095 21.8731 141.389 24.5612C138.683 27.2493 137.151 30.8985 137.126 34.7124H138.348C138.348 32.1754 139.077 29.6918 140.449 27.5581C141.822 25.4243 143.779 23.7305 146.088 22.6789C148.397 21.6273 150.96 21.2622 153.47 21.6272C155.981 21.9922 158.333 23.072 160.247 24.7375C162.161 26.4031 163.555 28.5842 164.263 31.0204C164.971 33.4566 164.963 36.0451 164.24 38.4769C163.517 40.9088 162.109 43.0812 160.185 44.7349C158.261 46.3887 155.902 47.4539 153.389 47.8034C153.178 47.3672 152.817 47.021 152.372 46.8277C151.928 46.6344 151.428 46.6066 150.965 46.7493C150.501 46.8921 150.104 47.196 149.846 47.6061C149.587 48.0162 149.483 48.5054 149.554 48.9851C149.624 49.4649 149.864 49.9035 150.23 50.2218C150.596 50.54 151.064 50.7168 151.549 50.7201C152.034 50.7234 152.504 50.5531 152.874 50.2399C153.244 49.9267 153.49 49.4914 153.567 49.0126C157.015 48.5264 160.172 46.8123 162.458 44.1853C164.744 41.5582 166.005 38.1946 166.009 34.7124Z" fill="#292A2E"/>
</g>
<g opacity="0.72">
<path d="M389.471 109.665H102.86C102.698 109.665 102.542 109.601 102.428 109.486C102.313 109.372 102.249 109.216 102.249 109.054C102.249 108.892 102.313 108.737 102.428 108.622C102.542 108.507 102.698 108.443 102.86 108.443H389.471C389.633 108.443 389.789 108.507 389.903 108.622C390.018 108.737 390.082 108.892 390.082 109.054C390.082 109.216 390.018 109.372 389.903 109.486C389.789 109.601 389.633 109.665 389.471 109.665Z" fill="#292A2E"/>
</g>
<g opacity="0.72">
<path d="M389.471 144.307H102.86C102.698 144.307 102.542 144.242 102.428 144.128C102.313 144.013 102.249 143.858 102.249 143.696C102.249 143.534 102.313 143.378 102.428 143.264C102.542 143.149 102.698 143.085 102.86 143.085H389.471C389.633 143.085 389.789 143.149 389.903 143.264C390.018 143.378 390.082 143.534 390.082 143.696C390.082 143.858 390.018 144.013 389.903 144.128C389.789 144.242 389.633 144.307 389.471 144.307Z" fill="#292A2E"/>
</g>
<g opacity="0.72">
<path d="M227.753 178.949H102.861C102.699 178.949 102.543 178.884 102.429 178.77C102.314 178.655 102.25 178.5 102.25 178.338C102.25 178.176 102.314 178.02 102.429 177.906C102.543 177.791 102.699 177.727 102.861 177.727H227.753C227.915 177.727 228.07 177.791 228.185 177.906C228.299 178.02 228.364 178.176 228.364 178.338C228.364 178.5 228.299 178.655 228.185 178.77C228.07 178.884 227.915 178.949 227.753 178.949Z" fill="#292A2E"/>
</g>
<path d="M525.994 290.247C528.696 290.247 531.359 289.594 533.754 288.343C536.15 287.092 538.208 285.282 539.753 283.064C541.298 280.847 542.285 278.29 542.629 275.61C542.974 272.929 542.665 270.205 541.73 267.67C540.781 265.095 518.528 206.167 514.292 195.249L482.923 207.958C485.306 214.098 493.935 237.368 500.868 256.113L489.35 254.861L485.724 288.216L524.178 290.151C524.781 290.216 525.387 290.248 525.994 290.247Z" fill="#5271FF"/>
<path d="M250.135 207.441L261.73 165.99L534.917 238.966L523.322 280.416L250.135 207.441Z" fill="#5271FF"/>
<path opacity="0.5" d="M250.135 207.441L261.73 165.99L534.917 238.966L523.322 280.416L250.135 207.441Z" fill="white"/>
<path d="M553.31 288.806L564.904 247.355L534.92 238.968L523.326 280.419L553.31 288.806Z" fill="#262626"/>
<path d="M250.135 207.44C250.135 207.44 242.268 198.623 235.241 190.698C229.67 184.413 224.63 178.689 224.476 178.375C224.321 178.062 231.89 175.499 240.251 172.794C250.41 169.506 261.732 165.992 261.732 165.992L250.135 207.44Z" fill="#5271FF"/>
<path opacity="0.9" d="M250.135 207.44C250.135 207.44 242.268 198.623 235.241 190.698C229.67 184.413 224.63 178.689 224.476 178.375C224.321 178.062 231.89 175.499 240.251 172.794C250.41 169.506 261.732 165.992 261.732 165.992L250.135 207.44Z" fill="white"/>
<path d="M235.241 190.698C229.67 184.413 224.63 178.689 224.476 178.375C224.321 178.062 231.89 175.498 240.251 172.794L235.241 190.698Z" fill="#262626"/>
<path d="M253.825 194.556L527.084 266.759L526.562 268.652L253.302 196.45L253.825 194.556Z" fill="white"/>
<path d="M258.354 178.338L531.614 250.54L531.091 252.433L257.832 180.231L258.354 178.338Z" fill="white"/>
<path d="M490.385 548.815C490.385 548.815 487.626 563.112 474.237 563.912C460.848 564.712 463.751 575.375 463.751 575.375H514.917V549.814L490.385 548.815Z" fill="#5271FF"/>
<path d="M506.166 287.955C506.166 287.955 506.005 283.656 506.039 293.408C506.166 329.781 506.797 371.328 508.339 395.64C510.818 434.723 517.174 557.943 517.174 557.943L483.553 557.661L450.966 286.477L506.166 287.955Z" fill="#262626"/>
<path d="M468.198 330.847C468.198 330.847 466.805 357.243 466.549 363.44C465.951 377.772 465.743 392.61 465.743 409.433L460.444 365.33C460.444 365.33 464.32 351.508 468.198 330.847Z" fill="#0A0A0A"/>
<path d="M430.529 548.815C430.529 548.815 427.77 563.112 414.381 563.912C400.992 564.712 403.895 575.375 403.895 575.375H455.062V549.814L430.529 548.815Z" fill="#5271FF"/>
<path d="M414.249 290.783C414.249 290.783 411.272 415.097 411.708 421.173L424.211 557.002L457.278 557.613L454.055 416.259C454.055 416.259 456.328 377.266 465.749 341.059C470.57 322.476 473.47 303.448 474.406 284.273L414.249 290.783Z" fill="#262626"/>
<path d="M506.532 287.952L506.642 287.958C506.642 287.958 506.563 285.838 506.532 287.952Z" fill="#333333"/>
<path d="M409.516 221.777C410.21 229.923 413.583 280.746 414.249 290.779H506.13C506.648 281.73 506.736 242.52 508.704 224.823C510.583 207.935 516.513 199.119 513.811 194.127C509.395 185.967 497.33 181.252 489.104 180.138C484.08 179.458 476.525 178.97 476.525 178.97C476.525 178.97 475.885 191.912 460.63 192.633C439.864 193.61 441.251 178.97 441.148 178.97C437.787 178.97 419.18 180.875 415.087 184.498C404.082 194.238 408.045 204.514 409.516 221.777Z" fill="#5271FF"/>
<path d="M430.202 177.855C430.305 177.841 433.123 188.447 455.118 186.797C470.345 185.656 474.059 175.291 474.406 175.291C472.765 174.942 470.099 174.58 469.37 174.192C466.972 172.903 465.225 171.335 464.346 167.97C463.658 165.337 463.308 155.205 463.308 150.121L439.877 155.386C440.203 161.121 442.489 174.415 434.478 176.768C433.146 177.157 431.71 177.515 430.202 177.855Z" fill="#F4B3B3"/>
<path d="M440.689 166.66C449.925 167.389 461.791 163.489 464.045 151.165L466.079 140.045C468.332 127.721 463.687 116.547 452.086 114.425C440.483 112.303 429.983 120.707 427.729 133.03L426.829 137.953C425.961 142.683 424.208 165.36 440.689 166.66Z" fill="#F4B3B3"/>
<path d="M432.124 155.345C433.782 147.015 434.542 141.456 434.454 135.592C432.118 131.499 432.732 126.794 433.263 124.763C431.655 125.785 429.764 126.27 427.863 126.148C427.863 126.148 431.725 110.648 444.849 106.477C447.263 105.537 453.426 104.351 461.61 105.473C468.57 106.427 485.727 111.632 488.179 130.948V130.959C488.259 131.599 489.907 149.396 493.189 157.935C497.604 169.415 503.803 172.981 503.646 186.225C503.444 203.261 472.125 205.529 453.237 204.255C434.349 202.981 423.801 196.769 423.664 184.491C423.516 170.736 428.806 172.013 432.124 155.345Z" fill="#0A0A0A"/>
<path d="M508.093 224.803L505.835 290.772L506.446 290.793L508.704 224.824L508.093 224.803Z" fill="#0C0C0C"/>
<path d="M323.309 226.106L314.23 213.117C314.031 212.832 313.774 212.591 313.476 212.41C313.179 212.229 312.847 212.113 312.501 212.067C312.156 212.022 311.805 212.049 311.471 212.147C311.137 212.244 310.826 212.411 310.56 212.635C310.081 213.064 309.778 213.656 309.71 214.295C309.643 214.935 309.815 215.577 310.193 216.097L312.14 218.882L301.997 212.933C300.881 212.252 299.076 212.13 298.392 213.433C298.097 213.917 297.975 214.486 298.045 215.049C298.115 215.611 298.375 216.133 298.78 216.529C298.771 216.538 298.763 216.548 298.756 216.559C298.752 216.568 298.748 216.577 298.746 216.586L297.025 215.536C296.706 215.342 296.347 215.221 295.976 215.183C295.605 215.144 295.229 215.189 294.877 215.314C294.526 215.439 294.206 215.641 293.942 215.906C293.678 216.17 293.477 216.49 293.352 216.842C293.166 217.4 293.179 218.005 293.386 218.556C293.594 219.106 293.984 219.569 294.492 219.866L295.225 220.312C295.222 220.339 295.224 220.367 295.23 220.394C294.665 220.206 294.052 220.226 293.5 220.45C292.948 220.674 292.494 221.087 292.22 221.616C291.936 222.201 291.883 222.872 292.072 223.495C292.261 224.118 292.678 224.647 293.239 224.976L295.058 226.086C295.029 226.087 295 226.094 294.973 226.107C294.947 226.119 294.923 226.137 294.903 226.159C294.884 226.181 294.869 226.206 294.859 226.234C294.85 226.262 294.846 226.292 294.849 226.321C294.3 226.295 293.758 226.449 293.305 226.761C292.852 227.073 292.515 227.524 292.344 228.046C292.175 228.599 292.198 229.193 292.409 229.731C292.619 230.269 293.005 230.72 293.505 231.012L308.854 240.377C311.001 241.687 313.491 242.326 316.004 242.212C318.517 242.098 320.939 241.237 322.959 239.738C324.7 238.445 325.869 236.524 326.217 234.383C326.565 232.242 326.065 230.05 324.822 228.272L323.309 226.106Z" fill="#F4B3B3"/>
<g opacity="0.2">
<path d="M308.793 222.471C308.762 222.522 308.711 222.559 308.652 222.574C308.593 222.588 308.531 222.579 308.479 222.548L298.841 216.878C298.791 216.846 298.754 216.795 298.74 216.737C298.726 216.679 298.735 216.617 298.766 216.566C298.796 216.514 298.846 216.476 298.903 216.46C298.961 216.444 299.023 216.451 299.076 216.479L308.715 222.15C308.741 222.165 308.764 222.185 308.782 222.21C308.8 222.234 308.814 222.261 308.821 222.291C308.829 222.32 308.831 222.351 308.826 222.381C308.822 222.411 308.812 222.44 308.796 222.466L308.793 222.471Z" fill="#0C0C0C"/>
</g>
<g opacity="0.2">
<path d="M306.41 226.788C306.379 226.839 306.328 226.876 306.269 226.89C306.21 226.905 306.148 226.896 306.096 226.865L295.342 220.538C295.316 220.522 295.293 220.502 295.275 220.478C295.257 220.453 295.243 220.426 295.236 220.396C295.228 220.367 295.227 220.336 295.231 220.306C295.235 220.276 295.245 220.247 295.261 220.221C295.293 220.169 295.344 220.132 295.403 220.117C295.461 220.102 295.524 220.11 295.577 220.139L306.331 226.466C306.384 226.497 306.422 226.548 306.437 226.607C306.453 226.667 306.444 226.73 306.413 226.783L306.41 226.788Z" fill="#0C0C0C"/>
</g>
<g opacity="0.2">
<path d="M303.858 231.481C303.826 231.532 303.776 231.569 303.717 231.584C303.659 231.598 303.597 231.589 303.545 231.559L294.964 226.512C294.914 226.479 294.877 226.429 294.863 226.37C294.849 226.312 294.859 226.251 294.889 226.199C294.919 226.147 294.969 226.109 295.027 226.093C295.084 226.077 295.146 226.084 295.199 226.113L303.779 231.16C303.806 231.175 303.829 231.195 303.847 231.22C303.865 231.244 303.878 231.272 303.886 231.301C303.894 231.331 303.895 231.361 303.891 231.391C303.887 231.422 303.877 231.451 303.861 231.477L303.858 231.481Z" fill="#0C0C0C"/>
</g>
<path d="M411.67 188.42L373.575 245.517L325.475 217.628L308.104 246.08L369.718 285.65C373.67 288.182 378.457 289.063 383.052 288.103C387.646 287.144 391.681 284.42 394.289 280.517L394.517 280.175L442.165 208.766L411.67 188.42Z" fill="#5271FF"/>
<path d="M411.786 255.006C411.731 255.006 411.677 254.991 411.629 254.963C411.582 254.934 411.543 254.893 411.517 254.845C411.491 254.796 411.479 254.741 411.482 254.686C411.484 254.63 411.502 254.577 411.533 254.531L421.579 239.575C421.625 239.51 421.695 239.466 421.773 239.451C421.851 239.437 421.932 239.454 421.998 239.498C422.064 239.543 422.11 239.611 422.126 239.689C422.143 239.766 422.129 239.848 422.086 239.915L412.04 254.871C412.012 254.913 411.974 254.947 411.93 254.97C411.886 254.994 411.836 255.006 411.786 255.006Z" fill="#0C0C0C"/>
<path d="M581.382 575.85H6.12605C6.00078 575.85 5.88065 575.8 5.79207 575.711C5.70349 575.623 5.65373 575.503 5.65373 575.377C5.65373 575.252 5.70349 575.132 5.79207 575.043C5.88065 574.955 6.00078 574.905 6.12605 574.905H581.382C581.507 574.905 581.627 574.955 581.716 575.043C581.804 575.132 581.854 575.252 581.854 575.377C581.854 575.503 581.804 575.623 581.716 575.711C581.627 575.8 581.507 575.85 581.382 575.85Z" fill="#3F3F3F"/>
</g>
<defs>
<clipPath id="clip0_563_4585">
<rect width="600" height="575.85" fill="white"/>
</clipPath>
</defs>
</svg>
