<svg width="896" height="617" viewBox="0 0 896 617" fill="none" xmlns="http://www.w3.org/2000/svg">
<g clip-path="url(#clip0_2235_3451)">
<path d="M895.6 616.29H0C9.813 591.264 27.936 570.034 53.483 563.736C90.855 554.536 130.404 579.836 167.692 570.322C188.877 564.922 205.555 549.19 223.08 536.122C289.2 486.831 379.8 472.261 458.038 498.353C498.932 511.984 536.196 535.823 578.088 545.953C632.26 559.063 688.91 548.191 744.618 546.399C798.873 544.661 876.61 566.768 895.6 616.29Z" fill="#F3F5FD"/>
<path d="M749.93 429.6C743.53 448.99 721.44 466.22 728.04 480.48C730.55 485.9 733.07 491.57 734.23 497.36C734.983 500.813 735.108 504.373 734.6 507.87C732.22 522.97 718.09 533 704.95 540.81C704.14 541.29 703.32 541.78 702.5 542.27C690.05 549.73 677.01 558.32 673.01 572.09C670.79 579.74 671.77 587.92 670.85 595.83C669.978 603.1 667.509 610.087 663.62 616.29H579.71C572.26 608.08 572.88 594.28 578.55 584.6C584.62 574.24 594.87 567.2 604.12 559.54C612.11 552.92 619.9 544.95 622.95 535.23C623.435 533.692 623.793 532.117 624.02 530.52C624.76 525.26 624.36 498.39 633.48 481.85C647.58 456.31 670.45 462.6 677.44 448.19C680.12 442.67 682.43 374.84 726.98 387.37C731.324 388.532 735.386 390.566 738.918 393.349C742.451 396.131 745.38 399.604 747.527 403.555C749.674 407.506 750.995 411.852 751.408 416.33C751.821 420.808 751.318 425.323 749.93 429.6Z" fill="#C1D8ED"/>
<path d="M831.42 535.659C830.141 536.539 828.765 537.271 827.32 537.839C815.3 542.349 781.87 541.849 776.98 553.719C774.68 559.299 774.13 565.459 772.16 571.169C767.69 584.119 755.89 593.829 742.69 597.479C737.94 598.789 733.02 599.399 728.32 600.859C719.24 603.689 711.72 609.379 705.11 616.289H596.74C596.692 609.102 598.46 602.02 601.879 595.699C605.298 589.377 610.259 584.022 616.3 580.129C628.35 572.529 643.57 571.109 655.4 563.169C663.2 557.929 668.81 550.359 673.26 541.989C676.091 536.513 678.592 530.873 680.75 525.099C684.06 516.509 687.52 507.289 695.04 501.969C698.728 499.573 702.816 497.859 707.11 496.909C717.97 494.069 726.32 495.739 734.23 497.359C743.83 499.319 752.79 501.189 764.82 494.799C786.16 483.459 817.36 426.909 848.54 480.639C861.04 502.189 843.79 527.379 831.42 535.659Z" fill="#495ECA"/>
<path d="M151.794 429.6C158.194 448.99 180.284 466.22 173.684 480.48C171.174 485.9 168.654 491.57 167.494 497.36C166.741 500.813 166.616 504.373 167.124 507.87C169.504 522.97 183.634 533 196.774 540.81C197.584 541.29 198.404 541.78 199.224 542.27C211.674 549.73 224.714 558.32 228.714 572.09C230.934 579.74 229.954 587.92 230.874 595.83C231.746 603.1 234.215 610.087 238.104 616.29H322.014C329.464 608.08 328.844 594.28 323.174 584.6C317.104 574.24 306.854 567.2 297.604 559.54C289.614 552.92 281.824 544.95 278.774 535.23C278.289 533.692 277.932 532.117 277.704 530.52C276.964 525.26 277.364 498.39 268.244 481.85C254.144 456.31 231.274 462.6 224.284 448.19C221.604 442.67 219.294 374.84 174.744 387.37C170.4 388.532 166.338 390.566 162.806 393.349C159.273 396.131 156.344 399.604 154.197 403.555C152.05 407.506 150.729 411.852 150.316 416.33C149.903 420.808 150.406 425.323 151.794 429.6Z" fill="#C1D8ED"/>
<path d="M70.3001 535.659C71.5793 536.539 72.9548 537.271 74.4001 537.839C86.4201 542.349 119.85 541.849 124.74 553.719C127.04 559.299 127.59 565.459 129.56 571.169C134.03 584.119 145.83 593.829 159.03 597.479C163.78 598.789 168.7 599.399 173.4 600.859C182.48 603.689 190 609.379 196.61 616.289H304.98C305.028 609.102 303.26 602.02 299.841 595.699C296.422 589.377 291.461 584.022 285.42 580.129C273.37 572.529 258.15 571.109 246.32 563.169C238.52 557.929 232.91 550.359 228.46 541.989C225.629 536.513 223.128 530.873 220.97 525.099C217.66 516.509 214.2 507.289 206.68 501.969C202.992 499.573 198.904 497.859 194.61 496.909C183.75 494.069 175.4 495.739 167.49 497.359C157.89 499.319 148.93 501.189 136.9 494.799C115.56 483.459 84.3601 426.909 53.1801 480.639C40.6841 502.189 57.9341 527.379 70.3001 535.659Z" fill="#2F68D7"/>
<path d="M576.604 8.823H331.205C312.413 8.823 297.179 24.057 297.179 42.849V573.569C297.179 592.361 312.413 607.595 331.205 607.595H576.604C595.396 607.595 610.63 592.361 610.63 573.569V42.849C610.63 24.057 595.396 8.823 576.604 8.823Z" fill="white"/>
<path d="M576.605 616.419H331.205C319.845 616.405 308.954 611.886 300.921 603.853C292.889 595.82 288.37 584.929 288.357 573.569V42.85C288.37 31.4899 292.889 20.5988 300.921 12.5658C308.954 4.53279 319.845 0.0137621 331.205 0L576.605 0C587.965 0.0137621 598.856 4.53279 606.889 12.5658C614.921 20.5988 619.44 31.4899 619.453 42.85V573.569C619.44 584.929 614.921 595.82 606.889 603.853C598.856 611.886 587.965 616.405 576.605 616.419ZM331.205 17.647C324.523 17.6539 318.116 20.3113 313.391 25.0363C308.665 29.7612 306.007 36.1677 306 42.85V573.569C306.008 580.25 308.666 586.655 313.39 591.379C318.114 596.103 324.519 598.761 331.2 598.769H576.6C583.281 598.761 589.686 596.103 594.41 591.379C599.134 586.655 601.792 580.25 601.8 573.569V42.85C601.792 36.1691 599.134 29.7641 594.41 25.04C589.686 20.3158 583.281 17.6582 576.6 17.65L331.205 17.647Z" fill="#DEE8F5"/>
<path d="M400.173 8.823H507.636V29.674C507.636 31.7235 507.232 33.7529 506.448 35.6464C505.664 37.5399 504.514 39.2603 503.065 40.7095C501.615 42.1586 499.895 43.3081 498.001 44.0923C496.108 44.8766 494.078 45.2801 492.029 45.28H415.779C411.64 45.28 407.67 43.6357 404.743 40.7088C401.816 37.7819 400.172 33.8122 400.172 29.673V8.823H400.173Z" fill="#DEE8F5"/>
<path d="M505.37 137.719C505.369 147.898 502.35 157.848 496.694 166.311C491.038 174.773 483 181.369 473.595 185.263C464.191 189.158 453.843 190.176 443.86 188.189C433.877 186.202 424.707 181.3 417.51 174.102C410.313 166.903 405.413 157.733 403.428 147.749C401.443 137.766 402.463 127.418 406.359 118.015C410.256 108.611 416.853 100.574 425.317 94.9196C433.781 89.2654 443.731 86.248 453.91 86.249C460.676 86.2233 467.38 87.5372 473.635 90.1149C479.891 92.6925 485.575 96.4829 490.358 101.268C495.142 106.052 498.931 111.737 501.508 117.993C504.084 124.249 505.397 130.953 505.37 137.719Z" fill="#C1D8ED"/>
<path d="M453.905 143.022C465.159 143.022 474.282 133.899 474.282 122.645C474.282 111.391 465.159 102.268 453.905 102.268C442.651 102.268 433.528 111.391 433.528 122.645C433.528 133.899 442.651 143.022 453.905 143.022Z" fill="white"/>
<path d="M490.99 173.4C486.19 178.392 480.431 182.364 474.059 185.077C467.687 187.79 460.833 189.189 453.907 189.19C446.982 189.191 440.127 187.794 433.754 185.082C427.382 182.371 421.622 178.401 416.82 173.41C423.76 157.9 437.77 147.3 453.91 147.3C470.05 147.3 484.05 157.889 490.99 173.4Z" fill="white"/>
<path d="M562.333 226.29H345.476V273.598H562.333V226.29Z" fill="#2F68D7"/>
<path d="M562.333 308.054H345.476V355.362H562.333V308.054Z" fill="#C1D8ED"/>
<path d="M715.458 201.452C715.458 201.452 707.417 197.998 707.417 176.871L691.252 175.224C691.252 175.224 694.583 193.893 687.018 200.524L715.458 201.452Z" fill="#E98862"/>
<path d="M715.786 167.992C715.206 174.45 712.225 180.764 706.778 183.281C700.856 186.213 694.306 187.651 687.7 187.47C670.151 187.47 670.349 147.552 677.994 139.17C685.639 130.788 710.326 133.677 714.336 146.311C716.407 152.851 716.336 161.846 715.786 167.992Z" fill="#E98862"/>
<path d="M690.328 165.137C691.128 165.137 691.777 164.488 691.777 163.688C691.777 162.888 691.128 162.239 690.328 162.239C689.528 162.239 688.879 162.888 688.879 163.688C688.879 164.488 689.528 165.137 690.328 165.137Z" fill="#367CFF"/>
<path d="M693.176 160.818C693.141 160.818 693.105 160.815 693.07 160.81L689.224 160.21C689.133 160.199 689.046 160.17 688.966 160.125C688.887 160.079 688.818 160.018 688.762 159.945C688.707 159.872 688.667 159.789 688.644 159.701C688.622 159.612 688.618 159.52 688.632 159.429C688.646 159.339 688.678 159.252 688.726 159.175C688.774 159.097 688.838 159.03 688.913 158.977C688.987 158.924 689.072 158.887 689.162 158.868C689.251 158.849 689.343 158.848 689.433 158.865L693.279 159.465C693.448 159.491 693.602 159.58 693.708 159.714C693.815 159.848 693.867 160.017 693.854 160.188C693.842 160.359 693.765 160.519 693.64 160.636C693.515 160.753 693.35 160.818 693.179 160.819L693.176 160.818Z" fill="#367CFF"/>
<path d="M678.966 169.838C678.966 171.467 679.613 173.03 680.765 174.182C681.917 175.334 683.48 175.981 685.109 175.981C686.738 175.981 688.301 175.334 689.453 174.182C690.605 173.03 691.252 171.467 691.252 169.838C691.279 168.236 690.669 166.689 689.556 165.537C688.442 164.385 686.917 163.722 685.315 163.695C685.246 163.695 685.178 163.695 685.109 163.695C680.734 163.91 678.966 166.445 678.966 169.838Z" fill="#E98862"/>
<path d="M678.915 155.389C675.509 155.362 672.11 155.076 668.748 154.532C668.748 154.532 669.777 128.609 697.307 130.087C700.882 129.924 704.464 130.135 707.994 130.718C716.269 131.986 728 140.446 729.894 161.618C730.762 171.331 734.11 180.487 736.665 186.284C736.967 186.965 737.094 187.71 737.035 188.452C736.976 189.194 736.732 189.91 736.327 190.534C735.921 191.158 735.366 191.671 734.712 192.027C734.058 192.382 733.326 192.569 732.581 192.57L673.6 192.1C672.903 192.1 672.215 191.937 671.592 191.624C670.969 191.311 670.428 190.857 670.012 190.297C669.596 189.738 669.316 189.089 669.196 188.402C669.076 187.715 669.118 187.01 669.319 186.342C672.527 175.717 678.4 169.205 678.915 155.389Z" fill="#0F1011"/>
<path d="M575.332 264.8C575.332 264.8 561.132 260.863 559.092 258.149C557.052 255.435 562.011 246.3 562.011 246.3C562.011 246.3 547.811 240.487 549.176 238.192C550.791 235.483 568.522 245.179 568.522 245.179C568.522 245.179 564.665 240.62 566.552 239.415C567.328 238.915 568.337 239.46 571.219 242.62C574.503 246.22 580.18 251.329 580.18 251.329L575.332 264.8Z" fill="#E98862"/>
<path d="M645.983 605.474C643.77 586.856 643.77 584.941 643.77 584.312H664.77C664.77 584.248 664.77 584.166 664.77 584.066C664.844 585.621 665.904 595.102 666.842 602.995L645.983 605.474Z" fill="#E98862"/>
<path d="M729.656 607.984C729.656 607.984 729.586 586.237 729.586 584.312H750.586C750.586 586.231 750.656 607.912 750.656 607.912L729.656 607.984Z" fill="#E98862"/>
<path d="M760.073 342.894C760.073 345.874 758.5 355.836 761.031 356.548C762.548 356.975 764.34 349.548 764.34 349.548" fill="#E98862"/>
<path d="M772.021 341.329C772.021 341.329 780.285 361.443 770.859 372.998C770.619 373.292 770.295 373.507 769.931 373.615C769.566 373.723 769.178 373.718 768.817 373.601C768.455 373.484 768.137 373.261 767.904 372.96C767.672 372.66 767.535 372.296 767.513 371.917C767.055 364.126 765.484 348.123 760.347 349.992V337.429" fill="#E98862"/>
<path d="M747.611 471.468C745.583 440.088 742.079 387.449 740.359 356.563H740.643L737.683 306.863L661.606 311.558L660.825 316.888L660.558 316.809C651.641 364.072 647.838 416.34 640.61 463.943C640.102 508.053 639.962 554.213 638.236 598.215L675.236 598.845C675.121 555.861 676.182 510.923 677.451 467.868C683.251 434.119 691.397 396.668 697.936 363.288C703.85 428.319 712.668 534.858 719.208 600.768L756.077 597.653L747.611 471.468Z" fill="#262626"/>
<path d="M704.131 616.105C703.592 616.103 703.058 615.994 702.561 615.785C702.063 615.576 701.612 615.272 701.232 614.888C700.852 614.505 700.552 614.051 700.348 613.551C700.144 613.052 700.04 612.517 700.043 611.978C700.043 611.878 700.047 611.778 700.055 611.678C700.116 610.898 700.398 610.151 700.869 609.526C701.34 608.901 701.98 608.423 702.713 608.149L727.156 599.962C727.629 599.805 728.131 599.753 728.627 599.808C729.122 599.863 729.6 600.024 730.028 600.281C733.388 602.613 737.408 603.805 741.496 603.681C744.68 603.455 747.736 602.339 750.316 600.459C750.543 600.273 750.818 600.155 751.109 600.12C751.4 600.084 751.695 600.132 751.96 600.258C752.225 600.383 752.449 600.582 752.606 600.83C752.762 601.078 752.845 601.366 752.844 601.659V613.611C752.844 614.321 752.562 615.002 752.06 615.505C751.557 616.007 750.876 616.289 750.166 616.289H750.155L704.131 616.105Z" fill="#C1D8ED"/>
<path d="M620.4 616.105C619.861 616.103 619.327 615.994 618.83 615.785C618.332 615.576 617.881 615.272 617.501 614.888C617.122 614.505 616.821 614.051 616.617 613.551C616.413 613.052 616.309 612.517 616.312 611.978C616.312 611.878 616.316 611.778 616.324 611.678C616.385 610.898 616.667 610.151 617.139 609.525C617.61 608.9 618.25 608.423 618.983 608.149L643.425 599.962C643.899 599.805 644.401 599.753 644.896 599.808C645.392 599.863 645.87 600.024 646.298 600.281C649.658 602.613 653.677 603.805 657.765 603.681C660.949 603.455 664.006 602.339 666.586 600.459C666.813 600.273 667.088 600.155 667.379 600.119C667.67 600.084 667.965 600.132 668.23 600.257C668.495 600.383 668.719 600.582 668.875 600.83C669.032 601.078 669.114 601.366 669.113 601.659V613.611C669.113 614.321 668.831 615.002 668.329 615.505C667.826 616.007 667.145 616.289 666.435 616.289H666.424L620.4 616.105Z" fill="#C1D8ED"/>
<path d="M767.421 279.454C767.311 278.716 767.126 277.992 766.869 277.292L743.916 214.878L743.778 214.929C742.78 211.856 741.058 209.067 738.757 206.799C734.188 202.231 726.277 199.274 716.641 199.274C702.297 199.274 682.706 199.305 678.691 199.474C666.425 200 660.691 205.498 658.347 213.618L629.664 265.111L579.921 246.605L572.6 266.287L630.787 287.939C633.138 288.816 635.726 288.82 638.081 287.952C640.435 287.084 642.401 285.401 643.621 283.208L659.628 254.471C660.052 258.556 660.369 262.571 660.413 266.398C660.797 298.865 652.031 304.981 656.351 314.907C660.545 324.532 742.873 328.536 743.974 311.591C744.674 300.813 735.174 291.4 735.174 270.391C735.253 266.399 735.781 262.428 736.747 258.553L746.017 283.76L755.117 345.066L776.686 341.866L767.421 279.454Z" fill="#367CFF"/>
<path d="M453.905 549.93C491.929 549.93 522.753 519.106 522.753 481.082C522.753 443.058 491.929 412.234 453.905 412.234C415.881 412.234 385.057 443.058 385.057 481.082C385.057 519.106 415.881 549.93 453.905 549.93Z" fill="#C1D8ED"/>
<path d="M411.088 450.413C403.192 512.848 455 529.866 455 529.866C455 529.866 502.567 511.766 497.1 450.566C497.1 450.566 469.341 456.412 455 435.484C455 435.484 444.457 455.771 411.088 450.413Z" fill="white"/>
<path d="M468.512 474.974H466.432V470.326C466.403 467.023 465.07 463.866 462.724 461.54C460.378 459.215 457.209 457.911 453.906 457.911C450.603 457.911 447.433 459.215 445.087 461.54C442.741 463.866 441.409 467.023 441.379 470.326V474.974H439.3C438.349 474.974 437.437 475.352 436.765 476.024C436.093 476.696 435.715 477.608 435.715 478.559V501.93C435.715 502.881 436.093 503.793 436.765 504.465C437.437 505.137 438.349 505.515 439.3 505.515H468.514C469.465 505.515 470.377 505.137 471.049 504.465C471.721 503.793 472.099 502.881 472.099 501.93V478.559C472.099 478.088 472.006 477.622 471.826 477.187C471.646 476.752 471.381 476.356 471.048 476.023C470.715 475.69 470.32 475.426 469.885 475.246C469.449 475.066 468.983 474.974 468.512 474.974ZM445.451 470.326C445.475 468.1 446.377 465.973 447.96 464.407C449.542 462.841 451.679 461.963 453.906 461.963C456.132 461.963 458.269 462.841 459.852 464.407C461.434 465.973 462.336 468.1 462.36 470.326V474.974H445.451V470.326Z" fill="#367CFF"/>
<path d="M366.925 257.574C371.139 257.574 374.555 254.158 374.555 249.944C374.555 245.73 371.139 242.314 366.925 242.314C362.711 242.314 359.295 245.73 359.295 249.944C359.295 254.158 362.711 257.574 366.925 257.574Z" fill="white"/>
<path d="M389.833 257.574C394.047 257.574 397.463 254.158 397.463 249.944C397.463 245.73 394.047 242.314 389.833 242.314C385.619 242.314 382.203 245.73 382.203 249.944C382.203 254.158 385.619 257.574 389.833 257.574Z" fill="white"/>
<path d="M412.742 257.574C416.956 257.574 420.372 254.158 420.372 249.944C420.372 245.73 416.956 242.314 412.742 242.314C408.528 242.314 405.112 245.73 405.112 249.944C405.112 254.158 408.528 257.574 412.742 257.574Z" fill="white"/>
<path d="M435.651 257.574C439.865 257.574 443.281 254.158 443.281 249.944C443.281 245.73 439.865 242.314 435.651 242.314C431.437 242.314 428.021 245.73 428.021 249.944C428.021 254.158 431.437 257.574 435.651 257.574Z" fill="white"/>
<path d="M458.559 257.574C462.773 257.574 466.189 254.158 466.189 249.944C466.189 245.73 462.773 242.314 458.559 242.314C454.345 242.314 450.929 245.73 450.929 249.944C450.929 254.158 454.345 257.574 458.559 257.574Z" fill="white"/>
<path d="M481.468 257.574C485.682 257.574 489.098 254.158 489.098 249.944C489.098 245.73 485.682 242.314 481.468 242.314C477.254 242.314 473.838 245.73 473.838 249.944C473.838 254.158 477.254 257.574 481.468 257.574Z" fill="white"/>
<path d="M503.559 257.574C507.773 257.574 511.189 254.158 511.189 249.944C511.189 245.73 507.773 242.314 503.559 242.314C499.345 242.314 495.929 245.73 495.929 249.944C495.929 254.158 499.345 257.574 503.559 257.574Z" fill="white"/>
<path d="M366.925 339.338C371.139 339.338 374.555 335.922 374.555 331.708C374.555 327.494 371.139 324.078 366.925 324.078C362.711 324.078 359.295 327.494 359.295 331.708C359.295 335.922 362.711 339.338 366.925 339.338Z" fill="white"/>
<path d="M389.833 339.338C394.047 339.338 397.463 335.922 397.463 331.708C397.463 327.494 394.047 324.078 389.833 324.078C385.619 324.078 382.203 327.494 382.203 331.708C382.203 335.922 385.619 339.338 389.833 339.338Z" fill="white"/>
<path d="M412.742 339.338C416.956 339.338 420.372 335.922 420.372 331.708C420.372 327.494 416.956 324.078 412.742 324.078C408.528 324.078 405.112 327.494 405.112 331.708C405.112 335.922 408.528 339.338 412.742 339.338Z" fill="white"/>
<path d="M435.651 339.338C439.865 339.338 443.281 335.922 443.281 331.708C443.281 327.494 439.865 324.078 435.651 324.078C431.437 324.078 428.021 327.494 428.021 331.708C428.021 335.922 431.437 339.338 435.651 339.338Z" fill="white"/>
<path d="M458.559 339.338C462.773 339.338 466.189 335.922 466.189 331.708C466.189 327.494 462.773 324.078 458.559 324.078C454.345 324.078 450.929 327.494 450.929 331.708C450.929 335.922 454.345 339.338 458.559 339.338Z" fill="white"/>
<path d="M481.468 339.338C485.682 339.338 489.098 335.922 489.098 331.708C489.098 327.494 485.682 324.078 481.468 324.078C477.254 324.078 473.838 327.494 473.838 331.708C473.838 335.922 477.254 339.338 481.468 339.338Z" fill="white"/>
</g>
<defs>
<clipPath id="clip0_2235_3451">
<rect width="895.595" height="616.419" fill="white"/>
</clipPath>
</defs>
</svg>
