<svg width="454" height="297" viewBox="0 0 454 297" fill="none" xmlns="http://www.w3.org/2000/svg">
<g clip-path="url(#clip0_947_4824)">
<path d="M171.65 340.069L438.057 340.069C443.745 340.069 448.355 335.459 448.355 329.771L448.355 16.1047C448.355 10.4174 443.745 5.80688 438.057 5.80688L171.65 5.80688C165.962 5.80688 161.352 10.4174 161.352 16.1047L161.352 329.771C161.352 335.459 165.962 340.069 171.65 340.069Z" fill="white"/>
<path d="M160.719 329.772V16.1044C160.722 13.2063 161.875 10.428 163.924 8.37879C165.974 6.32962 168.752 5.17701 171.65 5.17383H438.058C440.956 5.17701 443.734 6.32962 445.784 8.37879C447.833 10.428 448.986 13.2063 448.989 16.1044V329.772C448.986 332.671 447.833 335.449 445.784 337.498C443.734 339.547 440.956 340.7 438.058 340.704H171.65C168.752 340.7 165.974 339.547 163.924 337.498C161.875 335.449 160.722 332.671 160.719 329.772ZM171.65 6.44111C169.088 6.44396 166.631 7.46301 164.82 9.2747C163.008 11.0864 161.989 13.5428 161.986 16.105V329.772C161.989 332.335 163.008 334.791 164.82 336.603C166.631 338.415 169.088 339.434 171.65 339.437H438.058C440.62 339.434 443.076 338.415 444.888 336.603C446.7 334.791 447.719 332.335 447.722 329.772V16.1044C447.719 13.5422 446.7 11.0858 444.888 9.27407C443.076 7.46238 440.62 6.44332 438.058 6.44048L171.65 6.44111Z" fill="#292A2E"/>
<g opacity="0.1">
<path d="M190.329 166.918L419.38 166.918C423.406 166.918 426.671 163.654 426.671 159.627V37.2494C426.671 33.2228 423.406 29.9586 419.38 29.9586L190.329 29.9586C186.302 29.9586 183.038 33.2228 183.038 37.2494L183.038 159.627C183.038 163.654 186.302 166.918 190.329 166.918Z" fill="#5271FF"/>
</g>
<g opacity="0.1">
<path d="M182.78 308.436V190.55C182.783 188.527 183.587 186.587 185.018 185.157C186.448 183.727 188.388 182.922 190.411 182.92H418.664C420.687 182.922 422.626 183.727 424.056 185.157C425.486 186.588 426.291 188.527 426.293 190.55V308.436C426.291 310.459 425.486 312.399 424.056 313.829C422.625 315.26 420.686 316.065 418.663 316.067H190.411C188.388 316.065 186.448 315.26 185.018 313.829C183.587 312.399 182.782 310.459 182.78 308.436Z" fill="#5271FF"/>
</g>
<path d="M397.109 298.668H401.639C402.321 298.668 402.874 298.115 402.874 297.434V210.896C402.874 210.214 402.321 209.661 401.639 209.661H397.109C396.427 209.661 395.875 210.214 395.875 210.896V297.434C395.875 298.115 396.427 298.668 397.109 298.668Z" fill="white"/>
<path opacity="0.3" d="M404.109 298.668H408.639C409.321 298.668 409.874 298.115 409.874 297.434V238.851C409.874 238.169 409.321 237.616 408.639 237.616H404.109C403.427 237.616 402.875 238.169 402.875 238.851V297.434C402.875 298.115 403.427 298.668 404.109 298.668Z" fill="#5271FF"/>
<path d="M341.098 298.664H345.628C346.309 298.664 346.862 298.111 346.862 297.43V288.636C346.862 287.954 346.309 287.402 345.628 287.402H341.098C340.416 287.402 339.863 287.954 339.863 288.636V297.43C339.863 298.111 340.416 298.664 341.098 298.664Z" fill="white"/>
<path opacity="0.3" d="M348.097 298.664H352.627C353.308 298.664 353.861 298.111 353.861 297.43V233.821C353.861 233.139 353.308 232.586 352.627 232.586H348.097C347.415 232.586 346.862 233.139 346.862 233.821V297.43C346.862 298.111 347.415 298.664 348.097 298.664Z" fill="#5271FF"/>
<path d="M369.103 298.667H373.633C374.315 298.667 374.867 298.114 374.867 297.433V246.625C374.867 245.943 374.315 245.391 373.633 245.391H369.103C368.421 245.391 367.869 245.943 367.869 246.625V297.433C367.869 298.114 368.421 298.667 369.103 298.667Z" fill="white"/>
<path opacity="0.3" d="M376.103 298.667H380.633C381.315 298.667 381.867 298.114 381.867 297.433V265.033C381.867 264.351 381.315 263.799 380.633 263.799H376.103C375.421 263.799 374.869 264.351 374.869 265.033V297.433C374.869 298.114 375.421 298.667 376.103 298.667Z" fill="#5271FF"/>
<path d="M257.081 298.667H261.611C262.293 298.667 262.845 298.114 262.845 297.433V228.108C262.845 227.427 262.293 226.874 261.611 226.874H257.081C256.399 226.874 255.846 227.427 255.846 228.108V297.433C255.846 298.114 256.399 298.667 257.081 298.667Z" fill="white"/>
<path opacity="0.3" d="M264.08 298.667H268.61C269.292 298.667 269.845 298.114 269.845 297.433V254.54C269.845 253.858 269.292 253.306 268.61 253.306H264.08C263.398 253.306 262.846 253.858 262.846 254.54V297.433C262.846 298.114 263.398 298.667 264.08 298.667Z" fill="#5271FF"/>
<path d="M313.092 298.664H317.622C318.304 298.664 318.856 298.111 318.856 297.43V239.305C318.856 238.623 318.304 238.07 317.622 238.07H313.092C312.41 238.07 311.858 238.623 311.858 239.305V297.43C311.858 298.111 312.41 298.664 313.092 298.664Z" fill="white"/>
<path opacity="0.3" d="M320.091 298.664H324.621C325.303 298.664 325.855 298.111 325.855 297.43V246.165C325.855 245.483 325.303 244.93 324.621 244.93H320.091C319.409 244.93 318.856 245.483 318.856 246.165V297.43C318.856 298.111 319.409 298.664 320.091 298.664Z" fill="#5271FF"/>
<path d="M285.087 298.668H289.617C290.298 298.668 290.851 298.115 290.851 297.434V210.896C290.851 210.214 290.298 209.661 289.617 209.661H285.087C284.405 209.661 283.852 210.214 283.852 210.896V297.434C283.852 298.115 284.405 298.668 285.087 298.668Z" fill="white"/>
<path opacity="0.3" d="M292.086 298.668H296.616C297.297 298.668 297.85 298.115 297.85 297.434V215.183C297.85 214.502 297.297 213.949 296.616 213.949H292.086C291.404 213.949 290.851 214.502 290.851 215.183V297.434C290.851 298.115 291.404 298.668 292.086 298.668Z" fill="#5271FF"/>
<path d="M229.076 298.668H233.606C234.287 298.668 234.84 298.115 234.84 297.434V210.896C234.84 210.214 234.287 209.661 233.606 209.661H229.076C228.394 209.661 227.841 210.214 227.841 210.896V297.434C227.841 298.115 228.394 298.668 229.076 298.668Z" fill="white"/>
<path opacity="0.3" d="M236.075 298.668H240.605C241.286 298.668 241.839 298.115 241.839 297.434V238.851C241.839 238.169 241.286 237.616 240.605 237.616H236.075C235.393 237.616 234.84 238.169 234.84 238.851V297.434C234.84 298.115 235.393 298.668 236.075 298.668Z" fill="#5271FF"/>
<path d="M201.069 298.667H205.6C206.281 298.667 206.834 298.114 206.834 297.433V246.625C206.834 245.943 206.281 245.391 205.6 245.391H201.069C200.388 245.391 199.835 245.943 199.835 246.625V297.433C199.835 298.114 200.388 298.667 201.069 298.667Z" fill="white"/>
<path opacity="0.3" d="M208.068 298.667H212.599C213.28 298.667 213.833 298.114 213.833 297.433V265.033C213.833 264.351 213.28 263.799 212.599 263.799H208.068C207.387 263.799 206.834 264.351 206.834 265.033V297.433C206.834 298.114 207.387 298.667 208.068 298.667Z" fill="#5271FF"/>
<path opacity="0.2" d="M409.936 73.9152V149.678C409.936 150.001 409.808 150.31 409.581 150.538C409.353 150.766 409.044 150.894 408.722 150.894H200.988C200.665 150.894 200.356 150.766 200.129 150.538C199.901 150.31 199.773 150.001 199.773 149.678V109.457C199.773 109.244 199.829 109.034 199.936 108.85C200.042 108.665 200.196 108.511 200.38 108.405L237.16 87.1694C237.347 87.0612 237.56 87.0051 237.777 87.0067C237.993 87.0084 238.205 87.0679 238.391 87.1789L254.948 97.074C255.155 97.1979 255.394 97.2574 255.635 97.2447C255.876 97.2321 256.108 97.148 256.301 97.0031L273.686 83.9528C273.863 83.8195 274.074 83.7372 274.294 83.7149C274.515 83.6925 274.737 83.731 274.938 83.8261L296.392 94.0302C296.621 94.1394 296.879 94.174 297.129 94.1292C297.379 94.0845 297.608 93.9626 297.785 93.7807L321.605 69.3236C321.811 69.112 322.087 68.9824 322.381 68.9591C322.675 68.9358 322.968 69.0203 323.204 69.197L338.671 80.7786C338.895 80.9466 339.17 81.032 339.45 81.0205C339.73 81.0089 339.997 80.9011 340.206 80.7152L350.326 71.722C350.53 71.5404 350.789 71.4329 351.062 71.417C351.335 71.401 351.605 71.4775 351.829 71.634L366.191 81.6595C366.398 81.8034 366.644 81.8797 366.896 81.8779C367.147 81.8761 367.392 81.7963 367.597 81.6494L392.431 63.7764C392.622 63.6387 392.849 63.5595 393.084 63.5483C393.319 63.537 393.552 63.5943 393.756 63.713L409.335 72.8639C409.519 72.9712 409.671 73.1248 409.776 73.3093C409.882 73.4938 409.937 73.7027 409.936 73.9152Z" fill="#5271FF"/>
<path opacity="0.61" d="M200.471 108.412C200.578 108.412 200.683 108.384 200.775 108.33L237.668 87.0292L255.233 97.5265C255.337 97.5883 255.456 97.6179 255.577 97.6116C255.697 97.6052 255.813 97.5633 255.909 97.491L274.24 83.7302L296.813 94.4656C296.927 94.5198 297.056 94.5368 297.181 94.5141C297.306 94.4913 297.421 94.4301 297.509 94.339L322.306 68.8756L338.994 81.3711C339.106 81.455 339.243 81.4978 339.383 81.492C339.523 81.4862 339.657 81.4323 339.761 81.3394L350.981 71.3658L366.445 82.1627C366.548 82.2346 366.671 82.2728 366.797 82.2718C366.922 82.2709 367.045 82.231 367.147 82.1576L393.002 63.5531L408.93 72.9073C408.999 72.9478 409.075 72.9743 409.154 72.9854C409.233 72.9964 409.314 72.9918 409.391 72.9718C409.468 72.9518 409.541 72.9167 409.605 72.8686C409.668 72.8206 409.722 72.7605 409.762 72.6917C409.803 72.6229 409.829 72.5468 409.84 72.4678C409.851 72.3888 409.847 72.3083 409.827 72.2311C409.807 72.1538 409.772 72.0813 409.724 72.0176C409.676 71.9539 409.615 71.9003 409.547 71.8598L393.277 62.3042C393.175 62.2446 393.058 62.2159 392.94 62.2214C392.823 62.2269 392.709 62.2664 392.614 62.3352L366.787 80.9195L351.283 70.0979C351.172 70.0195 351.037 69.9812 350.9 69.9891C350.764 69.997 350.634 70.0508 350.532 70.1416L339.322 80.1038L322.603 67.5855C322.485 67.497 322.338 67.4547 322.191 67.4663C322.044 67.478 321.906 67.5429 321.804 67.6488L296.938 93.1832L274.426 82.4762C274.326 82.4286 274.215 82.4093 274.105 82.4205C273.994 82.4316 273.889 82.4728 273.801 82.5395L255.502 96.2763L237.981 85.8049C237.888 85.7496 237.782 85.7199 237.674 85.7192C237.566 85.7184 237.459 85.7465 237.366 85.8005L200.163 107.28C200.047 107.347 199.957 107.45 199.905 107.574C199.854 107.697 199.845 107.834 199.88 107.964C199.915 108.093 199.991 108.207 200.097 108.289C200.204 108.37 200.334 108.414 200.468 108.414L200.471 108.412Z" fill="#5271FF"/>
<path d="M36.3765 188.949C36.3765 188.949 40.3423 184.493 40.3075 194.6C40.1764 232.301 37.6323 468.793 37.6323 468.793L72.4816 468.501L93.5922 187.417L36.3765 188.949Z" fill="#262626"/>
<path d="M131.649 191.876C131.649 191.876 136.003 320.73 135.551 327.028L131.457 467.815L97.1839 468.449L91.6569 321.934C91.6569 321.934 88.0343 281.518 78.2691 243.988C73.273 224.727 70.2663 205.004 69.2961 185.129L131.649 191.876Z" fill="#262626"/>
<path d="M86.4353 283.234L89.2929 239.529C89.2929 239.529 92.2283 257.699 92.2283 273.36C92.2283 281.015 90.652 311.322 90.652 311.322L86.4353 283.234Z" fill="#0A0A0A"/>
<path d="M35.9978 188.945L35.8838 188.951C35.8838 188.951 35.9661 186.754 35.9978 188.945Z" fill="#333333"/>
<path d="M36.1409 188.942L36.0269 188.948C36.0269 188.948 36.1092 186.751 36.1409 188.942Z" fill="#333333"/>
<path d="M227.104 84.3584C226.895 83.9426 226.561 83.6023 226.149 83.3845C225.738 83.1667 225.269 83.0821 224.807 83.1424C224.811 83.1145 224.808 83.0861 224.799 83.0596C224.789 83.0331 224.774 83.0093 224.753 82.9902C224.732 82.9711 224.707 82.9573 224.68 82.9501C224.653 82.9428 224.625 82.9423 224.597 82.9486L226.155 81.832C226.622 81.5129 226.957 81.0355 227.099 80.4883C227.241 79.9411 227.179 79.361 226.926 78.8554C226.661 78.3639 226.222 77.9886 225.696 77.8024C225.169 77.6162 224.592 77.6324 224.077 77.8478C224.08 77.8263 224.065 77.8047 224.062 77.7845L224.702 77.3253C225.14 77.0227 225.46 76.5782 225.608 76.0668C225.756 75.5555 225.723 75.0087 225.514 74.519C225.377 74.2147 225.174 73.9446 224.919 73.7282C224.665 73.5118 224.366 73.3546 224.044 73.2679C223.721 73.1811 223.383 73.167 223.055 73.2265C222.726 73.286 222.415 73.4177 222.144 73.6121L220.666 74.6717C220.662 74.6628 220.666 74.6527 220.66 74.6444C220.655 74.6362 220.638 74.633 220.63 74.6242C220.969 74.2426 221.169 73.757 221.196 73.247C221.223 72.7371 221.075 72.2331 220.778 71.8179C220.082 70.6957 218.471 70.9249 217.515 71.6095L208.819 77.6173L210.373 74.9997C210.686 74.4963 210.796 73.8926 210.682 73.3108C210.567 72.729 210.235 72.2126 209.754 71.866C209.499 71.6957 209.213 71.5789 208.912 71.523C208.611 71.467 208.301 71.473 208.003 71.5406C207.704 71.6081 207.422 71.7359 207.174 71.9159C206.927 72.096 206.718 72.3247 206.562 72.588L198.075 86.8777C197.08 88.554 196.777 90.5525 197.231 92.4486C197.686 94.3447 198.861 95.9889 200.509 97.0318C202.419 98.2416 204.647 98.8533 206.908 98.7884C209.168 98.7235 211.357 97.985 213.195 96.6676L226.329 87.2539C226.766 86.9292 227.08 86.4666 227.221 85.941C227.361 85.4154 227.32 84.8577 227.104 84.3584Z" fill="#F6BDB6"/>
<g opacity="0.25">
<path d="M212.06 80.605C212.092 80.6488 212.14 80.6784 212.194 80.6874C212.247 80.6964 212.302 80.6841 212.347 80.6531L220.61 74.9298C220.633 74.9142 220.652 74.8944 220.667 74.8714C220.681 74.8485 220.692 74.8228 220.696 74.796C220.701 74.7691 220.701 74.7415 220.695 74.7148C220.689 74.6881 220.678 74.6628 220.663 74.6404C220.647 74.6179 220.627 74.5987 220.604 74.5839C220.581 74.5691 220.556 74.559 220.529 74.5541C220.502 74.5492 220.474 74.5497 220.448 74.5555C220.421 74.5613 220.396 74.5722 220.373 74.5878L212.11 80.3111C212.064 80.3426 212.033 80.3907 212.024 80.445C212.014 80.4992 212.026 80.5552 212.057 80.6006L212.06 80.605Z" fill="#0C0C0C"/>
</g>
<g opacity="0.25">
<path d="M214.484 84.3197C214.516 84.3638 214.564 84.3936 214.617 84.4027C214.671 84.4118 214.726 84.3995 214.77 84.3685L223.993 77.9808C224.038 77.9492 224.069 77.901 224.079 77.8468C224.088 77.7926 224.076 77.7367 224.045 77.6914C224.012 77.6475 223.964 77.6177 223.91 77.608C223.857 77.5982 223.801 77.6092 223.755 77.6388L214.534 84.0265C214.488 84.058 214.457 84.1061 214.447 84.1604C214.438 84.2146 214.45 84.2705 214.481 84.3159L214.484 84.3197Z" fill="#0C0C0C"/>
</g>
<g opacity="0.25">
<path d="M217.085 88.3596C217.118 88.4034 217.166 88.433 217.219 88.442C217.273 88.451 217.328 88.4387 217.372 88.4077L224.728 83.3126C224.774 83.2812 224.805 83.233 224.815 83.1788C224.824 83.1245 224.812 83.0685 224.781 83.0232C224.75 82.9778 224.701 82.9468 224.647 82.9369C224.593 82.9271 224.537 82.9392 224.492 82.9706L217.135 88.0657C217.09 88.0972 217.059 88.1453 217.049 88.1996C217.039 88.2538 217.051 88.3097 217.082 88.3551L217.085 88.3596Z" fill="#0C0C0C"/>
</g>
<path d="M193.068 83.6221L168.141 126.075L137.726 86.1807L112.467 108.953L155.603 164.819L155.886 165.217C157.612 167.582 159.913 169.468 162.57 170.698C165.227 171.928 168.154 172.461 171.074 172.247C173.994 172.033 176.812 171.08 179.262 169.476C181.711 167.873 183.713 165.672 185.077 163.081L220.523 98.8902L193.068 83.6221Z" fill="#5271FF"/>
<path d="M165.697 131.18C165.647 131.18 165.598 131.168 165.553 131.146C165.516 131.127 165.483 131.101 165.456 131.069C165.429 131.037 165.408 131.001 165.396 130.961C165.383 130.922 165.378 130.88 165.381 130.838C165.384 130.797 165.396 130.756 165.415 130.719L167.859 125.932C167.878 125.894 167.904 125.861 167.935 125.835C167.967 125.808 168.004 125.787 168.043 125.774C168.083 125.761 168.125 125.756 168.166 125.76C168.208 125.763 168.248 125.775 168.285 125.793C168.322 125.812 168.355 125.838 168.382 125.87C168.409 125.902 168.43 125.938 168.442 125.978C168.455 126.018 168.46 126.059 168.457 126.101C168.453 126.142 168.442 126.183 168.423 126.22L165.979 131.008C165.953 131.06 165.912 131.103 165.863 131.134C165.813 131.164 165.756 131.18 165.697 131.18Z" fill="#0C0C0C"/>
<path d="M135.97 125.833L135.209 139.242L135.842 139.278L136.603 125.869L135.97 125.833Z" fill="#0C0C0C"/>
<path d="M55.651 28.7929C55.651 28.7929 54.4832 43.7178 51.0601 49.0979C41.2055 64.5871 38.1992 82.1048 47.7813 91.3862C57.3635 100.668 119.157 101.51 124.079 80.4746C128.225 62.765 119.79 60.758 117.902 46.0852C117.047 39.4473 114.647 25.5205 114.647 25.5205" fill="#0A0A0A"/>
<path d="M108.348 77.1118C108.242 77.0979 107.058 96.7398 84.24 95.0273C68.4436 93.8436 62.8115 77.084 62.4492 77.084C64.1522 76.7224 67.0206 76.1973 67.7767 75.792C70.2638 74.4557 73.3418 73.0649 74.1435 68.2346C74.6059 65.4479 73.8218 51.207 74.0631 48.3906L98.3105 53.8024C97.9717 59.7518 95.6005 73.5437 103.912 75.9845C105.295 76.388 106.784 76.7597 108.348 77.1118Z" fill="#F6BDB6"/>
<path opacity="0.52" d="M98.6507 70.3469C98.271 69.1229 98.0264 67.861 97.9211 66.5837C97.6544 63.6689 97.7075 60.7337 98.0795 57.8305C93.1511 57.1655 88.5082 55.1312 84.6783 51.959C84.228 53.6221 81.7517 60.8888 82.4376 62.4684C83.7334 65.4551 89.8235 70.3469 98.6507 70.3469Z" fill="#0C0C0C"/>
<path d="M95.437 64.1653C85.8675 64.9797 73.543 61.0126 71.1288 48.253L68.9495 36.7398C66.5346 23.9803 71.2789 12.3683 83.293 10.0946C95.3065 7.821 106.244 16.4652 108.659 29.2248L109.623 34.3218C110.55 39.218 112.512 62.7124 95.437 64.1653Z" fill="#F6BDB6"/>
<path d="M106.199 34.8783C107.031 34.8783 107.705 34.204 107.705 33.3723C107.705 32.5405 107.031 31.8662 106.199 31.8662C105.367 31.8662 104.693 32.5405 104.693 33.3723C104.693 34.204 105.367 34.8783 106.199 34.8783Z" fill="#0C0C0C"/>
<path d="M90.7707 36.9388C91.6025 36.9388 92.2767 36.2646 92.2767 35.4328C92.2767 34.601 91.6025 33.9268 90.7707 33.9268C89.9389 33.9268 89.2646 34.601 89.2646 35.4328C89.2646 36.2646 89.9389 36.9388 90.7707 36.9388Z" fill="#0C0C0C"/>
<path d="M99.2374 46.4745H99.2608C99.7475 46.3787 100.228 46.2561 100.702 46.1072C101.408 45.8798 102.334 45.5042 102.213 44.8658C102.075 44.1388 98.5996 36.6719 98.2032 35.8226C98.1686 35.7485 98.1059 35.6911 98.029 35.6631C97.9521 35.6351 97.8672 35.6389 97.7931 35.6735C97.7189 35.7081 97.6615 35.7707 97.6336 35.8476C97.6056 35.9245 97.6093 36.0094 97.6439 36.0835C99.1265 39.2635 101.514 44.4916 101.606 44.9811C101.527 45.2078 100.354 45.6391 99.1462 45.8678C99.0669 45.8816 98.9962 45.9259 98.9491 45.9912C98.902 46.0565 98.8823 46.1376 98.8942 46.2172C98.9061 46.2968 98.9487 46.3686 99.0128 46.4173C99.0769 46.4659 99.1575 46.4876 99.2374 46.4777V46.4745Z" fill="#0C0C0C"/>
<path d="M97.4586 51.9828C99.4181 51.7282 101.291 51.0169 102.925 49.9061C102.993 49.8615 103.041 49.7915 103.058 49.7115C103.075 49.6314 103.06 49.5479 103.015 49.4793C102.971 49.4107 102.901 49.3626 102.821 49.3456C102.741 49.3286 102.657 49.3441 102.588 49.3887C99.0514 51.6934 95.5371 52.0658 92.4256 50.4654C92.3626 50.4313 92.2979 50.4007 92.2318 50.3735C92.155 50.3465 92.0707 50.3509 91.9971 50.3857C91.9236 50.4206 91.8668 50.4831 91.8392 50.5596C91.8115 50.6361 91.8152 50.7205 91.8495 50.7943C91.8838 50.8681 91.9458 50.9254 92.0221 50.9537C92.0468 50.9638 92.0855 50.9853 92.1437 51.017C93.7797 51.8608 95.6303 52.1971 97.4586 51.9828Z" fill="#0C0C0C"/>
<path d="M59.3385 40.7533L70.105 38.7786C78.261 35.4783 80.7278 21.3584 80.7278 21.3584C80.7278 21.3584 90.638 31.0146 114.647 25.5237C114.647 25.5237 109.833 -7.95818 74.3635 1.7741C62.9263 4.91348 54.7178 16.4387 55.7438 31.8418C56.4569 42.638 59.3385 40.7533 59.3385 40.7533Z" fill="#0A0A0A"/>
<path d="M72.6102 51.9996C68.9597 52.6905 65.2605 49.3447 64.567 45.6936C63.8735 42.0425 66.4549 39.4693 70.1061 38.7783L72.4494 40.8683L75.749 51.4055L72.6102 51.9996Z" fill="#F6BDB6"/>
<path d="M100.404 29.7187C101.469 29.0314 102.699 28.6429 103.965 28.594C104.589 28.5665 105.213 28.6324 105.817 28.7897C106.415 28.9434 106.992 29.1717 107.533 29.4692C107.609 29.5068 107.668 29.5729 107.695 29.6533C107.723 29.7337 107.718 29.8218 107.681 29.8984C107.644 29.975 107.578 30.0339 107.498 30.0623C107.418 30.0907 107.33 30.0863 107.253 30.05L107.23 30.0392C106.73 29.7936 106.201 29.6116 105.656 29.4977C105.116 29.3823 104.563 29.3492 104.013 29.3995C102.924 29.4907 101.878 29.8685 100.982 30.4946L100.953 30.5155C100.902 30.5529 100.843 30.5798 100.782 30.5947C100.72 30.6096 100.655 30.6121 100.593 30.6022C100.53 30.5922 100.469 30.57 100.415 30.5368C100.361 30.5035 100.314 30.4599 100.276 30.4084C100.239 30.357 100.212 30.2986 100.197 30.2367C100.182 30.1748 100.18 30.1106 100.19 30.0478C100.199 29.9849 100.222 29.9246 100.255 29.8703C100.288 29.816 100.332 29.7688 100.383 29.7314L100.404 29.7187Z" fill="#0C0C0C"/>
<path d="M90.7984 31.978C89.7367 31.7186 88.6254 31.7442 87.5767 32.0521C87.0464 32.204 86.5421 32.435 86.0808 32.7374C85.6131 33.0414 85.1857 33.4031 84.8085 33.814L84.7914 33.8311C84.7323 33.8903 84.6525 33.9243 84.5689 33.9258C84.4853 33.9273 84.4044 33.8963 84.3432 33.8392C84.282 33.7822 84.2454 33.7036 84.2411 33.6201C84.2368 33.5366 84.2652 33.4546 84.3202 33.3916C84.7172 32.9185 85.1724 32.4974 85.6748 32.1383C86.1807 31.7727 86.7388 31.4855 87.3303 31.2864C88.5293 30.8743 89.8171 30.7921 91.0587 31.0483C91.1847 31.0753 91.2948 31.1513 91.3647 31.2595C91.4347 31.3677 91.4588 31.4993 91.4317 31.6253C91.4047 31.7512 91.3287 31.8613 91.2205 31.9313C91.1123 32.0012 90.9808 32.0253 90.8548 31.9983L90.8352 31.9939L90.7984 31.978Z" fill="#0C0C0C"/>
<path d="M97.8756 54.878C98.2305 54.8374 98.5814 54.7669 98.9244 54.6671C98.9639 54.6564 99.0008 54.6379 99.0331 54.6128C99.0654 54.5877 99.0923 54.5564 99.1124 54.5208C99.1325 54.4852 99.1453 54.4459 99.15 54.4053C99.1548 54.3647 99.1514 54.3235 99.1401 54.2842C99.1288 54.2449 99.1098 54.2082 99.0842 54.1763C99.0586 54.1444 99.027 54.1179 98.991 54.0984C98.9551 54.0789 98.9156 54.0667 98.8749 54.0625C98.8343 54.0584 98.7932 54.0624 98.754 54.0743C96.6888 54.6683 95.5146 53.8811 95.4658 53.8469C95.3986 53.7999 95.3155 53.7815 95.2347 53.7957C95.154 53.81 95.0822 53.8557 95.0351 53.9229C94.9881 53.9901 94.9697 54.0732 94.984 54.154C94.9982 54.2347 95.044 54.3065 95.1111 54.3536C95.9445 54.8421 96.9212 55.0274 97.8756 54.878Z" fill="#0C0C0C"/>
<path d="M70.1319 38.6439L70.0249 38.3456C83.6699 33.4469 80.3329 20.0565 80.298 19.9216L80.6039 19.8418C80.64 19.9786 84.053 33.6457 70.1319 38.6439Z" fill="#0C0C0C"/>
<path opacity="0.1" d="M89.5545 47.4141C91.1299 47.2446 92.3062 46.1704 92.1818 45.0148C92.0575 43.8591 90.6796 43.0597 89.1042 43.2292C87.5288 43.3987 86.3525 44.473 86.4768 45.6286C86.6012 46.7842 87.9791 47.5836 89.5545 47.4141Z" fill="#0C0C0C"/>
<path opacity="0.1" d="M106.23 42.9923C106.357 44.1462 107.735 44.9442 109.311 44.777C109.583 44.7475 109.851 44.6899 110.112 44.6053C110.201 43.2323 110.22 41.9106 110.194 40.6863C109.759 40.5724 109.306 40.5406 108.859 40.5926C107.283 40.7598 106.107 41.8339 106.23 42.9923Z" fill="#0C0C0C"/>
<path d="M136.698 120.354C135.979 128.797 132.483 181.475 131.792 191.876H40.3581C39.8198 182.495 33.6044 141.478 31.5644 123.135C29.617 105.632 25.7961 96.8682 28.5967 91.6933C33.1731 83.2359 45.6787 78.3492 54.2058 77.1947C59.4129 76.4898 67.244 75.9844 67.244 75.9844C67.244 75.9844 67.9071 89.3982 83.7186 90.1449C105.242 91.1582 103.805 75.9844 103.912 75.9844C107.399 75.9844 127.318 78.1915 132.191 81.0801C145.471 88.9441 138.224 102.46 136.698 120.354Z" fill="#5271FF"/>
<path d="M196.048 126.252L187.235 169.09C187.056 169.96 186.584 170.742 185.898 171.306C185.212 171.87 184.353 172.182 183.465 172.19L122.776 172.707C122.197 172.712 121.625 172.587 121.1 172.342C120.576 172.097 120.113 171.738 119.745 171.29C119.377 170.843 119.114 170.319 118.975 169.757C118.836 169.195 118.824 168.609 118.941 168.042L127.754 125.204C127.934 124.335 128.405 123.553 129.091 122.988C129.777 122.424 130.636 122.113 131.524 122.105L192.213 121.588C192.792 121.583 193.364 121.708 193.889 121.953C194.413 122.198 194.876 122.557 195.244 123.004C195.612 123.452 195.875 123.975 196.014 124.537C196.153 125.099 196.165 125.685 196.048 126.252Z" fill="#292A2E"/>
<path d="M139.457 156.681C139.49 157.245 139.317 157.802 138.972 158.249C138.626 158.696 138.131 159.003 137.576 159.114L135.708 159.525C135.742 159.536 135.772 159.555 135.796 159.581C135.82 159.606 135.838 159.637 135.848 159.671C135.852 159.711 135.843 159.751 135.822 159.785C136.271 159.911 136.67 160.174 136.963 160.537C137.256 160.9 137.428 161.346 137.456 161.812C137.459 162.354 137.278 162.882 136.944 163.31C136.609 163.737 136.141 164.039 135.613 164.167L119.837 167.67C119.031 167.851 118.206 167.942 117.38 167.942C115.538 167.942 113.725 167.494 112.095 166.636C110.466 165.779 109.069 164.538 108.026 163.021C106.919 161.416 106.483 159.442 106.809 157.52C107.136 155.598 108.199 153.88 109.774 152.73L123.194 142.919C123.489 142.703 123.832 142.562 124.194 142.508L122.959 148.505L123.289 148.429L123.358 148.417L133.65 146.32C134.796 146.067 136.367 146.485 136.569 147.79C136.678 148.289 136.615 148.811 136.389 149.27C136.164 149.728 135.79 150.097 135.328 150.317C135.335 150.323 135.347 150.329 135.347 150.342C135.347 150.355 135.341 150.361 135.341 150.374L137.12 149.981C137.446 149.909 137.784 149.91 138.109 149.984C138.434 150.058 138.739 150.203 139.001 150.409C139.263 150.615 139.477 150.876 139.626 151.175C139.775 151.473 139.856 151.801 139.863 152.134C139.863 152.667 139.679 153.183 139.341 153.595C139.004 154.007 138.535 154.29 138.013 154.395L137.247 154.566C137.241 154.592 137.247 154.617 137.234 154.636C137.793 154.64 138.33 154.852 138.74 155.23C139.151 155.608 139.407 156.125 139.457 156.681Z" fill="#F6BDB6"/>
<g opacity="0.25">
<path d="M125.096 152.454C125.108 152.507 125.14 152.553 125.186 152.582C125.232 152.611 125.287 152.622 125.34 152.611L135.187 150.592C135.215 150.587 135.241 150.577 135.265 150.562C135.289 150.547 135.309 150.528 135.325 150.505C135.341 150.481 135.352 150.455 135.358 150.428C135.364 150.4 135.364 150.372 135.358 150.344C135.352 150.317 135.341 150.291 135.325 150.267C135.309 150.244 135.289 150.225 135.265 150.21C135.241 150.195 135.215 150.185 135.187 150.18C135.159 150.176 135.131 150.177 135.103 150.184L125.256 152.204C125.202 152.215 125.155 152.247 125.125 152.293C125.094 152.339 125.083 152.395 125.094 152.449L125.096 152.454Z" fill="#0C0C0C"/>
</g>
<g opacity="0.25">
<path d="M125.866 156.82C125.878 156.873 125.911 156.919 125.957 156.948C126.002 156.977 126.058 156.988 126.111 156.977L137.1 154.723C137.154 154.712 137.202 154.68 137.232 154.634C137.262 154.588 137.273 154.532 137.262 154.478C137.249 154.425 137.217 154.378 137.171 154.348C137.126 154.318 137.07 154.306 137.017 154.315L126.027 156.569C125.973 156.581 125.926 156.613 125.895 156.659C125.865 156.705 125.854 156.761 125.865 156.815L125.866 156.82Z" fill="#0C0C0C"/>
</g>
<g opacity="0.25">
<path d="M126.674 161.555C126.686 161.608 126.719 161.654 126.764 161.684C126.81 161.713 126.865 161.723 126.918 161.712L135.684 159.915C135.712 159.911 135.739 159.901 135.762 159.886C135.786 159.871 135.807 159.851 135.823 159.828C135.839 159.805 135.85 159.779 135.855 159.751C135.861 159.723 135.861 159.695 135.855 159.667C135.85 159.64 135.839 159.614 135.823 159.591C135.807 159.568 135.786 159.548 135.762 159.533C135.738 159.518 135.712 159.508 135.684 159.504C135.656 159.499 135.628 159.5 135.601 159.507L126.835 161.305C126.808 161.311 126.783 161.321 126.76 161.337C126.737 161.352 126.718 161.371 126.703 161.394C126.688 161.417 126.677 161.442 126.672 161.469C126.667 161.496 126.667 161.524 126.673 161.55L126.674 161.555Z" fill="#0C0C0C"/>
</g>
<path d="M118.86 173.911L33.2693 189.377C30.5985 189.668 27.8965 189.336 25.3756 188.407C22.8546 187.478 20.5832 185.978 18.7396 184.023C16.896 182.069 15.5304 179.714 14.7499 177.143C13.9694 174.573 13.7952 171.856 14.2411 169.207L26.223 97.9849C26.9881 93.4372 29.5284 89.3797 33.2851 86.7049C37.0419 84.0302 41.7073 82.9574 46.255 83.7225C50.8027 84.4876 54.8603 87.0279 57.535 90.7847C60.2097 94.5414 61.2825 99.2068 60.5174 103.755L52.3476 152.783L115.097 144.905L118.86 173.911Z" fill="#5271FF"/>
<path d="M33.2686 189.694C33.1896 189.693 33.1135 189.664 33.0553 189.61C32.997 189.557 32.9609 189.484 32.9539 189.405C32.9469 189.326 32.9696 189.248 33.0175 189.185C33.0654 189.122 33.1351 189.079 33.2129 189.065L118.507 173.652L114.825 145.256L52.3861 153.097C52.3372 153.104 52.2874 153.099 52.2408 153.082C52.1942 153.066 52.1522 153.039 52.1182 153.003C52.084 152.967 52.0585 152.924 52.0439 152.877C52.0293 152.83 52.0259 152.78 52.034 152.731L57.2272 121.396C57.234 121.355 57.2488 121.316 57.2708 121.28C57.2927 121.245 57.3214 121.214 57.3553 121.19C57.3891 121.166 57.4273 121.149 57.4679 121.139C57.5084 121.13 57.5504 121.128 57.5914 121.135C57.6325 121.142 57.6719 121.157 57.7073 121.179C57.7427 121.201 57.7733 121.229 57.7976 121.263C57.8218 121.297 57.8391 121.336 57.8485 121.376C57.8579 121.417 57.8592 121.459 57.8523 121.5L52.7281 152.416L115.057 144.588C115.14 144.577 115.224 144.6 115.29 144.651C115.357 144.702 115.4 144.778 115.411 144.861L119.174 173.867C119.184 173.948 119.164 174.029 119.116 174.095C119.068 174.161 118.996 174.205 118.916 174.22L33.3256 189.689C33.3067 189.692 33.2877 189.693 33.2686 189.694Z" fill="#0C0C0C"/>
<path d="M52.2974 152.471L46.7917 153.353L46.892 153.979L52.3976 153.097L52.2974 152.471Z" fill="#0C0C0C"/>
</g>
<defs>
<clipPath id="clip0_947_4824">
<rect width="454" height="297" fill="white"/>
</clipPath>
</defs>
</svg>
