<svg width="600" height="483" viewBox="0 0 600 483" fill="none" xmlns="http://www.w3.org/2000/svg">
<path opacity="0.1" d="M172.356 417.012H89.2964V308.763H156.468L172.356 325.381V417.012Z" fill="#292A2E"/>
<path opacity="0.1" d="M156.468 308.763V325.134L172.356 325.381L156.468 308.763Z" fill="#292A2E"/>
<path d="M136.499 351.547V356.665C136.499 357.777 136.057 358.844 135.27 359.631C134.483 360.418 133.416 360.86 132.304 360.86H81.2615C80.1489 360.86 79.0818 361.302 78.295 362.088C77.5083 362.875 77.0663 363.942 77.0663 365.055V433.39C77.0663 434.503 77.5083 435.57 78.295 436.357C79.0818 437.143 80.1489 437.585 81.2615 437.585H180.391C181.504 437.585 182.571 437.143 183.357 436.357C184.144 435.57 184.586 434.503 184.586 433.39V351.547C184.586 350.435 184.144 349.368 183.357 348.581C182.571 347.794 181.504 347.352 180.391 347.352H140.694C139.582 347.352 138.515 347.794 137.728 348.581C136.941 349.368 136.499 350.435 136.499 351.547Z" fill="white"/>
<path opacity="0.05" d="M136.499 351.547V356.665C136.499 357.777 136.057 358.844 135.27 359.631C134.483 360.418 133.416 360.86 132.304 360.86H81.2615C80.1489 360.86 79.0818 361.302 78.295 362.088C77.5083 362.875 77.0663 363.942 77.0663 365.055V433.39C77.0663 434.503 77.5083 435.57 78.295 436.357C79.0818 437.143 80.1489 437.585 81.2615 437.585H180.391C181.504 437.585 182.571 437.143 183.357 436.357C184.144 435.57 184.586 434.503 184.586 433.39V351.547C184.586 350.435 184.144 349.368 183.357 348.581C182.571 347.794 181.504 347.352 180.391 347.352H140.694C139.582 347.352 138.515 347.794 137.728 348.581C136.941 349.368 136.499 350.435 136.499 351.547Z" fill="#292A2E"/>
<path opacity="0.1" d="M278.436 154.52H195.377V46.2715H262.549L278.436 62.8892V154.52Z" fill="#292A2E"/>
<path opacity="0.1" d="M262.549 46.2715V62.6421L278.436 62.8892L262.549 46.2715Z" fill="#292A2E"/>
<path d="M242.58 89.0559V94.1728C242.58 94.7237 242.471 95.2693 242.26 95.7783C242.05 96.2873 241.741 96.7497 241.351 97.1393C240.961 97.5289 240.499 97.8379 239.99 98.0487C239.481 98.2596 238.935 98.3681 238.384 98.3681H187.34C186.228 98.3682 185.161 98.8103 184.374 99.5971C183.588 100.384 183.146 101.451 183.146 102.563V170.896C183.146 172.009 183.588 173.076 184.374 173.862C185.161 174.649 186.228 175.091 187.34 175.091H286.472C287.584 175.091 288.651 174.649 289.438 173.863C290.225 173.076 290.667 172.009 290.667 170.896V89.0559C290.667 87.9433 290.225 86.8762 289.438 86.0894C288.651 85.3027 287.584 84.8607 286.472 84.8607H246.773C245.661 84.8611 244.594 85.3033 243.808 86.0901C243.021 86.8768 242.58 87.9436 242.58 89.0559Z" fill="white"/>
<path opacity="0.05" d="M242.58 89.0559V94.1728C242.58 94.7237 242.471 95.2693 242.26 95.7783C242.05 96.2873 241.741 96.7497 241.351 97.1393C240.961 97.5289 240.499 97.8379 239.99 98.0487C239.481 98.2596 238.935 98.3681 238.384 98.3681H187.34C186.228 98.3682 185.161 98.8103 184.374 99.5971C183.588 100.384 183.146 101.451 183.146 102.563V170.896C183.146 172.009 183.588 173.076 184.374 173.862C185.161 174.649 186.228 175.091 187.34 175.091H286.472C287.584 175.091 288.651 174.649 289.438 173.863C290.225 173.076 290.667 172.009 290.667 170.896V89.0559C290.667 87.9433 290.225 86.8762 289.438 86.0894C288.651 85.3027 287.584 84.8607 286.472 84.8607H246.773C245.661 84.8611 244.594 85.3033 243.808 86.0901C243.021 86.8768 242.58 87.9436 242.58 89.0559Z" fill="#292A2E"/>
<path opacity="0.1" d="M587.072 386.744H504.013V278.496H571.185L587.072 295.113V386.744Z" fill="#292A2E"/>
<path opacity="0.1" d="M571.185 278.496V294.866L587.072 295.113L571.185 278.496Z" fill="#292A2E"/>
<path d="M551.216 321.279V326.397C551.216 326.948 551.107 327.493 550.896 328.002C550.685 328.511 550.376 328.974 549.987 329.363C549.597 329.753 549.135 330.062 548.626 330.273C548.117 330.484 547.571 330.592 547.02 330.592H495.977C494.865 330.592 493.798 331.034 493.011 331.821C492.224 332.608 491.782 333.675 491.782 334.787V403.12C491.782 404.232 492.224 405.299 493.011 406.086C493.798 406.873 494.865 407.315 495.977 407.315H595.107C596.22 407.315 597.287 406.873 598.074 406.086C598.861 405.299 599.303 404.232 599.303 403.12V321.279C599.302 320.167 598.86 319.1 598.074 318.313C597.287 317.527 596.22 317.085 595.107 317.085H555.411C554.298 317.085 553.231 317.527 552.444 318.313C551.658 319.1 551.216 320.167 551.216 321.279Z" fill="white"/>
<path opacity="0.05" d="M551.216 321.279V326.397C551.216 326.948 551.107 327.493 550.896 328.002C550.685 328.511 550.376 328.974 549.987 329.363C549.597 329.753 549.135 330.062 548.626 330.273C548.117 330.484 547.571 330.592 547.02 330.592H495.977C494.865 330.592 493.798 331.034 493.011 331.821C492.224 332.608 491.782 333.675 491.782 334.787V403.12C491.782 404.232 492.224 405.299 493.011 406.086C493.798 406.873 494.865 407.315 495.977 407.315H595.107C596.22 407.315 597.287 406.873 598.074 406.086C598.861 405.299 599.303 404.232 599.303 403.12V321.279C599.302 320.167 598.86 319.1 598.074 318.313C597.287 317.527 596.22 317.085 595.107 317.085H555.411C554.298 317.085 553.231 317.527 552.444 318.313C551.658 319.1 551.216 320.167 551.216 321.279Z" fill="#292A2E"/>
<path d="M571.556 65.2249C573.7 52.1231 571.144 38.685 564.34 27.2855C560.602 20.9643 555.648 15.448 549.762 11.0563C543.877 6.66472 537.178 3.48521 530.055 1.70218C526.409 0.789598 522.681 0.244387 518.927 0.0747111V0.0216675H499.786V2.61357C486.074 6.93659 474.577 16.4147 467.718 29.0498C463.142 26.0408 457.781 24.4435 452.304 24.4567C451.442 24.4567 450.543 24.4995 449.688 24.5814H436.754L432.527 32.5573L432.434 32.6477C432.309 32.7682 432.186 32.8888 432.066 33.0093C427.695 37.5069 424.916 43.3108 424.153 49.5354C401.892 51.1304 384.11 69.8427 383.576 92.3518C383.278 103.999 387.613 115.288 395.631 123.741C399.575 127.925 404.312 131.283 409.566 133.618C414.82 135.953 420.487 137.219 426.235 137.342L563.764 137.36C583.745 137.36 600.001 120.989 600.001 100.865C600 83.4369 588.333 68.862 571.556 65.2249Z" fill="#292A2E"/>
<path d="M549.589 136.778C569.246 136.778 585.245 120.672 585.245 100.865C585.316 92.6 582.508 84.5678 577.302 78.1475C572.096 71.7271 564.818 67.3191 556.716 65.68C559.029 52.5473 556.526 39.0211 549.668 27.5851C544.691 19.1728 537.56 12.2397 529.012 7.50014C520.463 2.76055 510.805 0.385845 501.034 0.620668C491.262 0.855491 481.729 3.69136 473.418 8.83609C465.107 13.9808 458.318 21.2484 453.75 29.89C448.377 26.1985 441.871 24.5275 435.384 25.1729C428.897 25.8182 422.848 28.7384 418.308 33.4162C413.911 37.9397 411.162 43.81 410.503 50.084C388.471 51.4101 370.518 69.8644 369.984 92.3657C369.689 103.859 373.966 114.999 381.878 123.34C385.767 127.468 390.439 130.78 395.62 133.084C400.802 135.388 406.391 136.638 412.061 136.761L549.589 136.778Z" fill="white"/>
<path d="M549.589 137.381L412.061 137.364C406.309 137.24 400.64 135.973 395.383 133.637C390.125 131.301 385.386 127.942 381.44 123.755C373.418 115.299 369.081 104.004 369.38 92.3513C369.914 69.8367 387.695 51.1219 409.959 49.5162C410.726 43.2927 413.507 37.4905 417.876 32.9931C422.435 28.2966 428.486 25.3315 434.991 24.6057C441.496 23.88 448.052 25.4386 453.534 29.0148C458.231 20.3867 465.13 13.1576 473.53 8.06345C481.93 2.96934 491.529 0.192299 501.351 0.0151446C511.173 -0.16201 520.867 2.26705 529.445 7.05494C538.022 11.8428 545.178 18.8185 550.183 27.2716C556.987 38.6696 559.545 52.1053 557.405 65.2062C574.183 68.8517 585.847 83.4309 585.847 100.863C585.848 121 569.582 137.381 549.589 137.381ZM438.129 25.6387C434.512 25.6261 430.929 26.346 427.597 27.7548C424.265 29.1637 421.253 31.2324 418.742 33.8363C414.439 38.2645 411.748 44.0098 411.102 50.1503L411.049 50.6584L410.539 50.6891C388.659 52.0056 371.11 70.3195 370.587 92.3826C370.296 103.717 374.514 114.703 382.316 122.93C386.151 126.999 390.757 130.264 395.866 132.535C400.975 134.807 406.485 136.039 412.074 136.161L549.589 136.178C568.918 136.178 584.643 120.338 584.643 100.868C584.643 83.8209 573.109 69.595 556.596 66.2737L556.021 66.158L556.121 65.5793C558.382 52.5882 555.908 39.2172 549.149 27.8949C544.227 19.5735 537.175 12.7151 528.721 8.02635C520.266 3.33762 510.713 0.988209 501.048 1.22022C491.383 1.45223 481.954 4.25727 473.734 9.34628C465.514 14.4353 458.799 21.6242 454.282 30.1721L453.963 30.7689L453.407 30.3843C448.917 27.2815 443.586 25.6256 438.129 25.6387Z" fill="#292A2E"/>
<path d="M465.271 96.0812H404.709V482.016H465.271V96.0812Z" fill="#262626"/>
<path d="M465.873 482.619H404.106V95.4784H465.873V482.619ZM405.311 481.414H464.668V96.6839H405.311V481.414Z" fill="#292A2E"/>
<path d="M215.536 482.017H404.708L404.708 96.0817H215.536L215.536 482.017Z" fill="white"/>
<path d="M405.311 482.619H214.934V95.4784H405.311V482.619ZM216.139 481.414H404.106V96.6839H216.139V481.414Z" fill="#292A2E"/>
<path d="M390.674 111.604H229.57V147.752H390.674V111.604Z" fill="#47BAD8"/>
<g opacity="0.5">
<path d="M390.674 111.604H229.57V147.752H390.674V111.604Z" fill="white"/>
</g>
<path d="M390.675 148.354H229.571C229.411 148.354 229.258 148.291 229.145 148.178C229.032 148.065 228.968 147.911 228.968 147.752V111.604C228.968 111.444 229.032 111.29 229.145 111.177C229.258 111.064 229.411 111.001 229.571 111.001H390.675C390.835 111.001 390.988 111.064 391.101 111.177C391.214 111.29 391.278 111.444 391.278 111.604V147.752C391.278 147.911 391.214 148.065 391.101 148.178C390.988 148.291 390.835 148.354 390.675 148.354ZM230.174 147.149H390.072V112.206H230.174V147.149Z" fill="#292A2E"/>
<path d="M247.83 137.093C251.926 137.093 255.246 133.773 255.246 129.678C255.246 125.582 251.926 122.262 247.83 122.262C243.735 122.262 240.415 125.582 240.415 129.678C240.415 133.773 243.735 137.093 247.83 137.093Z" fill="white"/>
<path d="M247.831 137.696C246.245 137.696 244.695 137.226 243.377 136.345C242.059 135.464 241.031 134.212 240.424 132.747C239.818 131.282 239.659 129.671 239.968 128.115C240.278 126.56 241.041 125.132 242.162 124.011C243.283 122.889 244.712 122.126 246.267 121.817C247.822 121.507 249.434 121.666 250.899 122.273C252.364 122.88 253.616 123.907 254.497 125.226C255.378 126.544 255.848 128.094 255.848 129.679C255.845 131.805 254.999 133.842 253.497 135.345C251.994 136.848 249.956 137.693 247.831 137.696ZM247.831 122.868C246.484 122.868 245.167 123.268 244.047 124.016C242.927 124.764 242.054 125.828 241.538 127.073C241.023 128.317 240.888 129.687 241.151 131.008C241.413 132.329 242.062 133.543 243.015 134.496C243.967 135.448 245.181 136.097 246.502 136.36C247.823 136.623 249.193 136.488 250.438 135.972C251.682 135.457 252.746 134.584 253.494 133.464C254.243 132.343 254.642 131.027 254.642 129.679C254.641 127.873 253.923 126.141 252.646 124.864C251.369 123.586 249.637 122.868 247.831 122.865V122.868Z" fill="#292A2E"/>
<path d="M357.026 129.535H264.815C264.655 129.535 264.502 129.471 264.389 129.358C264.276 129.245 264.213 129.092 264.213 128.932C264.213 128.772 264.276 128.619 264.389 128.506C264.502 128.393 264.655 128.329 264.815 128.329H357.026C357.185 128.329 357.339 128.393 357.452 128.506C357.565 128.619 357.628 128.772 357.628 128.932C357.628 129.092 357.565 129.245 357.452 129.358C357.339 129.471 357.185 129.535 357.026 129.535Z" fill="#292A2E"/>
<path d="M370.582 129.535H368.669C368.509 129.535 368.355 129.471 368.242 129.358C368.129 129.245 368.066 129.092 368.066 128.932C368.066 128.772 368.129 128.619 368.242 128.506C368.355 128.393 368.509 128.329 368.669 128.329H370.582C370.742 128.329 370.895 128.393 371.008 128.506C371.121 128.619 371.185 128.772 371.185 128.932C371.185 129.092 371.121 129.245 371.008 129.358C370.895 129.471 370.742 129.535 370.582 129.535Z" fill="#292A2E"/>
<path d="M363.865 129.535H361.951C361.791 129.535 361.638 129.471 361.525 129.358C361.412 129.245 361.349 129.092 361.349 128.932C361.349 128.772 361.412 128.619 361.525 128.506C361.638 128.393 361.791 128.329 361.951 128.329H363.865C364.025 128.329 364.178 128.393 364.291 128.506C364.404 128.619 364.468 128.772 364.468 128.932C364.468 129.092 364.404 129.245 364.291 129.358C364.178 129.471 364.025 129.535 363.865 129.535Z" fill="#292A2E"/>
<path d="M377.758 129.535H375.844C375.684 129.535 375.531 129.471 375.418 129.358C375.305 129.245 375.241 129.092 375.241 128.932C375.241 128.772 375.305 128.619 375.418 128.506C375.531 128.393 375.684 128.329 375.844 128.329H377.758C377.918 128.329 378.071 128.393 378.184 128.506C378.297 128.619 378.36 128.772 378.36 128.932C378.36 129.092 378.297 129.245 378.184 129.358C378.071 129.471 377.918 129.535 377.758 129.535Z" fill="#292A2E"/>
<path d="M390.674 161.786H229.57V197.934H390.674V161.786Z" fill="#47BAD8"/>
<g opacity="0.5">
<path d="M390.674 161.786H229.57V197.934H390.674V161.786Z" fill="white"/>
</g>
<path d="M390.675 198.537H229.571C229.411 198.537 229.258 198.473 229.145 198.36C229.032 198.247 228.968 198.094 228.968 197.934V161.783C228.968 161.623 229.032 161.47 229.145 161.357C229.258 161.244 229.411 161.18 229.571 161.18H390.675C390.835 161.18 390.988 161.244 391.101 161.357C391.214 161.47 391.278 161.623 391.278 161.783V197.931C391.278 198.01 391.263 198.089 391.233 198.162C391.203 198.236 391.158 198.303 391.102 198.359C391.046 198.415 390.98 198.46 390.906 198.49C390.833 198.521 390.754 198.537 390.675 198.537ZM230.174 197.331H390.072V162.386H230.174V197.331Z" fill="#292A2E"/>
<path d="M247.83 187.276C251.926 187.276 255.246 183.956 255.246 179.86C255.246 175.764 251.926 172.444 247.83 172.444C243.735 172.444 240.415 175.764 240.415 179.86C240.415 183.956 243.735 187.276 247.83 187.276Z" fill="white"/>
<path d="M247.831 187.879C246.245 187.879 244.695 187.408 243.377 186.527C242.059 185.647 241.031 184.395 240.424 182.93C239.818 181.465 239.659 179.853 239.968 178.298C240.278 176.743 241.041 175.314 242.162 174.193C243.283 173.072 244.712 172.308 246.267 171.999C247.822 171.69 249.434 171.848 250.899 172.455C252.364 173.062 253.616 174.089 254.497 175.408C255.378 176.726 255.848 178.276 255.848 179.862C255.845 181.987 254.999 184.024 253.497 185.527C251.994 187.03 249.956 187.876 247.831 187.879ZM247.831 173.05C246.484 173.05 245.167 173.45 244.047 174.198C242.927 174.947 242.054 176.011 241.538 177.255C241.023 178.5 240.888 179.869 241.151 181.191C241.413 182.512 242.062 183.725 243.015 184.678C243.967 185.631 245.181 186.279 246.502 186.542C247.823 186.805 249.193 186.67 250.438 186.155C251.682 185.639 252.746 184.766 253.494 183.646C254.243 182.526 254.642 181.209 254.642 179.862C254.641 178.055 253.923 176.324 252.646 175.046C251.369 173.769 249.637 173.05 247.831 173.047V173.05Z" fill="#292A2E"/>
<path d="M357.026 179.718H264.815C264.655 179.718 264.502 179.655 264.389 179.542C264.276 179.429 264.213 179.275 264.213 179.115C264.213 178.956 264.276 178.802 264.389 178.689C264.502 178.576 264.655 178.513 264.815 178.513H357.026C357.185 178.513 357.339 178.576 357.452 178.689C357.565 178.802 357.628 178.956 357.628 179.115C357.628 179.275 357.565 179.429 357.452 179.542C357.339 179.655 357.185 179.718 357.026 179.718Z" fill="#292A2E"/>
<path d="M370.582 179.718H368.669C368.509 179.718 368.355 179.655 368.242 179.542C368.129 179.429 368.066 179.275 368.066 179.115C368.066 178.956 368.129 178.802 368.242 178.689C368.355 178.576 368.509 178.513 368.669 178.513H370.582C370.742 178.513 370.895 178.576 371.008 178.689C371.121 178.802 371.185 178.956 371.185 179.115C371.185 179.275 371.121 179.429 371.008 179.542C370.895 179.655 370.742 179.718 370.582 179.718Z" fill="#292A2E"/>
<path d="M363.865 179.718H361.951C361.791 179.718 361.638 179.655 361.525 179.542C361.412 179.429 361.349 179.275 361.349 179.115C361.349 178.956 361.412 178.802 361.525 178.689C361.638 178.576 361.791 178.513 361.951 178.513H363.865C364.025 178.513 364.178 178.576 364.291 178.689C364.404 178.802 364.468 178.956 364.468 179.115C364.468 179.275 364.404 179.429 364.291 179.542C364.178 179.655 364.025 179.718 363.865 179.718Z" fill="#292A2E"/>
<path d="M377.758 179.718H375.844C375.684 179.718 375.531 179.655 375.418 179.542C375.305 179.429 375.241 179.275 375.241 179.115C375.241 178.956 375.305 178.802 375.418 178.689C375.531 178.576 375.684 178.513 375.844 178.513H377.758C377.918 178.513 378.071 178.576 378.184 178.689C378.297 178.802 378.36 178.956 378.36 179.115C378.36 179.275 378.297 179.429 378.184 179.542C378.071 179.655 377.918 179.718 377.758 179.718Z" fill="#292A2E"/>
<path d="M390.674 211.968H229.57V248.116H390.674V211.968Z" fill="#47BAD8"/>
<g opacity="0.5">
<path d="M390.674 211.968H229.57V248.116H390.674V211.968Z" fill="white"/>
</g>
<path d="M390.675 248.719H229.571C229.411 248.719 229.258 248.655 229.145 248.542C229.032 248.429 228.968 248.276 228.968 248.116V211.968C228.968 211.808 229.032 211.655 229.145 211.542C229.258 211.429 229.411 211.365 229.571 211.365H390.675C390.835 211.365 390.988 211.429 391.101 211.542C391.214 211.655 391.278 211.808 391.278 211.968V248.116C391.278 248.276 391.214 248.429 391.101 248.542C390.988 248.655 390.835 248.719 390.675 248.719ZM230.174 247.513H390.072V212.571H230.174V247.513Z" fill="#292A2E"/>
<path d="M247.83 237.458C251.926 237.458 255.246 234.138 255.246 230.042C255.246 225.946 251.926 222.626 247.83 222.626C243.735 222.626 240.415 225.946 240.415 230.042C240.415 234.138 243.735 237.458 247.83 237.458Z" fill="white"/>
<path d="M247.831 238.061C246.245 238.061 244.695 237.591 243.377 236.71C242.059 235.829 241.031 234.577 240.424 233.112C239.818 231.647 239.659 230.035 239.968 228.48C240.278 226.925 241.041 225.496 242.162 224.375C243.283 223.254 244.712 222.49 246.267 222.181C247.822 221.872 249.434 222.031 250.899 222.637C252.364 223.244 253.616 224.272 254.497 225.59C255.378 226.908 255.848 228.458 255.848 230.044C255.845 232.169 254.999 234.207 253.497 235.709C251.994 237.212 249.956 238.058 247.831 238.061ZM247.831 223.23C246.484 223.23 245.167 223.629 244.047 224.378C242.927 225.126 242.054 226.19 241.538 227.434C241.023 228.679 240.888 230.048 241.151 231.37C241.413 232.691 242.062 233.905 243.015 234.857C243.967 235.81 245.181 236.458 246.502 236.721C247.823 236.984 249.193 236.849 250.438 236.334C251.682 235.818 252.746 234.945 253.494 233.825C254.243 232.705 254.642 231.388 254.642 230.041C254.64 228.235 253.922 226.504 252.645 225.227C251.368 223.95 249.637 223.232 247.831 223.23Z" fill="#292A2E"/>
<path d="M357.026 229.9H264.815C264.655 229.9 264.502 229.837 264.389 229.724C264.276 229.611 264.213 229.458 264.213 229.298C264.213 229.138 264.276 228.985 264.389 228.871C264.502 228.758 264.655 228.695 264.815 228.695H357.026C357.185 228.695 357.339 228.758 357.452 228.871C357.565 228.985 357.628 229.138 357.628 229.298C357.628 229.458 357.565 229.611 357.452 229.724C357.339 229.837 357.185 229.9 357.026 229.9Z" fill="#292A2E"/>
<path d="M370.582 229.9H368.669C368.509 229.9 368.355 229.837 368.242 229.724C368.129 229.611 368.066 229.458 368.066 229.298C368.066 229.138 368.129 228.985 368.242 228.871C368.355 228.758 368.509 228.695 368.669 228.695H370.582C370.742 228.695 370.895 228.758 371.008 228.871C371.121 228.985 371.185 229.138 371.185 229.298C371.185 229.458 371.121 229.611 371.008 229.724C370.895 229.837 370.742 229.9 370.582 229.9Z" fill="#292A2E"/>
<path d="M363.865 229.9H361.951C361.791 229.9 361.638 229.837 361.525 229.724C361.412 229.611 361.349 229.458 361.349 229.298C361.349 229.138 361.412 228.985 361.525 228.871C361.638 228.758 361.791 228.695 361.951 228.695H363.865C364.025 228.695 364.178 228.758 364.291 228.871C364.404 228.985 364.468 229.138 364.468 229.298C364.468 229.458 364.404 229.611 364.291 229.724C364.178 229.837 364.025 229.9 363.865 229.9Z" fill="#292A2E"/>
<path d="M377.758 229.9H375.844C375.684 229.9 375.531 229.837 375.418 229.724C375.305 229.611 375.241 229.458 375.241 229.298C375.241 229.138 375.305 228.985 375.418 228.871C375.531 228.758 375.684 228.695 375.844 228.695H377.758C377.918 228.695 378.071 228.758 378.184 228.871C378.297 228.985 378.36 229.138 378.36 229.298C378.36 229.458 378.297 229.611 378.184 229.724C378.071 229.837 377.918 229.9 377.758 229.9Z" fill="#292A2E"/>
<path d="M390.675 298.901H229.571C229.411 298.901 229.258 298.838 229.145 298.725C229.032 298.612 228.968 298.458 228.968 298.298V262.15C228.968 261.99 229.032 261.837 229.145 261.724C229.258 261.611 229.411 261.548 229.571 261.548H390.675C390.835 261.548 390.988 261.611 391.101 261.724C391.214 261.837 391.278 261.99 391.278 262.15V298.298C391.278 298.458 391.214 298.612 391.101 298.725C390.988 298.838 390.835 298.901 390.675 298.901ZM230.174 297.696H390.072V262.753H230.174V297.696Z" fill="#292A2E"/>
<path d="M328.871 262.15H161.74V298.298H328.871V262.15Z" fill="#47BAD8"/>
<g opacity="0.5">
<path d="M328.871 262.15H161.74V298.298H328.871V262.15Z" fill="white"/>
</g>
<path d="M328.87 298.901H161.739C161.58 298.901 161.426 298.838 161.313 298.725C161.2 298.612 161.137 298.458 161.137 298.298V262.15C161.137 261.99 161.2 261.837 161.313 261.724C161.426 261.611 161.58 261.548 161.739 261.548H328.87C329.03 261.548 329.183 261.611 329.296 261.724C329.409 261.837 329.473 261.99 329.473 262.15V298.298C329.473 298.458 329.409 298.612 329.296 298.725C329.183 298.838 329.03 298.901 328.87 298.901ZM162.341 297.696H328.267V262.753H162.342L162.341 297.696Z" fill="#292A2E"/>
<path d="M180 287.64C184.095 287.64 187.416 284.32 187.416 280.224C187.416 276.129 184.095 272.808 180 272.808C175.904 272.808 172.584 276.129 172.584 280.224C172.584 284.32 175.904 287.64 180 287.64Z" fill="white"/>
<path d="M180 288.244C178.414 288.244 176.864 287.773 175.546 286.892C174.227 286.012 173.2 284.76 172.593 283.295C171.986 281.83 171.828 280.218 172.137 278.663C172.446 277.108 173.21 275.679 174.331 274.558C175.452 273.437 176.881 272.673 178.436 272.364C179.991 272.055 181.603 272.213 183.068 272.82C184.533 273.427 185.785 274.454 186.665 275.773C187.546 277.091 188.017 278.641 188.017 280.227C188.014 282.352 187.168 284.389 185.665 285.892C184.162 287.395 182.125 288.241 180 288.244ZM180 273.415C178.653 273.415 177.336 273.815 176.216 274.563C175.095 275.312 174.222 276.376 173.707 277.62C173.191 278.865 173.057 280.234 173.319 281.556C173.582 282.877 174.231 284.09 175.183 285.043C176.136 285.996 177.35 286.644 178.671 286.907C179.992 287.17 181.362 287.035 182.606 286.52C183.851 286.004 184.915 285.131 185.663 284.011C186.412 282.891 186.811 281.574 186.811 280.227C186.81 278.42 186.092 276.688 184.815 275.41C183.538 274.133 181.806 273.414 180 273.411V273.415Z" fill="#292A2E"/>
<path d="M295.222 280.083H196.984C196.825 280.083 196.671 280.019 196.558 279.906C196.445 279.793 196.382 279.64 196.382 279.48C196.382 279.32 196.445 279.167 196.558 279.054C196.671 278.941 196.825 278.877 196.984 278.877H295.222C295.382 278.877 295.535 278.941 295.648 279.054C295.761 279.167 295.825 279.32 295.825 279.48C295.825 279.64 295.761 279.793 295.648 279.906C295.535 280.019 295.382 280.083 295.222 280.083Z" fill="#292A2E"/>
<path d="M308.778 280.083H306.864C306.704 280.083 306.551 280.019 306.438 279.906C306.324 279.793 306.261 279.64 306.261 279.48C306.261 279.32 306.324 279.167 306.438 279.054C306.551 278.941 306.704 278.877 306.864 278.877H308.778C308.937 278.877 309.091 278.941 309.204 279.054C309.317 279.167 309.38 279.32 309.38 279.48C309.38 279.64 309.317 279.793 309.204 279.906C309.091 280.019 308.937 280.083 308.778 280.083Z" fill="#292A2E"/>
<path d="M302.061 280.083H300.148C299.988 280.083 299.835 280.019 299.722 279.906C299.609 279.793 299.546 279.64 299.546 279.48C299.546 279.32 299.609 279.167 299.722 279.054C299.835 278.941 299.988 278.877 300.148 278.877H302.061C302.221 278.877 302.375 278.941 302.488 279.054C302.601 279.167 302.664 279.32 302.664 279.48C302.664 279.64 302.601 279.793 302.488 279.906C302.375 280.019 302.221 280.083 302.061 280.083Z" fill="#292A2E"/>
<path d="M315.954 280.083H314.042C313.882 280.083 313.729 280.019 313.616 279.906C313.503 279.793 313.439 279.64 313.439 279.48C313.439 279.32 313.503 279.167 313.616 279.054C313.729 278.941 313.882 278.877 314.042 278.877H315.956C316.116 278.877 316.269 278.941 316.382 279.054C316.495 279.167 316.559 279.32 316.559 279.48C316.559 279.64 316.495 279.793 316.382 279.906C316.269 280.019 316.116 280.083 315.956 280.083H315.954Z" fill="#292A2E"/>
<path d="M390.674 312.333H229.57V348.481H390.674V312.333Z" fill="#47BAD8"/>
<g opacity="0.5">
<path d="M390.674 312.333H229.57V348.481H390.674V312.333Z" fill="white"/>
</g>
<path d="M390.675 349.083H229.571C229.411 349.083 229.258 349.02 229.145 348.907C229.032 348.794 228.968 348.64 228.968 348.481V312.333C228.968 312.173 229.032 312.019 229.145 311.906C229.258 311.793 229.411 311.73 229.571 311.73H390.675C390.835 311.73 390.988 311.793 391.101 311.906C391.214 312.019 391.278 312.173 391.278 312.333V348.481C391.278 348.64 391.214 348.794 391.101 348.907C390.988 349.02 390.835 349.083 390.675 349.083ZM230.174 347.878H390.072V312.935H230.174V347.878Z" fill="#292A2E"/>
<path d="M247.83 337.822C251.926 337.822 255.246 334.502 255.246 330.407C255.246 326.311 251.926 322.991 247.83 322.991C243.735 322.991 240.415 326.311 240.415 330.407C240.415 334.502 243.735 337.822 247.83 337.822Z" fill="white"/>
<path d="M247.831 338.425C246.245 338.425 244.695 337.954 243.377 337.074C242.059 336.193 241.031 334.941 240.424 333.476C239.818 332.011 239.659 330.399 239.968 328.844C240.278 327.289 241.041 325.86 242.162 324.739C243.283 323.618 244.712 322.854 246.267 322.545C247.822 322.236 249.434 322.394 250.899 323.001C252.364 323.608 253.616 324.636 254.497 325.954C255.378 327.272 255.848 328.822 255.848 330.408C255.845 332.533 254.999 334.571 253.497 336.073C251.994 337.576 249.956 338.422 247.831 338.425ZM247.831 323.593C246.484 323.593 245.167 323.993 244.047 324.741C242.927 325.49 242.054 326.554 241.538 327.798C241.023 329.043 240.888 330.412 241.151 331.734C241.413 333.055 242.062 334.268 243.015 335.221C243.967 336.174 245.181 336.822 246.502 337.085C247.823 337.348 249.193 337.213 250.438 336.698C251.682 336.182 252.746 335.309 253.494 334.189C254.243 333.069 254.642 331.752 254.642 330.405C254.64 328.599 253.922 326.868 252.645 325.591C251.368 324.314 249.637 323.596 247.831 323.593Z" fill="#292A2E"/>
<path d="M357.026 330.265H264.815C264.655 330.265 264.502 330.201 264.389 330.088C264.276 329.975 264.213 329.822 264.213 329.662C264.213 329.502 264.276 329.349 264.389 329.236C264.502 329.123 264.655 329.059 264.815 329.059H357.026C357.185 329.059 357.339 329.123 357.452 329.236C357.565 329.349 357.628 329.502 357.628 329.662C357.628 329.822 357.565 329.975 357.452 330.088C357.339 330.201 357.185 330.265 357.026 330.265Z" fill="#292A2E"/>
<path d="M370.582 330.265H368.669C368.509 330.265 368.355 330.201 368.242 330.088C368.129 329.975 368.066 329.822 368.066 329.662C368.066 329.502 368.129 329.349 368.242 329.236C368.355 329.123 368.509 329.059 368.669 329.059H370.582C370.742 329.059 370.895 329.123 371.008 329.236C371.121 329.349 371.185 329.502 371.185 329.662C371.185 329.822 371.121 329.975 371.008 330.088C370.895 330.201 370.742 330.265 370.582 330.265Z" fill="#292A2E"/>
<path d="M363.865 330.265H361.951C361.791 330.265 361.638 330.201 361.525 330.088C361.412 329.975 361.349 329.822 361.349 329.662C361.349 329.502 361.412 329.349 361.525 329.236C361.638 329.123 361.791 329.059 361.951 329.059H363.865C364.025 329.059 364.178 329.123 364.291 329.236C364.404 329.349 364.468 329.502 364.468 329.662C364.468 329.822 364.404 329.975 364.291 330.088C364.178 330.201 364.025 330.265 363.865 330.265Z" fill="#292A2E"/>
<path d="M377.758 330.265H375.844C375.684 330.265 375.531 330.201 375.418 330.088C375.305 329.975 375.241 329.822 375.241 329.662C375.241 329.502 375.305 329.349 375.418 329.236C375.531 329.123 375.684 329.059 375.844 329.059H377.758C377.918 329.059 378.071 329.123 378.184 329.236C378.297 329.349 378.36 329.502 378.36 329.662C378.36 329.822 378.297 329.975 378.184 330.088C378.071 330.201 377.918 330.265 377.758 330.265Z" fill="#292A2E"/>
<path d="M390.674 362.515H229.57V398.663H390.674V362.515Z" fill="#47BAD8"/>
<g opacity="0.5">
<path d="M390.674 362.515H229.57V398.663H390.674V362.515Z" fill="white"/>
</g>
<path d="M390.675 399.266H229.571C229.411 399.266 229.258 399.202 229.145 399.089C229.032 398.976 228.968 398.823 228.968 398.663V362.515C228.968 362.355 229.032 362.202 229.145 362.089C229.258 361.976 229.411 361.912 229.571 361.912H390.675C390.835 361.912 390.988 361.976 391.101 362.089C391.214 362.202 391.278 362.355 391.278 362.515V398.663C391.278 398.823 391.214 398.976 391.101 399.089C390.988 399.202 390.835 399.266 390.675 399.266ZM230.174 398.06H390.072V363.118H230.174V398.06Z" fill="#292A2E"/>
<path d="M247.83 388.005C251.926 388.005 255.246 384.684 255.246 380.589C255.246 376.493 251.926 373.173 247.83 373.173C243.735 373.173 240.415 376.493 240.415 380.589C240.415 384.684 243.735 388.005 247.83 388.005Z" fill="white"/>
<path d="M247.831 388.604C246.245 388.604 244.695 388.134 243.377 387.253C242.059 386.372 241.031 385.12 240.424 383.655C239.818 382.191 239.659 380.579 239.968 379.024C240.278 377.468 241.041 376.04 242.162 374.919C243.283 373.798 244.712 373.034 246.267 372.725C247.822 372.415 249.434 372.574 250.899 373.181C252.364 373.788 253.616 374.815 254.497 376.134C255.378 377.452 255.848 379.002 255.848 380.588C255.845 382.713 254.999 384.75 253.497 386.253C251.994 387.756 249.956 388.602 247.831 388.604ZM247.831 373.776C246.484 373.776 245.167 374.176 244.047 374.924C242.927 375.673 242.054 376.736 241.538 377.981C241.023 379.226 240.888 380.595 241.151 381.916C241.413 383.238 242.062 384.451 243.015 385.404C243.967 386.356 245.181 387.005 246.502 387.268C247.823 387.531 249.193 387.396 250.438 386.88C251.682 386.365 252.746 385.492 253.494 384.372C254.243 383.252 254.642 381.935 254.642 380.588C254.64 378.782 253.922 377.051 252.645 375.774C251.368 374.497 249.637 373.779 247.831 373.776Z" fill="#292A2E"/>
<path d="M357.026 380.447H264.815C264.655 380.447 264.502 380.384 264.389 380.271C264.276 380.158 264.213 380.004 264.213 379.844C264.213 379.685 264.276 379.531 264.389 379.418C264.502 379.305 264.655 379.242 264.815 379.242H357.026C357.185 379.242 357.339 379.305 357.452 379.418C357.565 379.531 357.628 379.685 357.628 379.844C357.628 380.004 357.565 380.158 357.452 380.271C357.339 380.384 357.185 380.447 357.026 380.447Z" fill="#292A2E"/>
<path d="M370.582 380.447H368.669C368.509 380.447 368.355 380.384 368.242 380.271C368.129 380.158 368.066 380.004 368.066 379.844C368.066 379.685 368.129 379.531 368.242 379.418C368.355 379.305 368.509 379.242 368.669 379.242H370.582C370.742 379.242 370.895 379.305 371.008 379.418C371.121 379.531 371.185 379.685 371.185 379.844C371.185 380.004 371.121 380.158 371.008 380.271C370.895 380.384 370.742 380.447 370.582 380.447Z" fill="#292A2E"/>
<path d="M363.865 380.447H361.951C361.791 380.447 361.638 380.384 361.525 380.271C361.412 380.158 361.349 380.004 361.349 379.844C361.349 379.685 361.412 379.531 361.525 379.418C361.638 379.305 361.791 379.242 361.951 379.242H363.865C364.025 379.242 364.178 379.305 364.291 379.418C364.404 379.531 364.468 379.685 364.468 379.844C364.468 380.004 364.404 380.158 364.291 380.271C364.178 380.384 364.025 380.447 363.865 380.447Z" fill="#292A2E"/>
<path d="M377.758 380.447H375.844C375.684 380.447 375.531 380.384 375.418 380.271C375.305 380.158 375.241 380.004 375.241 379.844C375.241 379.685 375.305 379.531 375.418 379.418C375.531 379.305 375.684 379.242 375.844 379.242H377.758C377.918 379.242 378.071 379.305 378.184 379.418C378.297 379.531 378.36 379.685 378.36 379.844C378.36 380.004 378.297 380.158 378.184 380.271C378.071 380.384 377.918 380.447 377.758 380.447Z" fill="#292A2E"/>
<path d="M390.674 412.697H229.57V448.845H390.674V412.697Z" fill="#47BAD8"/>
<g opacity="0.5">
<path d="M390.674 412.697H229.57V448.845H390.674V412.697Z" fill="white"/>
</g>
<path d="M390.675 449.448H229.571C229.411 449.448 229.258 449.384 229.145 449.271C229.032 449.158 228.968 449.005 228.968 448.845V412.697C228.968 412.537 229.032 412.384 229.145 412.271C229.258 412.158 229.411 412.094 229.571 412.094H390.675C390.835 412.094 390.988 412.158 391.101 412.271C391.214 412.384 391.278 412.537 391.278 412.697V448.845C391.278 449.005 391.214 449.158 391.101 449.271C390.988 449.384 390.835 449.448 390.675 449.448ZM230.174 448.242H390.072V413.3H230.174V448.242Z" fill="#292A2E"/>
<path d="M247.83 438.187C251.926 438.187 255.246 434.867 255.246 430.771C255.246 426.675 251.926 423.355 247.83 423.355C243.735 423.355 240.415 426.675 240.415 430.771C240.415 434.867 243.735 438.187 247.83 438.187Z" fill="white"/>
<path d="M247.831 438.789C246.245 438.789 244.695 438.319 243.377 437.438C242.059 436.557 241.031 435.305 240.424 433.84C239.818 432.375 239.659 430.763 239.968 429.208C240.278 427.653 241.041 426.225 242.162 425.104C243.283 423.982 244.712 423.219 246.267 422.91C247.822 422.6 249.434 422.759 250.899 423.366C252.364 423.972 253.616 425 254.497 426.318C255.378 427.637 255.848 429.187 255.848 430.772C255.845 432.898 254.999 434.935 253.497 436.438C251.994 437.941 249.956 438.786 247.831 438.789ZM247.831 423.958C246.484 423.958 245.167 424.357 244.047 425.106C242.927 425.854 242.054 426.918 241.538 428.163C241.023 429.407 240.888 430.777 241.151 432.098C241.413 433.419 242.062 434.633 243.015 435.586C243.967 436.538 245.181 437.187 246.502 437.45C247.823 437.712 249.193 437.578 250.438 437.062C251.682 436.547 252.746 435.674 253.494 434.553C254.243 433.433 254.642 432.116 254.642 430.769C254.64 428.964 253.922 427.232 252.645 425.956C251.368 424.679 249.637 423.96 247.831 423.958Z" fill="#292A2E"/>
<path d="M357.026 430.629H264.815C264.655 430.629 264.502 430.566 264.389 430.453C264.276 430.34 264.213 430.186 264.213 430.027C264.213 429.867 264.276 429.713 264.389 429.6C264.502 429.487 264.655 429.424 264.815 429.424H357.026C357.185 429.424 357.339 429.487 357.452 429.6C357.565 429.713 357.628 429.867 357.628 430.027C357.628 430.186 357.565 430.34 357.452 430.453C357.339 430.566 357.185 430.629 357.026 430.629Z" fill="#292A2E"/>
<path d="M370.582 430.629H368.669C368.509 430.629 368.355 430.566 368.242 430.453C368.129 430.34 368.066 430.186 368.066 430.027C368.066 429.867 368.129 429.713 368.242 429.6C368.355 429.487 368.509 429.424 368.669 429.424H370.582C370.742 429.424 370.895 429.487 371.008 429.6C371.121 429.713 371.185 429.867 371.185 430.027C371.185 430.186 371.121 430.34 371.008 430.453C370.895 430.566 370.742 430.629 370.582 430.629Z" fill="#292A2E"/>
<path d="M363.865 430.629H361.951C361.791 430.629 361.638 430.566 361.525 430.453C361.412 430.34 361.349 430.186 361.349 430.027C361.349 429.867 361.412 429.713 361.525 429.6C361.638 429.487 361.791 429.424 361.951 429.424H363.865C364.025 429.424 364.178 429.487 364.291 429.6C364.404 429.713 364.468 429.867 364.468 430.027C364.468 430.186 364.404 430.34 364.291 430.453C364.178 430.566 364.025 430.629 363.865 430.629Z" fill="#292A2E"/>
<path d="M377.758 430.629H375.844C375.684 430.629 375.531 430.566 375.418 430.453C375.305 430.34 375.241 430.186 375.241 430.027C375.241 429.867 375.305 429.713 375.418 429.6C375.531 429.487 375.684 429.424 375.844 429.424H377.758C377.918 429.424 378.071 429.487 378.184 429.6C378.297 429.713 378.36 429.867 378.36 430.027C378.36 430.186 378.297 430.34 378.184 430.453C378.071 430.566 377.918 430.629 377.758 430.629Z" fill="#292A2E"/>
<path d="M46.6174 450.341C46.6174 450.341 39.8755 460.306 47.231 468.592C54.5866 476.877 46.6602 481.413 46.6602 481.413L16.7726 451.526L31.7056 436.594L46.6174 450.341Z" fill="#5271FF"/>
<path d="M48.2063 245.377C48.2063 245.377 48.3389 241.826 48.3112 249.881C48.2642 263.258 49.5372 298.608 48.6427 344.169C47.9279 380.589 22.5754 443.083 22.5754 443.083L45.4414 459.496C45.4414 459.496 79.8372 403.707 85.2959 348.479C88.0903 320.209 93.8063 244.154 93.8063 244.154L48.2063 245.377Z" fill="#262626"/>
<path d="M118.765 460.869C118.765 460.869 121.044 472.683 132.105 473.34C143.166 473.997 140.767 482.81 140.767 482.81H98.4995V461.692L118.765 460.869Z" fill="#5271FF"/>
<path d="M124.138 247.71C124.138 247.71 127.607 350.404 127.247 355.424L123.984 467.632L96.6688 468.137L92.2638 351.367C92.2638 351.367 89.3772 319.155 81.5948 289.245C77.6122 273.894 75.2153 258.175 74.4418 242.334L124.138 247.71Z" fill="#262626"/>
<path d="M88.1023 320.519L90.3802 285.687C90.3802 285.687 92.7195 300.168 92.7195 312.65C92.7195 318.751 91.4627 342.905 91.4627 342.905L88.1023 320.519Z" fill="#0A0A0A"/>
<path d="M47.9044 245.374L47.814 245.378C47.814 245.378 47.8797 243.627 47.9044 245.374Z" fill="#333333"/>
<path d="M48.0189 245.374L47.9279 245.378C47.9279 245.378 47.9936 243.627 48.0189 245.374Z" fill="#333333"/>
<path d="M65.9048 115.643C65.9048 115.643 63.7041 127.37 60.5317 131.341C51.3992 142.772 47.521 156.397 54.3202 164.569C61.1194 172.741 110.011 178.689 115.71 162.442C120.509 148.763 113.997 146.452 113.754 134.666C113.644 129.333 112.932 118.09 112.932 118.09" fill="#0A0A0A"/>
<path d="M105.567 156.245C105.482 156.234 104.539 171.888 86.3536 170.523C73.7636 169.58 69.2748 156.223 68.9867 156.223C70.3435 155.934 72.6298 155.515 73.2326 155.193C75.2151 154.128 77.6678 153.023 78.3067 149.17C78.675 146.951 78.0499 135.599 78.2422 133.355L97.5675 137.667C97.2975 142.409 95.4072 153.4 102.032 155.347C103.133 155.668 104.321 155.964 105.567 156.245Z" fill="#F4B3B3"/>
<path opacity="0.52" d="M97.8382 150.854C97.5356 149.879 97.3407 148.873 97.2571 147.855C97.0445 145.532 97.0867 143.193 97.3831 140.879C93.4554 140.349 89.7551 138.728 86.7027 136.2C86.344 137.526 84.3706 143.315 84.9167 144.578C85.9498 146.955 90.8033 150.854 97.8382 150.854Z" fill="#0C0C0C"/>
<path d="M94.4085 147.072C86.7534 146.899 77.3291 142.703 76.5063 132.387L75.7637 123.077C74.9403 112.76 79.6919 103.964 89.4055 103.19C99.1197 102.414 107.048 110.199 107.871 120.516L108.2 124.637C108.515 128.595 108.062 147.38 94.4085 147.072Z" fill="#F4B3B3"/>
<path d="M104.989 126.843C105.652 126.843 106.189 126.306 106.189 125.643C106.189 124.981 105.652 124.443 104.989 124.443C104.326 124.443 103.789 124.981 103.789 125.643C103.789 126.306 104.326 126.843 104.989 126.843Z" fill="#0C0C0C"/>
<path d="M92.8557 126.919C93.5186 126.919 94.0559 126.381 94.0559 125.719C94.0559 125.056 93.5186 124.519 92.8557 124.519C92.1929 124.519 91.6556 125.056 91.6556 125.719C91.6556 126.381 92.1929 126.919 92.8557 126.919Z" fill="#0C0C0C"/>
<path opacity="0.52" d="M98.931 133.378H98.9503C99.344 133.344 99.7356 133.288 100.123 133.21C100.703 133.09 101.467 132.872 101.426 132.356C101.38 131.768 99.2637 125.554 99.022 124.847C99.012 124.816 98.9958 124.787 98.9745 124.763C98.9533 124.738 98.9273 124.718 98.8981 124.703C98.8689 124.688 98.8371 124.68 98.8046 124.677C98.772 124.675 98.7393 124.68 98.7085 124.69C98.6776 124.701 98.6491 124.717 98.6247 124.739C98.6003 124.761 98.5805 124.787 98.5664 124.816C98.5522 124.846 98.5441 124.878 98.5424 124.91C98.5408 124.943 98.5456 124.976 98.5567 125.006C99.4608 127.652 100.907 131.998 100.936 132.395C100.854 132.568 99.8876 132.809 98.9111 132.887C98.8472 132.892 98.7876 132.921 98.7449 132.969C98.7022 133.016 98.6797 133.079 98.6823 133.143C98.6849 133.207 98.7123 133.267 98.7588 133.311C98.8052 133.355 98.867 133.379 98.931 133.378Z" fill="#0C0C0C"/>
<path opacity="0.52" d="M97.051 137.591C98.6255 137.557 100.17 137.153 101.56 136.413C101.589 136.398 101.614 136.378 101.635 136.354C101.656 136.329 101.672 136.301 101.682 136.27C101.692 136.239 101.696 136.207 101.694 136.175C101.691 136.143 101.683 136.111 101.668 136.082C101.653 136.054 101.633 136.028 101.609 136.007C101.584 135.986 101.556 135.97 101.525 135.96C101.463 135.94 101.396 135.945 101.337 135.974C98.3379 137.498 95.5212 137.493 93.1921 135.96C93.1453 135.928 93.0966 135.898 93.0463 135.871C92.9881 135.845 92.9223 135.843 92.8628 135.865C92.8032 135.887 92.7544 135.931 92.7266 135.988C92.6988 136.045 92.6942 136.111 92.7136 136.171C92.7331 136.232 92.7752 136.282 92.8311 136.312C92.8491 136.323 92.8799 136.343 92.9221 136.373C94.1465 137.181 95.5841 137.605 97.051 137.591Z" fill="#0C0C0C"/>
<path d="M67.8047 125.436L76.5069 124.792C83.2519 122.874 86.4128 111.896 86.4128 111.896C86.4128 111.896 93.438 120.395 112.932 118.094C112.932 118.094 111.978 91.15 83.0403 95.8353C73.7101 97.3422 66.2231 105.777 65.7149 118.07C65.3605 126.683 67.8047 125.436 67.8047 125.436Z" fill="#0A0A0A"/>
<path d="M77.3597 135.481C74.4062 135.717 71.763 132.75 71.5274 129.798C71.2917 126.845 73.5551 125.027 76.5068 124.791L78.1861 126.648L79.898 135.279L77.3597 135.481Z" fill="#F4B3B3"/>
<path d="M101.287 120.199C102.189 119.745 103.198 119.542 104.206 119.613C104.702 119.644 105.191 119.749 105.656 119.926C106.117 120.099 106.554 120.329 106.958 120.611C107.015 120.647 107.057 120.704 107.072 120.771C107.088 120.837 107.076 120.907 107.04 120.965C107.004 121.023 106.947 121.064 106.88 121.079C106.814 121.095 106.744 121.083 106.686 121.047L106.669 121.037C106.294 120.799 105.89 120.61 105.467 120.473C105.05 120.335 104.614 120.262 104.175 120.255C103.304 120.234 102.443 120.444 101.679 120.863L101.654 120.878C101.566 120.924 101.463 120.934 101.367 120.906C101.271 120.878 101.19 120.814 101.14 120.727C101.091 120.64 101.077 120.538 101.101 120.441C101.125 120.344 101.186 120.26 101.271 120.208L101.287 120.199Z" fill="#0C0C0C"/>
<path d="M93.4832 121.17C92.6638 120.874 91.7807 120.799 90.9232 120.954C90.4903 121.029 90.071 121.169 89.6797 121.368C89.2836 121.569 88.914 121.819 88.5797 122.111L88.5646 122.124C88.513 122.168 88.4459 122.19 88.378 122.186C88.31 122.181 88.2469 122.149 88.2023 122.097C88.1578 122.046 88.1356 121.979 88.1406 121.911C88.1456 121.843 88.1773 121.779 88.2289 121.735C88.5839 121.394 88.9804 121.099 89.4091 120.857C89.8419 120.611 90.3092 120.431 90.7954 120.324C91.7805 120.1 92.8078 120.145 93.7695 120.454C93.8193 120.469 93.8657 120.493 93.9059 120.526C93.9461 120.558 93.9793 120.599 94.0035 120.645C94.0277 120.69 94.0424 120.741 94.0467 120.792C94.0511 120.844 94.0449 120.896 94.0287 120.945C94.0125 120.995 93.9865 121.04 93.9524 121.079C93.9182 121.118 93.8765 121.15 93.8298 121.172C93.7831 121.195 93.7323 121.208 93.6806 121.21C93.6288 121.212 93.577 121.204 93.5284 121.186L93.5127 121.181L93.4832 121.17Z" fill="#0C0C0C"/>
<path opacity="0.52" d="M97.1336 139.922C97.4183 139.921 97.7024 139.895 97.9828 139.845C98.0417 139.829 98.0924 139.791 98.1251 139.74C98.1577 139.688 98.17 139.626 98.1594 139.566C98.1489 139.506 98.1163 139.451 98.0681 139.414C98.0199 139.376 97.9594 139.358 97.8985 139.363C97.4594 139.475 97.0015 139.491 96.5554 139.412C96.1094 139.332 95.6855 139.158 95.312 138.902C95.2877 138.881 95.2594 138.864 95.2288 138.854C95.1982 138.843 95.1659 138.839 95.1336 138.841C95.0685 138.846 95.0078 138.876 94.9648 138.925C94.9218 138.974 94.9 139.038 94.9043 139.103C94.9086 139.168 94.9386 139.229 94.9877 139.272C95.6062 139.73 96.3646 139.96 97.1336 139.922Z" fill="#0C0C0C"/>
<path d="M76.537 124.685L76.4767 124.44C87.7075 121.727 86.2078 110.829 86.1915 110.719L86.4404 110.681C86.4585 110.793 87.9956 121.915 76.537 124.685Z" fill="#0C0C0C"/>
<path opacity="0.1" d="M91.1789 133.295C92.4416 133.295 93.4652 132.544 93.4652 131.618C93.4652 130.692 92.4416 129.941 91.1789 129.941C89.9162 129.941 88.8926 130.692 88.8926 131.618C88.8926 132.544 89.9162 133.295 91.1789 133.295Z" fill="#0C0C0C"/>
<path opacity="0.1" d="M104.769 131.217C104.769 132.142 105.794 132.893 107.06 132.895C107.278 132.894 107.496 132.872 107.709 132.827C107.897 131.746 108.026 130.701 108.109 129.729C107.774 129.601 107.418 129.537 107.059 129.54C105.794 129.538 104.771 130.289 104.769 131.217Z" fill="#0C0C0C"/>
<path d="M128.161 190.708C127.589 197.437 124.803 239.421 124.252 247.71H48.3517C47.9225 240.236 45.9973 207.544 44.3734 192.925C42.8213 178.975 39.7761 171.991 42.0082 167.867C45.6555 161.126 55.6223 157.231 62.4179 156.311C66.568 155.749 72.8096 155.346 72.8096 155.346C72.8096 155.346 73.3376 166.037 85.9391 166.632C103.093 167.442 101.948 155.346 102.033 155.346C104.812 155.346 120.687 157.105 124.571 159.407C135.153 165.675 129.378 176.447 128.161 190.708Z" fill="#5271FF"/>
<path d="M185.852 203.012C185.94 202.771 186.075 202.551 186.25 202.364C186.426 202.178 186.637 202.029 186.872 201.927C187.107 201.824 187.36 201.771 187.616 201.77C187.873 201.769 188.126 201.82 188.362 201.92C188.812 202.13 189.165 202.502 189.35 202.963C189.536 203.423 189.54 203.936 189.361 204.399L188.492 206.793L193.949 201.229C194.627 200.517 195.915 200.077 196.662 200.89C197.31 201.508 198.809 201.698 199.053 202.856C199.061 202.862 199.046 213.455 198.417 214.115C195.748 216.918 189.296 217.46 185.698 216.037L180.032 213.797L185.852 203.012Z" fill="#F4B3B3"/>
<g opacity="0.1">
<path d="M185.852 203.012C185.94 202.771 186.075 202.551 186.25 202.364C186.426 202.178 186.637 202.029 186.872 201.927C187.107 201.824 187.36 201.771 187.616 201.77C187.873 201.769 188.126 201.82 188.362 201.92C188.812 202.13 189.165 202.502 189.35 202.963C189.536 203.423 189.54 203.936 189.361 204.399L188.492 206.793L193.949 201.229C194.627 200.517 195.915 200.077 196.662 200.89C197.31 201.508 198.809 201.698 199.053 202.856C199.061 202.862 199.046 213.455 198.417 214.115C195.748 216.918 189.296 217.46 185.698 216.037L180.032 213.797L185.852 203.012Z" fill="#0C0C0C"/>
</g>
<path d="M154.721 178.66L154.796 182.452C154.812 182.846 154.735 183.238 154.573 183.597C154.411 183.956 154.167 184.273 153.861 184.521C153.556 184.77 153.196 184.945 152.812 185.031C152.427 185.117 152.028 185.112 151.645 185.017L112.548 178.419C112.166 178.324 111.766 178.32 111.381 178.406C110.997 178.492 110.637 178.666 110.332 178.915C110.026 179.164 109.782 179.481 109.62 179.84C109.458 180.199 109.382 180.591 109.397 180.985L105.786 231.041C105.848 231.927 106.205 232.767 106.798 233.428C107.391 234.089 108.187 234.533 109.061 234.691L185.07 248.073C185.453 248.168 185.852 248.172 186.237 248.086C186.622 248 186.981 247.826 187.287 247.577C187.593 247.328 187.836 247.011 187.999 246.652C188.161 246.293 188.237 245.901 188.222 245.507L189.783 184.876C189.72 183.99 189.364 183.15 188.771 182.489C188.178 181.828 187.381 181.384 186.507 181.226L157.871 176.096C157.489 176.001 157.089 175.996 156.705 176.083C156.32 176.169 155.961 176.343 155.656 176.592C155.35 176.84 155.107 177.157 154.944 177.516C154.782 177.875 154.706 178.267 154.721 178.66Z" fill="#262626"/>
<path d="M185.618 248.718C185.401 248.718 185.185 248.7 184.972 248.663L108.956 235.282C107.947 235.095 107.028 234.578 106.345 233.812C105.662 233.046 105.253 232.074 105.183 231.05L108.796 180.94C108.781 180.485 108.868 180.033 109.05 179.616C109.232 179.198 109.505 178.827 109.848 178.529C110.234 178.212 110.685 177.985 111.169 177.862C111.653 177.74 112.158 177.725 112.648 177.82L151.746 184.417C152.061 184.485 152.387 184.481 152.701 184.406C153.014 184.331 153.307 184.187 153.558 183.984C153.771 183.793 153.939 183.557 154.049 183.293C154.159 183.029 154.208 182.744 154.193 182.458L154.118 178.666C154.099 178.203 154.183 177.741 154.366 177.315C154.548 176.889 154.824 176.509 155.172 176.203C155.559 175.886 156.01 175.659 156.494 175.536C156.978 175.414 157.483 175.399 157.973 175.494L186.615 180.626C187.629 180.803 188.553 181.317 189.237 182.086C189.922 182.854 190.327 183.831 190.387 184.858L188.825 245.515C188.842 245.974 188.757 246.431 188.574 246.852C188.392 247.274 188.118 247.649 187.772 247.951C187.17 248.458 186.405 248.73 185.618 248.718ZM111.989 178.973C111.496 178.961 111.015 179.129 110.636 179.445C110.422 179.635 110.254 179.872 110.144 180.136C110.034 180.4 109.985 180.686 110 180.971L106.389 231.082C106.455 231.819 106.763 232.514 107.264 233.058C107.766 233.603 108.432 233.968 109.161 234.096L185.176 247.477C185.491 247.544 185.817 247.54 186.129 247.465C186.442 247.389 186.734 247.245 186.985 247.043C187.198 246.852 187.366 246.616 187.476 246.352C187.586 246.088 187.635 245.803 187.62 245.517L189.181 184.859C189.12 184.117 188.814 183.417 188.313 182.867C187.811 182.317 187.141 181.948 186.408 181.819L157.766 176.687C157.451 176.621 157.126 176.625 156.813 176.7C156.5 176.775 156.208 176.919 155.958 177.121C155.744 177.312 155.577 177.548 155.466 177.812C155.356 178.076 155.307 178.362 155.321 178.648L155.397 182.439C155.416 182.902 155.332 183.364 155.15 183.79C154.967 184.216 154.692 184.596 154.343 184.902C153.957 185.219 153.506 185.447 153.022 185.569C152.538 185.692 152.033 185.706 151.543 185.611L112.446 179.014C112.295 178.987 112.142 178.974 111.989 178.973Z" fill="#292A2E"/>
<path d="M178.082 235.46L116.12 227.571L126.402 146.817L176.512 153.198L186.786 167.103L178.082 235.46Z" fill="white"/>
<path d="M178.082 236.064C178.057 236.064 178.032 236.062 178.006 236.059L116.042 228.169C115.883 228.149 115.739 228.067 115.641 227.94C115.543 227.814 115.5 227.654 115.52 227.495L125.801 146.741C125.822 146.582 125.904 146.438 126.03 146.34C126.158 146.243 126.317 146.2 126.476 146.219L176.586 152.6C176.667 152.611 176.745 152.638 176.816 152.679C176.886 152.721 176.947 152.776 176.996 152.841L187.269 166.747C187.361 166.872 187.402 167.027 187.383 167.181L178.679 235.539C178.66 235.684 178.589 235.818 178.479 235.915C178.369 236.012 178.227 236.066 178.081 236.066L178.082 236.064ZM116.794 227.05L177.561 234.787L186.157 167.268L176.181 153.766L126.923 147.493L116.794 227.05Z" fill="#292A2E"/>
<path d="M176.512 153.198L174.957 165.41L186.786 167.103L176.512 153.198Z" fill="white"/>
<path d="M186.786 167.706C186.757 167.706 186.729 167.704 186.701 167.7L174.872 166.007C174.715 165.985 174.574 165.902 174.478 165.776C174.382 165.65 174.339 165.491 174.359 165.334L175.914 153.122C175.929 153.002 175.98 152.889 176.059 152.798C176.139 152.707 176.244 152.642 176.361 152.612C176.478 152.581 176.601 152.587 176.715 152.627C176.829 152.668 176.928 152.742 176.999 152.84L187.273 166.745C187.339 166.835 187.379 166.942 187.389 167.053C187.398 167.164 187.376 167.276 187.326 167.375C187.276 167.475 187.199 167.559 187.104 167.617C187.009 167.675 186.899 167.706 186.788 167.706H186.786ZM175.63 164.897L185.445 166.302L176.92 154.765L175.63 164.897Z" fill="#292A2E"/>
<path d="M175.628 236L117.11 214.154L145.582 137.89L192.906 155.557L199.729 171.443L175.628 236Z" fill="#47BAD8"/>
<g opacity="0.43">
<path d="M175.628 236L117.11 214.154L145.582 137.89L192.906 155.557L199.729 171.443L175.628 236Z" fill="white"/>
</g>
<path d="M175.628 236.603C175.556 236.603 175.485 236.59 175.417 236.565L116.899 214.719C116.749 214.663 116.628 214.55 116.562 214.405C116.495 214.259 116.489 214.094 116.545 213.944L145.017 137.679C145.045 137.605 145.087 137.537 145.141 137.479C145.195 137.421 145.259 137.374 145.331 137.341C145.404 137.308 145.481 137.29 145.56 137.287C145.64 137.284 145.718 137.297 145.793 137.325L193.117 154.993C193.194 155.021 193.263 155.065 193.322 155.121C193.381 155.177 193.429 155.245 193.461 155.319L200.283 171.205C200.344 171.348 200.348 171.508 200.294 171.654L176.193 236.21C176.15 236.325 176.073 236.425 175.972 236.495C175.871 236.565 175.751 236.603 175.628 236.603ZM117.883 213.801L175.273 235.225L199.078 171.459L192.453 156.031L145.934 138.665L117.883 213.801Z" fill="#292A2E"/>
<path d="M192.906 155.557L188.601 167.091L199.729 171.443L192.906 155.557Z" fill="white"/>
<path d="M199.729 172.046C199.654 172.046 199.579 172.032 199.51 172.005L188.381 167.653C188.234 167.595 188.115 167.481 188.05 167.337C187.986 167.192 187.981 167.028 188.036 166.88L192.342 155.346C192.384 155.234 192.459 155.136 192.557 155.066C192.655 154.996 192.771 154.957 192.892 154.954H192.907C193.025 154.954 193.14 154.989 193.239 155.054C193.337 155.119 193.414 155.211 193.461 155.319L200.283 171.205C200.323 171.297 200.34 171.398 200.331 171.497C200.323 171.597 200.289 171.693 200.234 171.777C200.179 171.861 200.104 171.93 200.016 171.977C199.928 172.025 199.829 172.049 199.729 172.049V172.046ZM189.373 166.746L198.607 170.357L192.946 157.176L189.373 166.746Z" fill="#292A2E"/>
<path d="M188.566 178.108C188.495 178.108 188.423 178.095 188.356 178.07L145.05 161.89C144.903 161.831 144.785 161.718 144.722 161.574C144.658 161.43 144.653 161.266 144.708 161.119C144.763 160.971 144.874 160.851 145.017 160.784C145.159 160.717 145.323 160.709 145.471 160.761L188.778 176.941C188.91 176.99 189.02 177.085 189.09 177.207C189.16 177.33 189.184 177.473 189.159 177.612C189.134 177.751 189.061 177.877 188.953 177.967C188.844 178.058 188.707 178.107 188.566 178.108Z" fill="#292A2E"/>
<path d="M185.358 186.091C185.286 186.09 185.215 186.077 185.148 186.052L141.842 169.872C141.695 169.814 141.577 169.7 141.514 169.556C141.45 169.412 141.445 169.249 141.5 169.101C141.555 168.953 141.666 168.833 141.809 168.766C141.951 168.699 142.115 168.691 142.263 168.743L185.57 184.923C185.702 184.973 185.813 185.067 185.883 185.19C185.953 185.313 185.978 185.456 185.953 185.595C185.927 185.734 185.854 185.86 185.746 185.951C185.637 186.041 185.5 186.091 185.359 186.091H185.358Z" fill="#292A2E"/>
<path d="M182.35 194.107C182.278 194.108 182.206 194.095 182.139 194.07L138.833 177.889C138.757 177.863 138.688 177.822 138.628 177.768C138.568 177.714 138.52 177.649 138.486 177.576C138.452 177.504 138.433 177.425 138.43 177.345C138.426 177.265 138.439 177.185 138.467 177.109C138.495 177.034 138.538 176.965 138.593 176.907C138.648 176.849 138.714 176.802 138.788 176.769C138.861 176.737 138.94 176.719 139.021 176.718C139.101 176.716 139.18 176.731 139.255 176.76L182.561 192.941C182.694 192.99 182.804 193.085 182.874 193.207C182.943 193.33 182.968 193.473 182.942 193.612C182.917 193.751 182.844 193.876 182.736 193.967C182.628 194.057 182.492 194.107 182.351 194.107H182.35Z" fill="#292A2E"/>
<path d="M163.717 178.66L163.053 182.452C162.91 183.276 162.444 184.009 161.76 184.49C161.075 184.972 160.227 185.161 159.403 185.017L121.59 178.419C121.182 178.348 120.764 178.358 120.36 178.448C119.955 178.539 119.573 178.708 119.234 178.946C118.895 179.184 118.606 179.487 118.384 179.837C118.162 180.187 118.011 180.577 117.94 180.985L109.109 231.609C108.965 232.433 109.154 233.281 109.635 233.965C110.117 234.65 110.85 235.115 111.674 235.259L185.114 248.069C185.938 248.213 186.786 248.023 187.47 247.542C188.155 247.061 188.62 246.327 188.764 245.503L190.962 232.902L198.135 191.772L199.341 184.872C199.412 184.464 199.402 184.046 199.312 183.642C199.221 183.237 199.052 182.855 198.814 182.516C198.576 182.177 198.273 181.888 197.923 181.666C197.573 181.444 197.183 181.293 196.775 181.222L167.366 176.092C166.957 176.021 166.539 176.031 166.135 176.122C165.73 176.212 165.348 176.382 165.009 176.62C164.67 176.859 164.382 177.162 164.16 177.512C163.938 177.862 163.787 178.252 163.717 178.66Z" fill="white"/>
<path d="M185.657 248.719C185.441 248.719 185.224 248.7 185.011 248.663L111.572 235.851C110.591 235.678 109.719 235.124 109.146 234.309C108.573 233.494 108.347 232.485 108.517 231.503L117.348 180.88C117.519 179.898 118.074 179.025 118.889 178.451C119.704 177.878 120.714 177.653 121.696 177.824L159.51 184.42C159.84 184.478 160.178 184.47 160.506 184.397C160.833 184.324 161.143 184.188 161.417 183.995C161.691 183.802 161.925 183.557 162.104 183.274C162.284 182.991 162.406 182.675 162.463 182.345L163.126 178.554C163.211 178.068 163.391 177.603 163.655 177.187C163.919 176.77 164.263 176.409 164.667 176.125C165.071 175.842 165.526 175.64 166.008 175.532C166.489 175.425 166.987 175.413 167.474 175.498L196.883 180.628C197.864 180.8 198.738 181.354 199.311 182.169C199.884 182.985 200.11 183.994 199.939 184.976L189.358 245.607C189.205 246.478 188.75 247.267 188.073 247.836C187.397 248.405 186.541 248.717 185.657 248.719ZM121.041 178.973C120.441 178.974 119.86 179.187 119.402 179.573C118.943 179.96 118.635 180.496 118.532 181.087L109.704 231.711C109.588 232.377 109.741 233.063 110.13 233.616C110.519 234.17 111.112 234.547 111.778 234.664L185.219 247.475C185.885 247.591 186.571 247.438 187.125 247.049C187.679 246.66 188.055 246.067 188.172 245.4L198.749 184.769C198.865 184.103 198.712 183.417 198.323 182.863C197.934 182.31 197.341 181.933 196.674 181.816L167.265 176.685C166.935 176.627 166.596 176.635 166.269 176.708C165.942 176.781 165.633 176.918 165.358 177.111C165.084 177.303 164.85 177.548 164.671 177.831C164.491 178.114 164.369 178.43 164.312 178.76L163.648 182.551C163.564 183.037 163.384 183.502 163.12 183.919C162.855 184.336 162.511 184.696 162.108 184.98C161.704 185.264 161.248 185.466 160.767 185.573C160.285 185.681 159.787 185.693 159.301 185.608L121.486 179.011C121.34 178.985 121.191 178.972 121.042 178.973H121.041Z" fill="#292A2E"/>
<path d="M191.198 209.635C191.289 209.311 191.484 209.026 191.753 208.823C192.021 208.62 192.349 208.51 192.686 208.511C192.681 208.484 192.652 208.421 192.699 208.417L191.54 207.854C191.195 207.695 190.918 207.417 190.762 207.071C190.606 206.725 190.581 206.334 190.69 205.971C190.811 205.615 191.058 205.317 191.386 205.134C191.713 204.951 192.097 204.896 192.463 204.98C192.458 204.965 192.463 204.95 192.463 204.934L191.986 204.703C191.662 204.552 191.399 204.294 191.243 203.972C191.087 203.65 191.047 203.284 191.13 202.936C191.186 202.719 191.29 202.517 191.434 202.345C191.578 202.173 191.758 202.035 191.962 201.94C192.166 201.846 192.388 201.799 192.612 201.801C192.837 201.803 193.058 201.855 193.259 201.953L194.359 202.487C194.359 202.481 194.359 202.474 194.359 202.468C194.359 202.462 194.372 202.458 194.377 202.451C194.109 202.237 193.921 201.938 193.846 201.603C193.77 201.268 193.81 200.918 193.96 200.609C194.294 199.786 195.387 199.755 196.098 200.1L198.252 201.361C198.585 201.556 198.864 201.83 199.065 202.159C199.266 202.487 199.382 202.861 199.404 203.245C199.596 206.573 199.891 215.279 197.622 214.177L192.037 211.464C191.714 211.296 191.456 211.025 191.304 210.694C191.152 210.362 191.115 209.99 191.198 209.635Z" fill="#F4B3B3"/>
<path d="M128.767 223.747C128.744 223.377 128.606 223.023 128.372 222.735C128.139 222.446 127.822 222.237 127.464 222.137C127.48 222.108 127.486 222.075 127.482 222.043C127.475 222.016 127.461 221.991 127.442 221.971C127.422 221.951 127.398 221.937 127.371 221.929L128.863 221.599C129.304 221.51 129.699 221.266 129.974 220.909C130.249 220.553 130.386 220.109 130.359 219.659C130.317 219.217 130.113 218.806 129.786 218.505C129.458 218.204 129.031 218.036 128.587 218.032C128.596 218.017 128.592 217.997 128.597 217.979L129.21 217.843C129.626 217.759 130 217.533 130.268 217.205C130.536 216.876 130.683 216.465 130.683 216.04C130.678 215.774 130.613 215.513 130.494 215.275C130.376 215.037 130.206 214.828 129.996 214.663C129.787 214.499 129.544 214.383 129.285 214.324C129.025 214.265 128.756 214.264 128.496 214.321L127.082 214.635C127.082 214.627 127.088 214.621 127.086 214.614C127.084 214.606 127.074 214.599 127.07 214.59C127.438 214.416 127.736 214.122 127.916 213.757C128.095 213.392 128.145 212.976 128.057 212.579C127.897 211.538 126.645 211.202 125.731 211.405L117.476 213.087L119.434 211.655C119.822 211.384 120.091 210.976 120.189 210.514C120.287 210.051 120.205 209.569 119.961 209.164C119.828 208.96 119.654 208.784 119.451 208.649C119.248 208.514 119.019 208.421 118.779 208.377C118.539 208.334 118.293 208.339 118.055 208.393C117.817 208.448 117.593 208.55 117.396 208.694L106.703 216.512C105.448 217.429 104.6 218.799 104.339 220.331C104.079 221.864 104.427 223.437 105.308 224.717C106.33 226.201 107.772 227.347 109.449 228.007C111.126 228.666 112.962 228.81 114.722 228.42L127.294 225.629C127.716 225.528 128.091 225.287 128.359 224.945C128.626 224.603 128.77 224.181 128.767 223.747Z" fill="#F4B3B3"/>
<g opacity="0.25">
<path d="M118.914 216.289C118.924 216.332 118.949 216.368 118.986 216.392C119.022 216.415 119.066 216.423 119.109 216.415L126.957 214.805C126.998 214.794 127.033 214.768 127.055 214.732C127.078 214.696 127.085 214.653 127.077 214.611C127.068 214.57 127.044 214.533 127.01 214.509C126.975 214.484 126.932 214.474 126.89 214.48L119.042 216.09C119.021 216.094 119.001 216.102 118.983 216.115C118.965 216.127 118.949 216.142 118.937 216.161C118.925 216.179 118.917 216.199 118.913 216.22C118.909 216.242 118.909 216.264 118.913 216.285L118.914 216.289Z" fill="#0C0C0C"/>
</g>
<g opacity="0.25">
<path d="M119.529 219.769C119.539 219.811 119.564 219.848 119.601 219.872C119.637 219.895 119.682 219.903 119.724 219.895L128.482 218.098C128.504 218.094 128.524 218.085 128.542 218.073C128.56 218.061 128.576 218.046 128.588 218.027C128.599 218.009 128.608 217.989 128.612 217.968C128.616 217.946 128.616 217.924 128.611 217.903C128.601 217.861 128.575 217.824 128.539 217.8C128.503 217.776 128.458 217.766 128.416 217.774L119.657 219.57C119.636 219.574 119.616 219.583 119.598 219.595C119.58 219.607 119.564 219.623 119.552 219.641C119.54 219.659 119.532 219.679 119.528 219.701C119.524 219.722 119.524 219.744 119.528 219.765L119.529 219.769Z" fill="#0C0C0C"/>
</g>
<g opacity="0.25">
<path d="M120.172 223.544C120.182 223.586 120.207 223.623 120.244 223.646C120.28 223.67 120.324 223.678 120.367 223.669L127.353 222.236C127.375 222.232 127.395 222.223 127.413 222.211C127.431 222.199 127.446 222.184 127.458 222.165C127.47 222.147 127.479 222.127 127.483 222.106C127.487 222.084 127.487 222.062 127.482 222.041C127.473 221.998 127.448 221.96 127.411 221.936C127.374 221.912 127.33 221.903 127.286 221.911L120.3 223.344C120.279 223.349 120.259 223.357 120.241 223.369C120.223 223.382 120.207 223.397 120.195 223.415C120.183 223.434 120.175 223.454 120.171 223.475C120.167 223.497 120.167 223.519 120.171 223.54L120.172 223.544Z" fill="#0C0C0C"/>
</g>
<path d="M113.944 233.392L45.7302 245.72C43.6016 245.951 41.4483 245.686 39.4393 244.946C37.4302 244.205 35.62 243.01 34.1508 241.452C32.6815 239.895 31.5931 238.018 30.971 235.969C30.3489 233.92 30.21 231.755 30.5652 229.644L40.1148 172.881C40.4167 171.086 41.0691 169.369 42.0348 167.826C43.0005 166.284 44.2606 164.947 45.743 163.891C47.2255 162.836 48.9013 162.083 50.6748 161.675C52.4483 161.267 54.2848 161.212 56.0794 161.514C57.874 161.816 59.5916 162.469 61.1341 163.434C62.6765 164.4 64.0137 165.66 65.0692 167.143C66.1247 168.625 66.8778 170.301 67.2857 172.074C67.6935 173.848 67.748 175.684 67.4461 177.479L60.9362 216.554L110.947 210.274L113.944 233.392Z" fill="#5271FF"/>
<path d="M45.7296 245.971C45.6668 245.971 45.6064 245.947 45.5603 245.905C45.5141 245.862 45.4855 245.804 45.48 245.741C45.4745 245.678 45.4925 245.616 45.5305 245.566C45.5686 245.516 45.6239 245.482 45.6856 245.471L113.663 233.186L110.728 210.555L60.9658 216.805C60.9268 216.81 60.8872 216.805 60.8501 216.792C60.813 216.779 60.7795 216.758 60.7523 216.729C60.725 216.701 60.7048 216.667 60.6932 216.629C60.6816 216.592 60.679 216.552 60.6855 216.513L64.8253 191.539C64.8304 191.506 64.8419 191.475 64.8593 191.447C64.8767 191.418 64.8996 191.394 64.9266 191.374C64.9536 191.355 64.9842 191.341 65.0166 191.334C65.049 191.327 65.0826 191.326 65.1153 191.332C65.1812 191.343 65.2402 191.379 65.2792 191.434C65.3182 191.488 65.334 191.556 65.3232 191.622L61.2413 216.262L110.917 210.023C110.983 210.015 111.049 210.034 111.102 210.075C111.155 210.115 111.189 210.175 111.198 210.241L114.197 233.359C114.206 233.423 114.189 233.488 114.151 233.541C114.113 233.593 114.056 233.629 113.992 233.64L45.7754 245.968C45.7603 245.97 45.745 245.971 45.7296 245.971Z" fill="#0C0C0C"/>
<path d="M60.8962 216.306L56.5084 217.008L56.5883 217.507L60.976 216.804L60.8962 216.306Z" fill="#0C0C0C"/>
<path d="M490.064 381.05H456.984V379.844H490.064C498.205 379.836 506.011 376.598 511.768 370.841C517.525 365.083 520.764 357.278 520.772 349.136V136.757H521.978V349.136C521.968 357.597 518.602 365.709 512.619 371.692C506.637 377.675 498.525 381.04 490.064 381.05Z" fill="#292A2E"/>
<path d="M521.375 178.173C523.514 178.173 525.248 176.439 525.248 174.301C525.248 172.162 523.514 170.428 521.375 170.428C519.236 170.428 517.502 172.162 517.502 174.301C517.502 176.439 519.236 178.173 521.375 178.173Z" fill="white"/>
<path d="M521.375 178.776C520.49 178.776 519.624 178.514 518.888 178.022C518.152 177.53 517.578 176.831 517.239 176.013C516.901 175.195 516.812 174.295 516.985 173.426C517.157 172.558 517.584 171.761 518.21 171.135C518.836 170.509 519.634 170.082 520.502 169.91C521.37 169.737 522.27 169.826 523.088 170.165C523.906 170.504 524.605 171.077 525.097 171.814C525.589 172.55 525.851 173.415 525.851 174.301C525.85 175.487 525.378 176.625 524.538 177.464C523.699 178.303 522.562 178.775 521.375 178.776ZM521.375 171.03C520.728 171.03 520.096 171.222 519.558 171.581C519.02 171.941 518.601 172.451 518.353 173.049C518.106 173.647 518.041 174.304 518.167 174.939C518.293 175.573 518.605 176.156 519.062 176.613C519.52 177.071 520.102 177.382 520.737 177.508C521.371 177.635 522.029 177.57 522.626 177.322C523.224 177.075 523.735 176.655 524.094 176.118C524.454 175.58 524.645 174.947 524.645 174.301C524.644 173.433 524.3 172.602 523.686 171.989C523.073 171.376 522.242 171.031 521.375 171.03Z" fill="#292A2E"/>
<path d="M521.375 232.68C523.514 232.68 525.248 230.947 525.248 228.808C525.248 226.669 523.514 224.935 521.375 224.935C519.236 224.935 517.502 226.669 517.502 228.808C517.502 230.947 519.236 232.68 521.375 232.68Z" fill="#292A2E"/>
<path d="M521.375 233.284C520.49 233.284 519.624 233.021 518.888 232.529C518.152 232.038 517.578 231.338 517.239 230.521C516.901 229.703 516.812 228.803 516.985 227.934C517.157 227.066 517.584 226.269 518.21 225.643C518.836 225.017 519.633 224.59 520.502 224.417C521.37 224.245 522.27 224.333 523.088 224.672C523.906 225.011 524.605 225.585 525.097 226.321C525.588 227.057 525.851 227.922 525.851 228.808C525.85 229.994 525.378 231.132 524.539 231.971C523.699 232.811 522.562 233.283 521.375 233.284ZM521.375 225.538C520.728 225.538 520.096 225.729 519.558 226.089C519.02 226.448 518.601 226.959 518.353 227.557C518.106 228.154 518.041 228.812 518.167 229.447C518.293 230.081 518.605 230.664 519.062 231.121C519.52 231.579 520.103 231.89 520.737 232.016C521.372 232.142 522.029 232.077 522.627 231.83C523.224 231.582 523.735 231.163 524.095 230.625C524.454 230.087 524.646 229.455 524.645 228.808C524.644 227.941 524.299 227.109 523.686 226.496C523.073 225.883 522.242 225.539 521.375 225.538Z" fill="white"/>
<path d="M521.375 287.187C523.514 287.187 525.248 285.454 525.248 283.315C525.248 281.176 523.514 279.442 521.375 279.442C519.236 279.442 517.502 281.176 517.502 283.315C517.502 285.454 519.236 287.187 521.375 287.187Z" fill="white"/>
<path d="M521.375 287.791C520.49 287.791 519.624 287.528 518.888 287.036C518.152 286.545 517.578 285.846 517.239 285.028C516.901 284.21 516.812 283.31 516.985 282.441C517.157 281.573 517.584 280.776 518.21 280.15C518.836 279.524 519.633 279.097 520.502 278.925C521.37 278.752 522.27 278.84 523.088 279.179C523.906 279.518 524.605 280.092 525.097 280.828C525.588 281.564 525.851 282.429 525.851 283.315C525.85 284.501 525.378 285.639 524.539 286.478C523.699 287.318 522.562 287.79 521.375 287.791ZM521.375 280.045C520.728 280.045 520.096 280.237 519.558 280.596C519.02 280.955 518.601 281.466 518.353 282.064C518.106 282.662 518.041 283.319 518.167 283.954C518.293 284.588 518.605 285.171 519.062 285.628C519.52 286.086 520.103 286.397 520.737 286.523C521.372 286.649 522.029 286.584 522.627 286.337C523.224 286.089 523.735 285.67 524.095 285.132C524.454 284.594 524.646 283.962 524.645 283.315C524.644 282.448 524.299 281.617 523.686 281.004C523.073 280.391 522.242 280.047 521.375 280.046V280.045Z" fill="#292A2E"/>
<path d="M521.375 341.695C523.514 341.695 525.248 339.961 525.248 337.822C525.248 335.684 523.514 333.95 521.375 333.95C519.236 333.95 517.502 335.684 517.502 337.822C517.502 339.961 519.236 341.695 521.375 341.695Z" fill="white"/>
<path d="M521.375 342.298C520.49 342.298 519.624 342.035 518.888 341.544C518.152 341.052 517.578 340.353 517.239 339.535C516.901 338.717 516.812 337.817 516.985 336.949C517.157 336.08 517.584 335.283 518.21 334.657C518.836 334.031 519.633 333.604 520.502 333.432C521.37 333.259 522.27 333.348 523.088 333.686C523.906 334.025 524.605 334.599 525.097 335.335C525.588 336.071 525.851 336.937 525.851 337.822C525.85 339.009 525.378 340.146 524.539 340.986C523.699 341.825 522.562 342.297 521.375 342.298ZM521.375 334.552C520.728 334.552 520.096 334.744 519.558 335.103C519.02 335.462 518.601 335.973 518.353 336.571C518.106 337.169 518.041 337.826 518.167 338.461C518.293 339.095 518.605 339.678 519.062 340.135C519.52 340.593 520.103 340.904 520.737 341.03C521.372 341.156 522.029 341.092 522.627 340.844C523.224 340.596 523.735 340.177 524.095 339.639C524.454 339.101 524.646 338.469 524.645 337.822C524.644 336.955 524.299 336.124 523.686 335.511C523.073 334.898 522.242 334.553 521.375 334.552Z" fill="#292A2E"/>
<path d="M491.782 384.462C493.921 384.462 495.655 382.728 495.655 380.589C495.655 378.45 493.921 376.716 491.782 376.716C489.643 376.716 487.909 378.45 487.909 380.589C487.909 382.728 489.643 384.462 491.782 384.462Z" fill="#292A2E"/>
<path d="M491.783 385.064C490.897 385.064 490.032 384.802 489.296 384.31C488.56 383.818 487.987 383.119 487.648 382.301C487.31 381.484 487.221 380.584 487.394 379.716C487.566 378.848 487.992 378.05 488.618 377.424C489.244 376.798 490.041 376.372 490.91 376.199C491.778 376.027 492.677 376.115 493.495 376.454C494.313 376.792 495.012 377.366 495.504 378.101C495.996 378.837 496.258 379.702 496.259 380.588C496.258 381.774 495.786 382.912 494.946 383.752C494.107 384.591 492.969 385.063 491.783 385.064ZM491.783 377.319C491.136 377.319 490.504 377.511 489.966 377.87C489.428 378.23 489.009 378.741 488.762 379.338C488.514 379.936 488.45 380.593 488.576 381.228C488.702 381.862 489.014 382.444 489.472 382.902C489.929 383.359 490.512 383.67 491.146 383.796C491.781 383.922 492.438 383.857 493.036 383.609C493.633 383.362 494.144 382.942 494.503 382.405C494.862 381.867 495.053 381.234 495.053 380.588C495.052 379.721 494.707 378.89 494.094 378.277C493.481 377.664 492.649 377.319 491.783 377.319Z" fill="white"/>
<path d="M0.602768 482.619H560.055C560.215 482.619 560.368 482.555 560.481 482.442C560.594 482.329 560.658 482.176 560.658 482.016C560.658 481.856 560.594 481.703 560.481 481.59C560.368 481.477 560.215 481.413 560.055 481.413H0.602768C0.442904 481.413 0.289588 481.477 0.176547 481.59C0.0635057 481.703 0 481.856 0 482.016C0 482.176 0.0635057 482.329 0.176547 482.442C0.289588 482.555 0.442904 482.619 0.602768 482.619Z" fill="#262626"/>
</svg>
