<svg width="50" height="50" viewBox="0 0 50 50" fill="none" xmlns="http://www.w3.org/2000/svg">
<path d="M41.7676 24.5039L19.8926 47.9414C19.6608 48.1888 19.3548 48.3541 19.0208 48.4123C18.6868 48.4705 18.3429 48.4185 18.0411 48.2642C17.7392 48.1099 17.4957 47.8615 17.3474 47.5567C17.1991 47.2518 17.1539 46.907 17.2188 46.5742L20.082 32.2519L8.82617 28.0254C8.58444 27.935 8.36887 27.7861 8.19872 27.592C8.02857 27.3979 7.90914 27.1647 7.85111 26.9133C7.79308 26.6618 7.79824 26.3998 7.86614 26.1508C7.93405 25.9018 8.06257 25.6735 8.24024 25.4863L30.1152 2.04881C30.3471 1.80142 30.653 1.63614 30.987 1.57791C31.321 1.51968 31.6649 1.57166 31.9667 1.726C32.2686 1.88035 32.5121 2.12869 32.6604 2.43354C32.8087 2.7384 32.8539 3.08323 32.7891 3.416L29.918 17.7539L41.1738 21.9746C41.4138 22.0656 41.6276 22.2144 41.7964 22.4077C41.9653 22.6009 42.0839 22.8329 42.1418 23.0829C42.1997 23.3329 42.1952 23.5933 42.1285 23.8412C42.0619 24.089 41.9353 24.3166 41.7598 24.5039H41.7676Z" fill="url(#paint0_linear_834_4584)"/>
<defs>
<linearGradient id="paint0_linear_834_4584" x1="24.9966" y1="1.55469" x2="24.9966" y2="48.4355" gradientUnits="userSpaceOnUse">
<stop stop-color="#5271FF"/>
<stop offset="1" stop-color="#47BAD8"/>
</linearGradient>
</defs>
</svg>
